G04 #@! TF.FileFunction,Profile,NP*
%FSLAX46Y46*%
G04 Gerber Fmt 4.6, Leading zero omitted, Abs format (unit mm)*
G04 Created by KiCad (PCBNEW 4.0.1-3.201512221402+6198~38~ubuntu14.04.1-stable) date Mon 18 Jan 2016 08:14:31 PM CET*
%MOMM*%
G01*
G04 APERTURE LIST*
%ADD10C,0.100000*%
%ADD11C,0.150000*%
G04 APERTURE END LIST*
D10*
D11*
X89003529Y-109102782D02*
G75*
G02X89000000Y-114600000I-2168593J-2747218D01*
G01*
X89000000Y-114600000D02*
X89000000Y-139000000D01*
X89000000Y-100600000D02*
X89000000Y-109100000D01*
X99300000Y-100600000D02*
G75*
G03X99300000Y-98100000I0J1250000D01*
G01*
X89000000Y-100600000D02*
X99300000Y-100600000D01*
X89000000Y-98100000D02*
X99300000Y-98100000D01*
X89000000Y-77000000D02*
G75*
G03X87900000Y-75900000I-1100000J0D01*
G01*
X90800000Y-60050000D02*
X83000000Y-65500000D01*
X92000000Y-60050000D02*
X90800000Y-60050000D01*
X114200000Y-58950000D02*
X114200000Y-57500000D01*
X112500000Y-60050000D02*
X113100000Y-60050000D01*
X113100000Y-60050000D02*
G75*
G03X114200000Y-58950000I0J1100000D01*
G01*
X119700000Y-71100000D02*
G75*
G03X122100000Y-71100000I1200000J0D01*
G01*
X135700000Y-73800000D02*
G75*
G03X135700000Y-76200000I0J-1200000D01*
G01*
X239500000Y-122200000D02*
X221300000Y-122200000D01*
X239500000Y-132300000D02*
X239500000Y-122200000D01*
X238600000Y-132300000D02*
X239500000Y-132300000D01*
X237600000Y-134800000D02*
X237600000Y-133300000D01*
X238600000Y-132300000D02*
G75*
G03X237600000Y-133300000I0J-1000000D01*
G01*
X237600000Y-134800000D02*
G75*
G03X238600000Y-135800000I1000000J0D01*
G01*
X239100000Y-135800000D02*
X238600000Y-135800000D01*
X225400000Y-136000000D02*
G75*
G03X224300000Y-134900000I-1100000J0D01*
G01*
X190400000Y-134900000D02*
G75*
G03X189300000Y-136000000I0J-1100000D01*
G01*
X239100000Y-137700000D02*
X239100000Y-135800000D01*
X232300000Y-137700000D02*
G75*
G03X231000000Y-139000000I0J-1300000D01*
G01*
X232300000Y-137700000D02*
X239100000Y-137700000D01*
X225400000Y-136000000D02*
X225400000Y-139000000D01*
X189300000Y-136000000D02*
X189300000Y-139000000D01*
X225400000Y-139000000D02*
X231000000Y-139000000D01*
X190400000Y-134900000D02*
X224300000Y-134900000D01*
X219300000Y-122200000D02*
G75*
G03X221300000Y-122200000I1000000J0D01*
G01*
X219300000Y-76200000D02*
X219300000Y-122200000D01*
X135700000Y-71100000D02*
X135700000Y-73800000D01*
X135700000Y-76200000D02*
X219300000Y-76200000D01*
X119700000Y-71100000D02*
X119700000Y-57500000D01*
X122100000Y-71100000D02*
X135700000Y-71100000D01*
X92000000Y-60050000D02*
G75*
G03X93000000Y-59050000I0J1000000D01*
G01*
X93000000Y-58700000D02*
X93000000Y-59050000D01*
X111500000Y-58700000D02*
X111500000Y-59050000D01*
X111500000Y-59050000D02*
G75*
G03X112500000Y-60050000I1000000J0D01*
G01*
X119700000Y-57500000D02*
X114200000Y-57500000D01*
X95500000Y-137700000D02*
X101600000Y-137700000D01*
X95500000Y-137700000D02*
G75*
G03X94200000Y-139000000I0J-1300000D01*
G01*
X102900000Y-139000000D02*
G75*
G03X101600000Y-137700000I-1300000J0D01*
G01*
X189300000Y-139000000D02*
X102900000Y-139000000D01*
X89000000Y-139000000D02*
X94200000Y-139000000D01*
X89000000Y-77000000D02*
X89000000Y-98100000D01*
X83000000Y-75900000D02*
X87900000Y-75900000D01*
X105450000Y-64300000D02*
X99250000Y-64300000D01*
X105450000Y-64300000D02*
G75*
G03X106250000Y-63500000I0J800000D01*
G01*
X98450000Y-63500000D02*
G75*
G03X99250000Y-64300000I800000J0D01*
G01*
X106250000Y-58700000D02*
X111500000Y-58700000D01*
X106250000Y-63500000D02*
X106250000Y-58700000D01*
X98450000Y-58700000D02*
X98450000Y-63500000D01*
X93000000Y-58700000D02*
X98450000Y-58700000D01*
X83000000Y-75900000D02*
X83000000Y-65500000D01*
M02*
