G04 #@! TF.FileFunction,Legend,Top*
%FSLAX46Y46*%
G04 Gerber Fmt 4.6, Leading zero omitted, Abs format (unit mm)*
G04 Created by KiCad (PCBNEW 4.0.1-3.201512221402+6198~38~ubuntu14.04.1-stable) date Mon 18 Jan 2016 08:14:31 PM CET*
%MOMM*%
G01*
G04 APERTURE LIST*
%ADD10C,0.100000*%
%ADD11C,0.150000*%
%ADD12C,0.200000*%
%ADD13R,0.350000X0.950000*%
%ADD14R,0.950000X0.350000*%
%ADD15R,5.300000X5.300000*%
%ADD16R,2.800000X3.100000*%
%ADD17R,0.400000X1.300000*%
%ADD18C,2.300000*%
%ADD19R,0.720000X0.720000*%
%ADD20R,1.000000X1.100000*%
%ADD21R,1.600000X2.600000*%
%ADD22R,2.600000X1.600000*%
%ADD23R,0.500000X1.350000*%
%ADD24C,1.400000*%
%ADD25O,4.100000X1.850000*%
%ADD26R,7.720000X5.180000*%
G04 APERTURE END LIST*
D10*
D11*
X94500000Y-129500000D02*
X94500000Y-122000000D01*
X94500000Y-122000000D02*
X102500000Y-122000000D01*
X102500000Y-122000000D02*
X102500000Y-130000000D01*
X102500000Y-130000000D02*
X95000000Y-130000000D01*
X94500000Y-129500000D02*
X95000000Y-130000000D01*
X107250000Y-119875000D02*
X89250000Y-119875000D01*
X89250000Y-119875000D02*
X89250000Y-112375000D01*
X89250000Y-112375000D02*
X107250000Y-112375000D01*
X107250000Y-112375000D02*
X107250000Y-119875000D01*
D10*
X100950000Y-132250000D02*
X100550000Y-132250000D01*
X104000000Y-127050000D02*
X104000000Y-127450000D01*
X99950000Y-132250000D02*
X99550000Y-132250000D01*
X95950000Y-132250000D02*
X95550000Y-132250000D01*
X93700000Y-129000000D02*
X93300000Y-129000000D01*
X106750000Y-128950000D02*
X106750000Y-128550000D01*
X106750000Y-123550000D02*
X106750000Y-123950000D01*
X92700000Y-129000000D02*
X92300000Y-129000000D01*
X98950000Y-132250000D02*
X98550000Y-132250000D01*
X96550000Y-132250000D02*
X96950000Y-132250000D01*
X97950000Y-132250000D02*
X97550000Y-132250000D01*
X104000000Y-128050000D02*
X104000000Y-128450000D01*
D11*
X105250000Y-124500000D02*
X108250000Y-124500000D01*
X108250000Y-124500000D02*
X108250000Y-128000000D01*
X108250000Y-128000000D02*
X105250000Y-128000000D01*
X105250000Y-128000000D02*
X105250000Y-124500000D01*
D12*
X94750000Y-133350000D02*
X94750000Y-133350000D01*
D10*
X94950000Y-132250000D02*
X94550000Y-132250000D01*
D12*
X229300000Y-138300000D02*
X229300000Y-138300000D01*
D10*
X228200000Y-138100000D02*
X228200000Y-138500000D01*
D12*
X90100000Y-120200000D02*
X90100000Y-120200000D01*
D10*
X89900000Y-121300000D02*
X90300000Y-121300000D01*
D11*
X97738095Y-125452381D02*
X97738095Y-126261905D01*
X97785714Y-126357143D01*
X97833333Y-126404762D01*
X97928571Y-126452381D01*
X98119048Y-126452381D01*
X98214286Y-126404762D01*
X98261905Y-126357143D01*
X98309524Y-126261905D01*
X98309524Y-125452381D01*
X99309524Y-126452381D02*
X98738095Y-126452381D01*
X99023809Y-126452381D02*
X99023809Y-125452381D01*
X98928571Y-125595238D01*
X98833333Y-125690476D01*
X98738095Y-125738095D01*
X101611905Y-69052381D02*
X101611905Y-68052381D01*
X101992858Y-68052381D01*
X102088096Y-68100000D01*
X102135715Y-68147619D01*
X102183334Y-68242857D01*
X102183334Y-68385714D01*
X102135715Y-68480952D01*
X102088096Y-68528571D01*
X101992858Y-68576190D01*
X101611905Y-68576190D01*
X103135715Y-69052381D02*
X102564286Y-69052381D01*
X102850000Y-69052381D02*
X102850000Y-68052381D01*
X102754762Y-68195238D01*
X102659524Y-68290476D01*
X102564286Y-68338095D01*
%LPC*%
D13*
X96000000Y-129325000D03*
X96500000Y-129325000D03*
X97000000Y-129325000D03*
X97500000Y-129325000D03*
X98000000Y-129325000D03*
X98500000Y-129325000D03*
X99000000Y-129325000D03*
X99500000Y-129325000D03*
X100000000Y-129325000D03*
X100500000Y-129325000D03*
X101000000Y-129325000D03*
D14*
X101825000Y-128500000D03*
X101825000Y-128000000D03*
X101825000Y-127500000D03*
X101825000Y-127000000D03*
X101825000Y-126500000D03*
X101825000Y-126000000D03*
X101825000Y-125500000D03*
X101825000Y-125000000D03*
X101825000Y-124500000D03*
X101825000Y-124000000D03*
X101825000Y-123500000D03*
D13*
X101000000Y-122675000D03*
X100500000Y-122675000D03*
X100000000Y-122675000D03*
X99500000Y-122675000D03*
X99000000Y-122675000D03*
X98500000Y-122675000D03*
X98000000Y-122675000D03*
X97500000Y-122675000D03*
X97000000Y-122675000D03*
X96500000Y-122675000D03*
X96000000Y-122675000D03*
D14*
X95175000Y-123500000D03*
X95175000Y-124000000D03*
X95175000Y-124500000D03*
X95175000Y-125000000D03*
X95175000Y-125500000D03*
X95175000Y-126000000D03*
X95175000Y-126500000D03*
X95175000Y-127000000D03*
X95175000Y-127500000D03*
X95175000Y-128000000D03*
X95175000Y-128500000D03*
D15*
X98500000Y-126000000D03*
D16*
X91070000Y-116975000D03*
D17*
X103500000Y-118875000D03*
X103000000Y-118875000D03*
X102500000Y-118875000D03*
X102000000Y-118875000D03*
X101500000Y-118875000D03*
X101000000Y-118875000D03*
X100500000Y-118875000D03*
X100000000Y-118875000D03*
X99500000Y-118875000D03*
X99000000Y-118875000D03*
X98500000Y-118875000D03*
X98000000Y-118875000D03*
X97500000Y-118875000D03*
X97000000Y-118875000D03*
X96500000Y-118875000D03*
X96000000Y-118875000D03*
X95500000Y-118875000D03*
X95000000Y-118875000D03*
X94500000Y-118875000D03*
X94000000Y-118875000D03*
X93500000Y-118875000D03*
X93000000Y-118875000D03*
D16*
X105430000Y-116975000D03*
D18*
X203900000Y-117400000D03*
X115050000Y-120200000D03*
X112550000Y-69750000D03*
D19*
X100750000Y-131800000D03*
X100750000Y-132700000D03*
X103550000Y-127250000D03*
X104450000Y-127250000D03*
X99750000Y-131800000D03*
X99750000Y-132700000D03*
X95750000Y-131800000D03*
X95750000Y-132700000D03*
X93500000Y-128550000D03*
X93500000Y-129450000D03*
X107200000Y-128750000D03*
X106300000Y-128750000D03*
X106300000Y-123750000D03*
X107200000Y-123750000D03*
X92500000Y-128550000D03*
X92500000Y-129450000D03*
X98750000Y-131800000D03*
X98750000Y-132700000D03*
X96750000Y-132700000D03*
X96750000Y-131800000D03*
X97750000Y-131800000D03*
X97750000Y-132700000D03*
X103550000Y-128250000D03*
X104450000Y-128250000D03*
D20*
X107525000Y-127175000D03*
X107525000Y-125325000D03*
X105975000Y-125325000D03*
X105975000Y-127175000D03*
D21*
X97200000Y-60650000D03*
X97200000Y-64850000D03*
D22*
X100150000Y-67050000D03*
X104550000Y-67050000D03*
D21*
X107500000Y-64850000D03*
D23*
X103650000Y-65175000D03*
X103000000Y-65175000D03*
X102350000Y-65175000D03*
X101700000Y-65175000D03*
X101050000Y-65175000D03*
D21*
X107500000Y-60650000D03*
D24*
X86500000Y-69500000D03*
D25*
X92500000Y-71500000D03*
X92500000Y-73500000D03*
X92500000Y-69500000D03*
D24*
X86500000Y-73500000D03*
D19*
X94750000Y-131800000D03*
X94750000Y-132700000D03*
X227750000Y-138300000D03*
X228650000Y-138300000D03*
X90100000Y-121750000D03*
X90100000Y-120850000D03*
D26*
X115700000Y-62800000D03*
M02*
