G04 #@! TF.FileFunction,Copper,L2,Bot,Signal*
%FSLAX46Y46*%
G04 Gerber Fmt 4.6, Leading zero omitted, Abs format (unit mm)*
G04 Created by KiCad (PCBNEW 4.0.1-3.201512221402+6198~38~ubuntu14.04.1-stable) date Mon 18 Jan 2016 08:14:31 PM CET*
%MOMM*%
G01*
G04 APERTURE LIST*
%ADD10C,0.100000*%
%ADD11C,1.524000*%
%ADD12C,2.200000*%
%ADD13R,0.620000X0.620000*%
%ADD14R,1.000000X0.950000*%
%ADD15C,1.300000*%
%ADD16O,4.000000X1.750000*%
%ADD17R,1.350000X4.000000*%
%ADD18R,3.960000X3.560000*%
%ADD19R,7.620000X5.080000*%
%ADD20R,3.600000X2.680000*%
%ADD21R,2.000000X0.610000*%
%ADD22C,0.600000*%
%ADD23C,0.250000*%
G04 APERTURE END LIST*
D10*
D11*
X92700000Y-84150000D03*
X92700000Y-86690000D03*
X92700000Y-89230000D03*
X92700000Y-91770000D03*
X92700000Y-94310000D03*
X92700000Y-96850000D03*
D12*
X203900000Y-117400000D03*
X115050000Y-120200000D03*
X112550000Y-69750000D03*
D13*
X100500000Y-122550000D03*
X100500000Y-123450000D03*
X95000000Y-122550000D03*
X95000000Y-123450000D03*
D14*
X105000000Y-65200000D03*
X105000000Y-66800000D03*
D15*
X86500000Y-69500000D03*
D16*
X92500000Y-71500000D03*
X92500000Y-73500000D03*
X92500000Y-69500000D03*
D15*
X86500000Y-73500000D03*
D17*
X107275000Y-89500000D03*
D18*
X97300000Y-89420000D03*
D19*
X115700000Y-62800000D03*
D20*
X197400000Y-86840000D03*
D21*
X194600000Y-80850000D03*
X194600000Y-81850000D03*
X194600000Y-82850000D03*
X194600000Y-83850000D03*
D20*
X197400000Y-77860000D03*
D22*
X95250000Y-122000000D03*
X100750000Y-121750000D03*
X104000000Y-130500000D03*
X102500000Y-131250000D03*
X103500000Y-131250000D03*
X105250000Y-128250000D03*
X105250000Y-129250000D03*
X103000000Y-117500000D03*
D23*
X101799998Y-91250000D02*
X101799998Y-88799998D01*
X95250000Y-122000000D02*
X95000000Y-122250000D01*
X95000000Y-122250000D02*
X95000000Y-122550000D01*
X100500000Y-122000000D02*
X100500000Y-122550000D01*
X100750000Y-121750000D02*
X100500000Y-122000000D01*
X92700000Y-84150000D02*
X94000000Y-85450000D01*
X104000000Y-130500000D02*
X104000000Y-128636398D01*
X102549998Y-118299998D02*
X102250000Y-118000000D01*
X102549998Y-127186396D02*
X102549998Y-118299998D01*
X104000000Y-128636398D02*
X102549998Y-127186396D01*
X102250000Y-96313602D02*
X102250000Y-118000000D01*
X94000000Y-88063602D02*
X102250000Y-96313602D01*
X94000000Y-85450000D02*
X94000000Y-88063602D01*
X92700000Y-89230000D02*
X93893602Y-89230000D01*
X101349996Y-96686394D02*
X101349996Y-98100000D01*
X93893602Y-89230000D02*
X101349996Y-96686394D01*
X102500000Y-128409194D02*
X101649994Y-127559188D01*
X101649994Y-127559188D02*
X101649994Y-118899994D01*
X101649994Y-118899994D02*
X101349996Y-118599996D01*
X102500000Y-131250000D02*
X102500000Y-128409194D01*
X101349996Y-98100000D02*
X101349996Y-118599996D01*
X92700000Y-89230000D02*
X92700000Y-89950000D01*
X92700000Y-91770000D02*
X91400000Y-90470000D01*
X103250000Y-131000000D02*
X103250000Y-128522796D01*
X103250000Y-128522796D02*
X102099996Y-127372792D01*
X102099996Y-127372792D02*
X102099996Y-118486394D01*
X102099996Y-118486394D02*
X101799998Y-118186396D01*
X103500000Y-131250000D02*
X103250000Y-131000000D01*
X101799998Y-96499998D02*
X101799998Y-118186396D01*
X93300000Y-88000000D02*
X101799998Y-96499998D01*
X92100000Y-88000000D02*
X93300000Y-88000000D01*
X91400000Y-88700000D02*
X92100000Y-88000000D01*
X91400000Y-90470000D02*
X91400000Y-88700000D01*
X92700000Y-94310000D02*
X98337204Y-94310000D01*
X100899994Y-96872790D02*
X100899994Y-98300000D01*
X98337204Y-94310000D02*
X100899994Y-96872790D01*
X100899994Y-98300000D02*
X100899994Y-98599994D01*
X105250000Y-128250000D02*
X106000000Y-129000000D01*
X106000000Y-129000000D02*
X106000000Y-130000000D01*
X106000000Y-130000000D02*
X104000000Y-132000000D01*
X104000000Y-132000000D02*
X102250000Y-132000000D01*
X102250000Y-132000000D02*
X101750000Y-131500000D01*
X101750000Y-131500000D02*
X101750000Y-128295592D01*
X101750000Y-128295592D02*
X101199992Y-127745584D01*
X101199992Y-127745584D02*
X101199992Y-125699992D01*
X101199992Y-125699992D02*
X99750000Y-124250000D01*
X99750000Y-124250000D02*
X99750000Y-119500000D01*
X99750000Y-119500000D02*
X100899994Y-118350006D01*
X100899994Y-118350006D02*
X100899994Y-98599994D01*
X103000000Y-127000000D02*
X103000000Y-117500000D01*
X105250000Y-129250000D02*
X103000000Y-127000000D01*
M02*
