M48
INCH,TZ
T1C0.012
%
G90
G05
T1
X5.0197Y-1.8346
X5.0394Y-1.815
X5.0394Y-1.8976
X5.0591Y-1.8346
X5.0591Y-1.9173
X5.0787Y-1.815
X5.0787Y-1.9016
X5.0984Y-1.8346
X5.0984Y-1.9213
X5.1181Y-1.815
X5.1181Y-1.9016
X5.1378Y-1.8346
X5.1575Y-1.815
X5.1772Y-1.8346
X5.1772Y-2.0984
X5.1811Y-1.9213
X5.1811Y-1.9764
X5.1929Y-2.0079
X5.2047Y-1.9055
X5.2165Y-1.8346
X5.2165Y-1.9882
X5.2165Y-2.0236
X5.2283Y-1.9213
X5.2402Y-2.0039
X5.252Y-2.1024
X5.2559Y-1.8346
X5.2638Y-2.0236
X5.2756Y-1.815
X5.2874Y-2.0039
X5.2953Y-1.9055
X5.311Y-2.0236
X5.3346Y-1.8346
X5.3346Y-2.0039
X5.3583Y-2.0236
X5.374Y-1.9055
X5.3819Y-2.0039
X5.3937Y-1.8346
X5.4055Y-2.0236
X5.4134Y-1.9055
X5.4291Y-2.0079
X5.4528Y-1.8346
X5.4528Y-2.0236
X5.4764Y-2.0039
X5.4921Y-1.8346
X5.5Y-2.0236
X5.5118Y-1.815
X5.5197Y-1.9173
X5.5236Y-2.0079
X5.5315Y-1.8346
X5.5472Y-1.9173
X5.5709Y-1.815
X5.5748Y-1.9173
X5.5906Y-1.8346
X5.6024Y-1.9173
X5.6102Y-1.815
X5.6299Y-1.8346
X5.6299Y-1.9331
X5.6417Y-2.0079
X5.6693Y-1.8346
X5.7087Y-1.8346
X5.748Y-1.8346
X5.7677Y-1.815
X5.7874Y-1.8346
T0
M30
