M48
; DRILL file {KiCad (5.1.0)-1} date 27/05/2019 21:22:57
; FORMAT={-:-/ absolute / inch / decimal}
; #@! TF.CreationDate,2019-05-27T21:22:57+02:00
; #@! TF.GenerationSoftware,Kicad,Pcbnew,(5.1.0)-1
; #@! TF.FileFunction,Plated,1,4,PTH
FMAT,2
INCH
T1C0.0118
T2C0.0157
T3C0.0394
%
G90
G05
T1
X7.0343Y-3.1563
X7.313Y-3.2283
X7.4843Y-3.1813
T2
X5.1843Y-3.3563
X5.2343Y-2.8263
X5.2362Y-3.3858
X5.2793Y-3.3871
X5.3343Y-2.8263
X5.3343Y-3.3563
X5.3843Y-3.3366
X5.4331Y-3.4857
X5.4543Y-2.9063
X5.5343Y-3.3366
X5.5943Y-2.9063
X5.6343Y-3.3343
X5.8843Y-3.5034
X5.9343Y-2.8263
X5.9843Y-3.0217
X6.0335Y-3.0906
X6.0343Y-2.8263
X6.0343Y-3.248
X6.0343Y-3.3063
X6.0804Y-3.3071
X6.0843Y-3.0213
X6.1343Y-2.8263
X6.1343Y-3.0563
X6.1343Y-3.2766
X6.1843Y-3.4163
X6.2343Y-2.8263
X6.2343Y-3.4163
X6.2843Y-3.4163
X6.3343Y-2.8263
X6.3343Y-3.4363
X6.3671Y-3.5532
X6.4343Y-2.8263
X6.4343Y-3.4363
X6.5157Y-3.5531
X6.5343Y-2.8263
X6.565Y-3.5531
X6.6142Y-3.5531
X6.6343Y-2.8263
X6.6634Y-3.5531
X6.7126Y-3.5522
X6.7143Y-3.749
X6.7343Y-2.8263
X6.8041Y-3.7865
X6.8043Y-3.7463
X6.8343Y-2.8263
X6.8406Y-3.7303
X6.8799Y-3.7303
X6.9543Y-2.8263
X7.1654Y-2.9331
X7.2047Y-2.9331
X7.2441Y-2.9331
X7.2835Y-2.9331
X7.4134Y-3.0476
X7.4705Y-3.9665
X7.5787Y-3.9665
T3
X5.3343Y-3.9063
X5.4343Y-3.9063
X5.5343Y-3.9063
X5.6343Y-3.9063
X5.7343Y-3.9063
X5.7593Y-2.8563
X5.7593Y-2.9563
X5.7593Y-3.0563
X5.7593Y-3.1563
X5.7593Y-3.2563
X5.6343Y-4.1063
X5.6343Y-4.2063
X5.6343Y-4.3063
X4.7343Y-2.6067
X4.7343Y-2.7067
X4.8343Y-2.6067
X4.8343Y-2.7067
X4.9343Y-2.6067
X4.9343Y-2.7067
X5.0343Y-2.6067
X5.0343Y-2.7067
X5.1343Y-2.6067
X5.1343Y-2.7067
X5.2343Y-2.6067
X5.2343Y-2.7067
X5.3343Y-2.6067
X5.3343Y-2.7067
X5.4343Y-2.6067
X5.4343Y-2.7067
X5.5343Y-2.6067
X5.5343Y-2.7067
X5.6343Y-2.6067
X5.6343Y-2.7067
X5.7343Y-2.6067
X5.7343Y-2.7067
X5.8343Y-2.6067
X5.8343Y-2.7067
X5.9343Y-2.6067
X5.9343Y-2.7067
X6.0343Y-2.6067
X6.0343Y-2.7067
X6.1343Y-2.6067
X6.1343Y-2.7067
X6.2343Y-2.6067
X6.2343Y-2.7067
X6.3343Y-2.6067
X6.3343Y-2.7067
X6.4343Y-2.6067
X6.4343Y-2.7067
X6.5343Y-2.6067
X6.5343Y-2.7067
X6.6343Y-2.6067
X6.6343Y-2.7067
X6.7343Y-2.6067
X6.7343Y-2.7067
X6.8343Y-2.6067
X6.8343Y-2.7067
X6.9343Y-2.6067
X6.9343Y-2.7067
X5.5343Y-4.1063
X5.5343Y-4.2063
X5.5343Y-4.3063
X4.7343Y-4.5063
X4.7343Y-4.6063
X4.8343Y-4.5063
X4.8343Y-4.6063
X4.9343Y-4.5063
X4.9343Y-4.6063
X5.0343Y-4.5063
X5.0343Y-4.6063
X5.1343Y-4.5063
X5.1343Y-4.6063
X5.2343Y-4.5063
X5.2343Y-4.6063
X5.3343Y-4.5063
X5.3343Y-4.6063
X5.4343Y-4.5063
X5.4343Y-4.6063
X5.5343Y-4.5063
X5.5343Y-4.6063
X5.6343Y-4.5063
X5.6343Y-4.6063
X5.7343Y-4.5063
X5.7343Y-4.6063
X5.8343Y-4.5063
X5.8343Y-4.6063
X5.9343Y-4.5063
X5.9343Y-4.6063
X6.0343Y-4.5063
X6.0343Y-4.6063
X6.1343Y-4.5063
X6.1343Y-4.6063
X6.2343Y-4.5063
X6.2343Y-4.6063
X6.3343Y-4.5063
X6.3343Y-4.6063
X6.4343Y-4.5063
X6.4343Y-4.6063
X6.5343Y-4.5063
X6.5343Y-4.6063
X6.6343Y-4.5063
X6.6343Y-4.6063
X6.7343Y-4.5063
X6.7343Y-4.6063
X6.8343Y-4.5063
X6.8343Y-4.6063
X6.9343Y-4.5063
X6.9343Y-4.6063
X5.4343Y-4.1063
X5.4343Y-4.2063
X5.4343Y-4.3063
X5.7343Y-4.1063
X5.7343Y-4.2063
X5.7343Y-4.3063
X7.1343Y-4.5063
X7.2343Y-4.5063
X7.3343Y-4.5063
X7.4343Y-4.5063
X7.5343Y-4.5063
T0
M30
