G04 #@! TF.GenerationSoftware,KiCad,Pcbnew,(5.1.0)-1*
G04 #@! TF.CreationDate,2019-05-27T21:22:36+02:00*
G04 #@! TF.ProjectId,TFT-Interface,5446542d-496e-4746-9572-666163652e6b,rev?*
G04 #@! TF.SameCoordinates,Original*
G04 #@! TF.FileFunction,Soldermask,Bot*
G04 #@! TF.FilePolarity,Negative*
%FSLAX46Y46*%
G04 Gerber Fmt 4.6, Leading zero omitted, Abs format (unit mm)*
G04 Created by KiCad (PCBNEW (5.1.0)-1) date 2019-05-27 21:22:36*
%MOMM*%
%LPD*%
G04 APERTURE LIST*
%ADD10C,0.100000*%
G04 APERTURE END LIST*
D10*
G36*
X173718707Y-115957597D02*
G01*
X173795836Y-115965193D01*
X173993762Y-116025233D01*
X173993765Y-116025234D01*
X174176170Y-116122732D01*
X174336055Y-116253945D01*
X174467268Y-116413830D01*
X174564766Y-116596235D01*
X174564767Y-116596238D01*
X174624807Y-116794164D01*
X174645080Y-117000000D01*
X174624807Y-117205836D01*
X174564767Y-117403762D01*
X174564766Y-117403765D01*
X174467268Y-117586170D01*
X174336055Y-117746055D01*
X174176170Y-117877268D01*
X173993765Y-117974766D01*
X173993762Y-117974767D01*
X173795836Y-118034807D01*
X173718707Y-118042404D01*
X173641580Y-118050000D01*
X173538420Y-118050000D01*
X173461293Y-118042404D01*
X173384164Y-118034807D01*
X173186238Y-117974767D01*
X173186235Y-117974766D01*
X173003830Y-117877268D01*
X172843945Y-117746055D01*
X172712732Y-117586170D01*
X172615234Y-117403765D01*
X172615233Y-117403762D01*
X172555193Y-117205836D01*
X172534920Y-117000000D01*
X172555193Y-116794164D01*
X172615233Y-116596238D01*
X172615234Y-116596235D01*
X172712732Y-116413830D01*
X172843945Y-116253945D01*
X173003830Y-116122732D01*
X173186235Y-116025234D01*
X173186238Y-116025233D01*
X173384164Y-115965193D01*
X173461293Y-115957597D01*
X173538420Y-115950000D01*
X173641580Y-115950000D01*
X173718707Y-115957597D01*
X173718707Y-115957597D01*
G37*
G36*
X145778707Y-115957597D02*
G01*
X145855836Y-115965193D01*
X146053762Y-116025233D01*
X146053765Y-116025234D01*
X146236170Y-116122732D01*
X146396055Y-116253945D01*
X146527268Y-116413830D01*
X146624766Y-116596235D01*
X146624767Y-116596238D01*
X146684807Y-116794164D01*
X146705080Y-117000000D01*
X146684807Y-117205836D01*
X146624767Y-117403762D01*
X146624766Y-117403765D01*
X146527268Y-117586170D01*
X146396055Y-117746055D01*
X146236170Y-117877268D01*
X146053765Y-117974766D01*
X146053762Y-117974767D01*
X145855836Y-118034807D01*
X145778707Y-118042404D01*
X145701580Y-118050000D01*
X145598420Y-118050000D01*
X145521293Y-118042404D01*
X145444164Y-118034807D01*
X145246238Y-117974767D01*
X145246235Y-117974766D01*
X145063830Y-117877268D01*
X144903945Y-117746055D01*
X144772732Y-117586170D01*
X144675234Y-117403765D01*
X144675233Y-117403762D01*
X144615193Y-117205836D01*
X144594920Y-117000000D01*
X144615193Y-116794164D01*
X144675233Y-116596238D01*
X144675234Y-116596235D01*
X144772732Y-116413830D01*
X144903945Y-116253945D01*
X145063830Y-116122732D01*
X145246235Y-116025234D01*
X145246238Y-116025233D01*
X145444164Y-115965193D01*
X145521293Y-115957597D01*
X145598420Y-115950000D01*
X145701580Y-115950000D01*
X145778707Y-115957597D01*
X145778707Y-115957597D01*
G37*
G36*
X176258707Y-115957597D02*
G01*
X176335836Y-115965193D01*
X176533762Y-116025233D01*
X176533765Y-116025234D01*
X176716170Y-116122732D01*
X176876055Y-116253945D01*
X177007268Y-116413830D01*
X177104766Y-116596235D01*
X177104767Y-116596238D01*
X177164807Y-116794164D01*
X177185080Y-117000000D01*
X177164807Y-117205836D01*
X177104767Y-117403762D01*
X177104766Y-117403765D01*
X177007268Y-117586170D01*
X176876055Y-117746055D01*
X176716170Y-117877268D01*
X176533765Y-117974766D01*
X176533762Y-117974767D01*
X176335836Y-118034807D01*
X176258707Y-118042404D01*
X176181580Y-118050000D01*
X176078420Y-118050000D01*
X176001293Y-118042404D01*
X175924164Y-118034807D01*
X175726238Y-117974767D01*
X175726235Y-117974766D01*
X175543830Y-117877268D01*
X175383945Y-117746055D01*
X175252732Y-117586170D01*
X175155234Y-117403765D01*
X175155233Y-117403762D01*
X175095193Y-117205836D01*
X175074920Y-117000000D01*
X175095193Y-116794164D01*
X175155233Y-116596238D01*
X175155234Y-116596235D01*
X175252732Y-116413830D01*
X175383945Y-116253945D01*
X175543830Y-116122732D01*
X175726235Y-116025234D01*
X175726238Y-116025233D01*
X175924164Y-115965193D01*
X176001293Y-115957597D01*
X176078420Y-115950000D01*
X176181580Y-115950000D01*
X176258707Y-115957597D01*
X176258707Y-115957597D01*
G37*
G36*
X121300000Y-118050000D02*
G01*
X119200000Y-118050000D01*
X119200000Y-115950000D01*
X121300000Y-115950000D01*
X121300000Y-118050000D01*
X121300000Y-118050000D01*
G37*
G36*
X122918707Y-115957597D02*
G01*
X122995836Y-115965193D01*
X123193762Y-116025233D01*
X123193765Y-116025234D01*
X123376170Y-116122732D01*
X123536055Y-116253945D01*
X123667268Y-116413830D01*
X123764766Y-116596235D01*
X123764767Y-116596238D01*
X123824807Y-116794164D01*
X123845080Y-117000000D01*
X123824807Y-117205836D01*
X123764767Y-117403762D01*
X123764766Y-117403765D01*
X123667268Y-117586170D01*
X123536055Y-117746055D01*
X123376170Y-117877268D01*
X123193765Y-117974766D01*
X123193762Y-117974767D01*
X122995836Y-118034807D01*
X122918707Y-118042404D01*
X122841580Y-118050000D01*
X122738420Y-118050000D01*
X122661293Y-118042404D01*
X122584164Y-118034807D01*
X122386238Y-117974767D01*
X122386235Y-117974766D01*
X122203830Y-117877268D01*
X122043945Y-117746055D01*
X121912732Y-117586170D01*
X121815234Y-117403765D01*
X121815233Y-117403762D01*
X121755193Y-117205836D01*
X121734920Y-117000000D01*
X121755193Y-116794164D01*
X121815233Y-116596238D01*
X121815234Y-116596235D01*
X121912732Y-116413830D01*
X122043945Y-116253945D01*
X122203830Y-116122732D01*
X122386235Y-116025234D01*
X122386238Y-116025233D01*
X122584164Y-115965193D01*
X122661293Y-115957597D01*
X122738420Y-115950000D01*
X122841580Y-115950000D01*
X122918707Y-115957597D01*
X122918707Y-115957597D01*
G37*
G36*
X125458707Y-115957597D02*
G01*
X125535836Y-115965193D01*
X125733762Y-116025233D01*
X125733765Y-116025234D01*
X125916170Y-116122732D01*
X126076055Y-116253945D01*
X126207268Y-116413830D01*
X126304766Y-116596235D01*
X126304767Y-116596238D01*
X126364807Y-116794164D01*
X126385080Y-117000000D01*
X126364807Y-117205836D01*
X126304767Y-117403762D01*
X126304766Y-117403765D01*
X126207268Y-117586170D01*
X126076055Y-117746055D01*
X125916170Y-117877268D01*
X125733765Y-117974766D01*
X125733762Y-117974767D01*
X125535836Y-118034807D01*
X125458707Y-118042404D01*
X125381580Y-118050000D01*
X125278420Y-118050000D01*
X125201293Y-118042404D01*
X125124164Y-118034807D01*
X124926238Y-117974767D01*
X124926235Y-117974766D01*
X124743830Y-117877268D01*
X124583945Y-117746055D01*
X124452732Y-117586170D01*
X124355234Y-117403765D01*
X124355233Y-117403762D01*
X124295193Y-117205836D01*
X124274920Y-117000000D01*
X124295193Y-116794164D01*
X124355233Y-116596238D01*
X124355234Y-116596235D01*
X124452732Y-116413830D01*
X124583945Y-116253945D01*
X124743830Y-116122732D01*
X124926235Y-116025234D01*
X124926238Y-116025233D01*
X125124164Y-115965193D01*
X125201293Y-115957597D01*
X125278420Y-115950000D01*
X125381580Y-115950000D01*
X125458707Y-115957597D01*
X125458707Y-115957597D01*
G37*
G36*
X127998707Y-115957597D02*
G01*
X128075836Y-115965193D01*
X128273762Y-116025233D01*
X128273765Y-116025234D01*
X128456170Y-116122732D01*
X128616055Y-116253945D01*
X128747268Y-116413830D01*
X128844766Y-116596235D01*
X128844767Y-116596238D01*
X128904807Y-116794164D01*
X128925080Y-117000000D01*
X128904807Y-117205836D01*
X128844767Y-117403762D01*
X128844766Y-117403765D01*
X128747268Y-117586170D01*
X128616055Y-117746055D01*
X128456170Y-117877268D01*
X128273765Y-117974766D01*
X128273762Y-117974767D01*
X128075836Y-118034807D01*
X127998707Y-118042404D01*
X127921580Y-118050000D01*
X127818420Y-118050000D01*
X127741293Y-118042404D01*
X127664164Y-118034807D01*
X127466238Y-117974767D01*
X127466235Y-117974766D01*
X127283830Y-117877268D01*
X127123945Y-117746055D01*
X126992732Y-117586170D01*
X126895234Y-117403765D01*
X126895233Y-117403762D01*
X126835193Y-117205836D01*
X126814920Y-117000000D01*
X126835193Y-116794164D01*
X126895233Y-116596238D01*
X126895234Y-116596235D01*
X126992732Y-116413830D01*
X127123945Y-116253945D01*
X127283830Y-116122732D01*
X127466235Y-116025234D01*
X127466238Y-116025233D01*
X127664164Y-115965193D01*
X127741293Y-115957597D01*
X127818420Y-115950000D01*
X127921580Y-115950000D01*
X127998707Y-115957597D01*
X127998707Y-115957597D01*
G37*
G36*
X130538707Y-115957597D02*
G01*
X130615836Y-115965193D01*
X130813762Y-116025233D01*
X130813765Y-116025234D01*
X130996170Y-116122732D01*
X131156055Y-116253945D01*
X131287268Y-116413830D01*
X131384766Y-116596235D01*
X131384767Y-116596238D01*
X131444807Y-116794164D01*
X131465080Y-117000000D01*
X131444807Y-117205836D01*
X131384767Y-117403762D01*
X131384766Y-117403765D01*
X131287268Y-117586170D01*
X131156055Y-117746055D01*
X130996170Y-117877268D01*
X130813765Y-117974766D01*
X130813762Y-117974767D01*
X130615836Y-118034807D01*
X130538707Y-118042404D01*
X130461580Y-118050000D01*
X130358420Y-118050000D01*
X130281293Y-118042404D01*
X130204164Y-118034807D01*
X130006238Y-117974767D01*
X130006235Y-117974766D01*
X129823830Y-117877268D01*
X129663945Y-117746055D01*
X129532732Y-117586170D01*
X129435234Y-117403765D01*
X129435233Y-117403762D01*
X129375193Y-117205836D01*
X129354920Y-117000000D01*
X129375193Y-116794164D01*
X129435233Y-116596238D01*
X129435234Y-116596235D01*
X129532732Y-116413830D01*
X129663945Y-116253945D01*
X129823830Y-116122732D01*
X130006235Y-116025234D01*
X130006238Y-116025233D01*
X130204164Y-115965193D01*
X130281293Y-115957597D01*
X130358420Y-115950000D01*
X130461580Y-115950000D01*
X130538707Y-115957597D01*
X130538707Y-115957597D01*
G37*
G36*
X133078707Y-115957597D02*
G01*
X133155836Y-115965193D01*
X133353762Y-116025233D01*
X133353765Y-116025234D01*
X133536170Y-116122732D01*
X133696055Y-116253945D01*
X133827268Y-116413830D01*
X133924766Y-116596235D01*
X133924767Y-116596238D01*
X133984807Y-116794164D01*
X134005080Y-117000000D01*
X133984807Y-117205836D01*
X133924767Y-117403762D01*
X133924766Y-117403765D01*
X133827268Y-117586170D01*
X133696055Y-117746055D01*
X133536170Y-117877268D01*
X133353765Y-117974766D01*
X133353762Y-117974767D01*
X133155836Y-118034807D01*
X133078707Y-118042404D01*
X133001580Y-118050000D01*
X132898420Y-118050000D01*
X132821293Y-118042404D01*
X132744164Y-118034807D01*
X132546238Y-117974767D01*
X132546235Y-117974766D01*
X132363830Y-117877268D01*
X132203945Y-117746055D01*
X132072732Y-117586170D01*
X131975234Y-117403765D01*
X131975233Y-117403762D01*
X131915193Y-117205836D01*
X131894920Y-117000000D01*
X131915193Y-116794164D01*
X131975233Y-116596238D01*
X131975234Y-116596235D01*
X132072732Y-116413830D01*
X132203945Y-116253945D01*
X132363830Y-116122732D01*
X132546235Y-116025234D01*
X132546238Y-116025233D01*
X132744164Y-115965193D01*
X132821293Y-115957597D01*
X132898420Y-115950000D01*
X133001580Y-115950000D01*
X133078707Y-115957597D01*
X133078707Y-115957597D01*
G37*
G36*
X135618707Y-115957597D02*
G01*
X135695836Y-115965193D01*
X135893762Y-116025233D01*
X135893765Y-116025234D01*
X136076170Y-116122732D01*
X136236055Y-116253945D01*
X136367268Y-116413830D01*
X136464766Y-116596235D01*
X136464767Y-116596238D01*
X136524807Y-116794164D01*
X136545080Y-117000000D01*
X136524807Y-117205836D01*
X136464767Y-117403762D01*
X136464766Y-117403765D01*
X136367268Y-117586170D01*
X136236055Y-117746055D01*
X136076170Y-117877268D01*
X135893765Y-117974766D01*
X135893762Y-117974767D01*
X135695836Y-118034807D01*
X135618707Y-118042404D01*
X135541580Y-118050000D01*
X135438420Y-118050000D01*
X135361293Y-118042404D01*
X135284164Y-118034807D01*
X135086238Y-117974767D01*
X135086235Y-117974766D01*
X134903830Y-117877268D01*
X134743945Y-117746055D01*
X134612732Y-117586170D01*
X134515234Y-117403765D01*
X134515233Y-117403762D01*
X134455193Y-117205836D01*
X134434920Y-117000000D01*
X134455193Y-116794164D01*
X134515233Y-116596238D01*
X134515234Y-116596235D01*
X134612732Y-116413830D01*
X134743945Y-116253945D01*
X134903830Y-116122732D01*
X135086235Y-116025234D01*
X135086238Y-116025233D01*
X135284164Y-115965193D01*
X135361293Y-115957597D01*
X135438420Y-115950000D01*
X135541580Y-115950000D01*
X135618707Y-115957597D01*
X135618707Y-115957597D01*
G37*
G36*
X138158707Y-115957597D02*
G01*
X138235836Y-115965193D01*
X138433762Y-116025233D01*
X138433765Y-116025234D01*
X138616170Y-116122732D01*
X138776055Y-116253945D01*
X138907268Y-116413830D01*
X139004766Y-116596235D01*
X139004767Y-116596238D01*
X139064807Y-116794164D01*
X139085080Y-117000000D01*
X139064807Y-117205836D01*
X139004767Y-117403762D01*
X139004766Y-117403765D01*
X138907268Y-117586170D01*
X138776055Y-117746055D01*
X138616170Y-117877268D01*
X138433765Y-117974766D01*
X138433762Y-117974767D01*
X138235836Y-118034807D01*
X138158707Y-118042404D01*
X138081580Y-118050000D01*
X137978420Y-118050000D01*
X137901293Y-118042404D01*
X137824164Y-118034807D01*
X137626238Y-117974767D01*
X137626235Y-117974766D01*
X137443830Y-117877268D01*
X137283945Y-117746055D01*
X137152732Y-117586170D01*
X137055234Y-117403765D01*
X137055233Y-117403762D01*
X136995193Y-117205836D01*
X136974920Y-117000000D01*
X136995193Y-116794164D01*
X137055233Y-116596238D01*
X137055234Y-116596235D01*
X137152732Y-116413830D01*
X137283945Y-116253945D01*
X137443830Y-116122732D01*
X137626235Y-116025234D01*
X137626238Y-116025233D01*
X137824164Y-115965193D01*
X137901293Y-115957597D01*
X137978420Y-115950000D01*
X138081580Y-115950000D01*
X138158707Y-115957597D01*
X138158707Y-115957597D01*
G37*
G36*
X140698707Y-115957597D02*
G01*
X140775836Y-115965193D01*
X140973762Y-116025233D01*
X140973765Y-116025234D01*
X141156170Y-116122732D01*
X141316055Y-116253945D01*
X141447268Y-116413830D01*
X141544766Y-116596235D01*
X141544767Y-116596238D01*
X141604807Y-116794164D01*
X141625080Y-117000000D01*
X141604807Y-117205836D01*
X141544767Y-117403762D01*
X141544766Y-117403765D01*
X141447268Y-117586170D01*
X141316055Y-117746055D01*
X141156170Y-117877268D01*
X140973765Y-117974766D01*
X140973762Y-117974767D01*
X140775836Y-118034807D01*
X140698707Y-118042404D01*
X140621580Y-118050000D01*
X140518420Y-118050000D01*
X140441293Y-118042404D01*
X140364164Y-118034807D01*
X140166238Y-117974767D01*
X140166235Y-117974766D01*
X139983830Y-117877268D01*
X139823945Y-117746055D01*
X139692732Y-117586170D01*
X139595234Y-117403765D01*
X139595233Y-117403762D01*
X139535193Y-117205836D01*
X139514920Y-117000000D01*
X139535193Y-116794164D01*
X139595233Y-116596238D01*
X139595234Y-116596235D01*
X139692732Y-116413830D01*
X139823945Y-116253945D01*
X139983830Y-116122732D01*
X140166235Y-116025234D01*
X140166238Y-116025233D01*
X140364164Y-115965193D01*
X140441293Y-115957597D01*
X140518420Y-115950000D01*
X140621580Y-115950000D01*
X140698707Y-115957597D01*
X140698707Y-115957597D01*
G37*
G36*
X148318707Y-115957597D02*
G01*
X148395836Y-115965193D01*
X148593762Y-116025233D01*
X148593765Y-116025234D01*
X148776170Y-116122732D01*
X148936055Y-116253945D01*
X149067268Y-116413830D01*
X149164766Y-116596235D01*
X149164767Y-116596238D01*
X149224807Y-116794164D01*
X149245080Y-117000000D01*
X149224807Y-117205836D01*
X149164767Y-117403762D01*
X149164766Y-117403765D01*
X149067268Y-117586170D01*
X148936055Y-117746055D01*
X148776170Y-117877268D01*
X148593765Y-117974766D01*
X148593762Y-117974767D01*
X148395836Y-118034807D01*
X148318707Y-118042404D01*
X148241580Y-118050000D01*
X148138420Y-118050000D01*
X148061293Y-118042404D01*
X147984164Y-118034807D01*
X147786238Y-117974767D01*
X147786235Y-117974766D01*
X147603830Y-117877268D01*
X147443945Y-117746055D01*
X147312732Y-117586170D01*
X147215234Y-117403765D01*
X147215233Y-117403762D01*
X147155193Y-117205836D01*
X147134920Y-117000000D01*
X147155193Y-116794164D01*
X147215233Y-116596238D01*
X147215234Y-116596235D01*
X147312732Y-116413830D01*
X147443945Y-116253945D01*
X147603830Y-116122732D01*
X147786235Y-116025234D01*
X147786238Y-116025233D01*
X147984164Y-115965193D01*
X148061293Y-115957597D01*
X148138420Y-115950000D01*
X148241580Y-115950000D01*
X148318707Y-115957597D01*
X148318707Y-115957597D01*
G37*
G36*
X143238707Y-115957597D02*
G01*
X143315836Y-115965193D01*
X143513762Y-116025233D01*
X143513765Y-116025234D01*
X143696170Y-116122732D01*
X143856055Y-116253945D01*
X143987268Y-116413830D01*
X144084766Y-116596235D01*
X144084767Y-116596238D01*
X144144807Y-116794164D01*
X144165080Y-117000000D01*
X144144807Y-117205836D01*
X144084767Y-117403762D01*
X144084766Y-117403765D01*
X143987268Y-117586170D01*
X143856055Y-117746055D01*
X143696170Y-117877268D01*
X143513765Y-117974766D01*
X143513762Y-117974767D01*
X143315836Y-118034807D01*
X143238707Y-118042404D01*
X143161580Y-118050000D01*
X143058420Y-118050000D01*
X142981293Y-118042404D01*
X142904164Y-118034807D01*
X142706238Y-117974767D01*
X142706235Y-117974766D01*
X142523830Y-117877268D01*
X142363945Y-117746055D01*
X142232732Y-117586170D01*
X142135234Y-117403765D01*
X142135233Y-117403762D01*
X142075193Y-117205836D01*
X142054920Y-117000000D01*
X142075193Y-116794164D01*
X142135233Y-116596238D01*
X142135234Y-116596235D01*
X142232732Y-116413830D01*
X142363945Y-116253945D01*
X142523830Y-116122732D01*
X142706235Y-116025234D01*
X142706238Y-116025233D01*
X142904164Y-115965193D01*
X142981293Y-115957597D01*
X143058420Y-115950000D01*
X143161580Y-115950000D01*
X143238707Y-115957597D01*
X143238707Y-115957597D01*
G37*
G36*
X171178707Y-115957597D02*
G01*
X171255836Y-115965193D01*
X171453762Y-116025233D01*
X171453765Y-116025234D01*
X171636170Y-116122732D01*
X171796055Y-116253945D01*
X171927268Y-116413830D01*
X172024766Y-116596235D01*
X172024767Y-116596238D01*
X172084807Y-116794164D01*
X172105080Y-117000000D01*
X172084807Y-117205836D01*
X172024767Y-117403762D01*
X172024766Y-117403765D01*
X171927268Y-117586170D01*
X171796055Y-117746055D01*
X171636170Y-117877268D01*
X171453765Y-117974766D01*
X171453762Y-117974767D01*
X171255836Y-118034807D01*
X171178707Y-118042404D01*
X171101580Y-118050000D01*
X170998420Y-118050000D01*
X170921293Y-118042404D01*
X170844164Y-118034807D01*
X170646238Y-117974767D01*
X170646235Y-117974766D01*
X170463830Y-117877268D01*
X170303945Y-117746055D01*
X170172732Y-117586170D01*
X170075234Y-117403765D01*
X170075233Y-117403762D01*
X170015193Y-117205836D01*
X169994920Y-117000000D01*
X170015193Y-116794164D01*
X170075233Y-116596238D01*
X170075234Y-116596235D01*
X170172732Y-116413830D01*
X170303945Y-116253945D01*
X170463830Y-116122732D01*
X170646235Y-116025234D01*
X170646238Y-116025233D01*
X170844164Y-115965193D01*
X170921293Y-115957597D01*
X170998420Y-115950000D01*
X171101580Y-115950000D01*
X171178707Y-115957597D01*
X171178707Y-115957597D01*
G37*
G36*
X168638707Y-115957597D02*
G01*
X168715836Y-115965193D01*
X168913762Y-116025233D01*
X168913765Y-116025234D01*
X169096170Y-116122732D01*
X169256055Y-116253945D01*
X169387268Y-116413830D01*
X169484766Y-116596235D01*
X169484767Y-116596238D01*
X169544807Y-116794164D01*
X169565080Y-117000000D01*
X169544807Y-117205836D01*
X169484767Y-117403762D01*
X169484766Y-117403765D01*
X169387268Y-117586170D01*
X169256055Y-117746055D01*
X169096170Y-117877268D01*
X168913765Y-117974766D01*
X168913762Y-117974767D01*
X168715836Y-118034807D01*
X168638707Y-118042404D01*
X168561580Y-118050000D01*
X168458420Y-118050000D01*
X168381293Y-118042404D01*
X168304164Y-118034807D01*
X168106238Y-117974767D01*
X168106235Y-117974766D01*
X167923830Y-117877268D01*
X167763945Y-117746055D01*
X167632732Y-117586170D01*
X167535234Y-117403765D01*
X167535233Y-117403762D01*
X167475193Y-117205836D01*
X167454920Y-117000000D01*
X167475193Y-116794164D01*
X167535233Y-116596238D01*
X167535234Y-116596235D01*
X167632732Y-116413830D01*
X167763945Y-116253945D01*
X167923830Y-116122732D01*
X168106235Y-116025234D01*
X168106238Y-116025233D01*
X168304164Y-115965193D01*
X168381293Y-115957597D01*
X168458420Y-115950000D01*
X168561580Y-115950000D01*
X168638707Y-115957597D01*
X168638707Y-115957597D01*
G37*
G36*
X166098707Y-115957597D02*
G01*
X166175836Y-115965193D01*
X166373762Y-116025233D01*
X166373765Y-116025234D01*
X166556170Y-116122732D01*
X166716055Y-116253945D01*
X166847268Y-116413830D01*
X166944766Y-116596235D01*
X166944767Y-116596238D01*
X167004807Y-116794164D01*
X167025080Y-117000000D01*
X167004807Y-117205836D01*
X166944767Y-117403762D01*
X166944766Y-117403765D01*
X166847268Y-117586170D01*
X166716055Y-117746055D01*
X166556170Y-117877268D01*
X166373765Y-117974766D01*
X166373762Y-117974767D01*
X166175836Y-118034807D01*
X166098707Y-118042404D01*
X166021580Y-118050000D01*
X165918420Y-118050000D01*
X165841293Y-118042404D01*
X165764164Y-118034807D01*
X165566238Y-117974767D01*
X165566235Y-117974766D01*
X165383830Y-117877268D01*
X165223945Y-117746055D01*
X165092732Y-117586170D01*
X164995234Y-117403765D01*
X164995233Y-117403762D01*
X164935193Y-117205836D01*
X164914920Y-117000000D01*
X164935193Y-116794164D01*
X164995233Y-116596238D01*
X164995234Y-116596235D01*
X165092732Y-116413830D01*
X165223945Y-116253945D01*
X165383830Y-116122732D01*
X165566235Y-116025234D01*
X165566238Y-116025233D01*
X165764164Y-115965193D01*
X165841293Y-115957597D01*
X165918420Y-115950000D01*
X166021580Y-115950000D01*
X166098707Y-115957597D01*
X166098707Y-115957597D01*
G37*
G36*
X163558707Y-115957597D02*
G01*
X163635836Y-115965193D01*
X163833762Y-116025233D01*
X163833765Y-116025234D01*
X164016170Y-116122732D01*
X164176055Y-116253945D01*
X164307268Y-116413830D01*
X164404766Y-116596235D01*
X164404767Y-116596238D01*
X164464807Y-116794164D01*
X164485080Y-117000000D01*
X164464807Y-117205836D01*
X164404767Y-117403762D01*
X164404766Y-117403765D01*
X164307268Y-117586170D01*
X164176055Y-117746055D01*
X164016170Y-117877268D01*
X163833765Y-117974766D01*
X163833762Y-117974767D01*
X163635836Y-118034807D01*
X163558707Y-118042404D01*
X163481580Y-118050000D01*
X163378420Y-118050000D01*
X163301293Y-118042404D01*
X163224164Y-118034807D01*
X163026238Y-117974767D01*
X163026235Y-117974766D01*
X162843830Y-117877268D01*
X162683945Y-117746055D01*
X162552732Y-117586170D01*
X162455234Y-117403765D01*
X162455233Y-117403762D01*
X162395193Y-117205836D01*
X162374920Y-117000000D01*
X162395193Y-116794164D01*
X162455233Y-116596238D01*
X162455234Y-116596235D01*
X162552732Y-116413830D01*
X162683945Y-116253945D01*
X162843830Y-116122732D01*
X163026235Y-116025234D01*
X163026238Y-116025233D01*
X163224164Y-115965193D01*
X163301293Y-115957597D01*
X163378420Y-115950000D01*
X163481580Y-115950000D01*
X163558707Y-115957597D01*
X163558707Y-115957597D01*
G37*
G36*
X161018707Y-115957597D02*
G01*
X161095836Y-115965193D01*
X161293762Y-116025233D01*
X161293765Y-116025234D01*
X161476170Y-116122732D01*
X161636055Y-116253945D01*
X161767268Y-116413830D01*
X161864766Y-116596235D01*
X161864767Y-116596238D01*
X161924807Y-116794164D01*
X161945080Y-117000000D01*
X161924807Y-117205836D01*
X161864767Y-117403762D01*
X161864766Y-117403765D01*
X161767268Y-117586170D01*
X161636055Y-117746055D01*
X161476170Y-117877268D01*
X161293765Y-117974766D01*
X161293762Y-117974767D01*
X161095836Y-118034807D01*
X161018707Y-118042404D01*
X160941580Y-118050000D01*
X160838420Y-118050000D01*
X160761293Y-118042404D01*
X160684164Y-118034807D01*
X160486238Y-117974767D01*
X160486235Y-117974766D01*
X160303830Y-117877268D01*
X160143945Y-117746055D01*
X160012732Y-117586170D01*
X159915234Y-117403765D01*
X159915233Y-117403762D01*
X159855193Y-117205836D01*
X159834920Y-117000000D01*
X159855193Y-116794164D01*
X159915233Y-116596238D01*
X159915234Y-116596235D01*
X160012732Y-116413830D01*
X160143945Y-116253945D01*
X160303830Y-116122732D01*
X160486235Y-116025234D01*
X160486238Y-116025233D01*
X160684164Y-115965193D01*
X160761293Y-115957597D01*
X160838420Y-115950000D01*
X160941580Y-115950000D01*
X161018707Y-115957597D01*
X161018707Y-115957597D01*
G37*
G36*
X158478707Y-115957597D02*
G01*
X158555836Y-115965193D01*
X158753762Y-116025233D01*
X158753765Y-116025234D01*
X158936170Y-116122732D01*
X159096055Y-116253945D01*
X159227268Y-116413830D01*
X159324766Y-116596235D01*
X159324767Y-116596238D01*
X159384807Y-116794164D01*
X159405080Y-117000000D01*
X159384807Y-117205836D01*
X159324767Y-117403762D01*
X159324766Y-117403765D01*
X159227268Y-117586170D01*
X159096055Y-117746055D01*
X158936170Y-117877268D01*
X158753765Y-117974766D01*
X158753762Y-117974767D01*
X158555836Y-118034807D01*
X158478707Y-118042404D01*
X158401580Y-118050000D01*
X158298420Y-118050000D01*
X158221293Y-118042404D01*
X158144164Y-118034807D01*
X157946238Y-117974767D01*
X157946235Y-117974766D01*
X157763830Y-117877268D01*
X157603945Y-117746055D01*
X157472732Y-117586170D01*
X157375234Y-117403765D01*
X157375233Y-117403762D01*
X157315193Y-117205836D01*
X157294920Y-117000000D01*
X157315193Y-116794164D01*
X157375233Y-116596238D01*
X157375234Y-116596235D01*
X157472732Y-116413830D01*
X157603945Y-116253945D01*
X157763830Y-116122732D01*
X157946235Y-116025234D01*
X157946238Y-116025233D01*
X158144164Y-115965193D01*
X158221293Y-115957597D01*
X158298420Y-115950000D01*
X158401580Y-115950000D01*
X158478707Y-115957597D01*
X158478707Y-115957597D01*
G37*
G36*
X155938707Y-115957597D02*
G01*
X156015836Y-115965193D01*
X156213762Y-116025233D01*
X156213765Y-116025234D01*
X156396170Y-116122732D01*
X156556055Y-116253945D01*
X156687268Y-116413830D01*
X156784766Y-116596235D01*
X156784767Y-116596238D01*
X156844807Y-116794164D01*
X156865080Y-117000000D01*
X156844807Y-117205836D01*
X156784767Y-117403762D01*
X156784766Y-117403765D01*
X156687268Y-117586170D01*
X156556055Y-117746055D01*
X156396170Y-117877268D01*
X156213765Y-117974766D01*
X156213762Y-117974767D01*
X156015836Y-118034807D01*
X155938707Y-118042404D01*
X155861580Y-118050000D01*
X155758420Y-118050000D01*
X155681293Y-118042404D01*
X155604164Y-118034807D01*
X155406238Y-117974767D01*
X155406235Y-117974766D01*
X155223830Y-117877268D01*
X155063945Y-117746055D01*
X154932732Y-117586170D01*
X154835234Y-117403765D01*
X154835233Y-117403762D01*
X154775193Y-117205836D01*
X154754920Y-117000000D01*
X154775193Y-116794164D01*
X154835233Y-116596238D01*
X154835234Y-116596235D01*
X154932732Y-116413830D01*
X155063945Y-116253945D01*
X155223830Y-116122732D01*
X155406235Y-116025234D01*
X155406238Y-116025233D01*
X155604164Y-115965193D01*
X155681293Y-115957597D01*
X155758420Y-115950000D01*
X155861580Y-115950000D01*
X155938707Y-115957597D01*
X155938707Y-115957597D01*
G37*
G36*
X153398707Y-115957597D02*
G01*
X153475836Y-115965193D01*
X153673762Y-116025233D01*
X153673765Y-116025234D01*
X153856170Y-116122732D01*
X154016055Y-116253945D01*
X154147268Y-116413830D01*
X154244766Y-116596235D01*
X154244767Y-116596238D01*
X154304807Y-116794164D01*
X154325080Y-117000000D01*
X154304807Y-117205836D01*
X154244767Y-117403762D01*
X154244766Y-117403765D01*
X154147268Y-117586170D01*
X154016055Y-117746055D01*
X153856170Y-117877268D01*
X153673765Y-117974766D01*
X153673762Y-117974767D01*
X153475836Y-118034807D01*
X153398707Y-118042404D01*
X153321580Y-118050000D01*
X153218420Y-118050000D01*
X153141293Y-118042404D01*
X153064164Y-118034807D01*
X152866238Y-117974767D01*
X152866235Y-117974766D01*
X152683830Y-117877268D01*
X152523945Y-117746055D01*
X152392732Y-117586170D01*
X152295234Y-117403765D01*
X152295233Y-117403762D01*
X152235193Y-117205836D01*
X152214920Y-117000000D01*
X152235193Y-116794164D01*
X152295233Y-116596238D01*
X152295234Y-116596235D01*
X152392732Y-116413830D01*
X152523945Y-116253945D01*
X152683830Y-116122732D01*
X152866235Y-116025234D01*
X152866238Y-116025233D01*
X153064164Y-115965193D01*
X153141293Y-115957597D01*
X153218420Y-115950000D01*
X153321580Y-115950000D01*
X153398707Y-115957597D01*
X153398707Y-115957597D01*
G37*
G36*
X150858707Y-115957597D02*
G01*
X150935836Y-115965193D01*
X151133762Y-116025233D01*
X151133765Y-116025234D01*
X151316170Y-116122732D01*
X151476055Y-116253945D01*
X151607268Y-116413830D01*
X151704766Y-116596235D01*
X151704767Y-116596238D01*
X151764807Y-116794164D01*
X151785080Y-117000000D01*
X151764807Y-117205836D01*
X151704767Y-117403762D01*
X151704766Y-117403765D01*
X151607268Y-117586170D01*
X151476055Y-117746055D01*
X151316170Y-117877268D01*
X151133765Y-117974766D01*
X151133762Y-117974767D01*
X150935836Y-118034807D01*
X150858707Y-118042404D01*
X150781580Y-118050000D01*
X150678420Y-118050000D01*
X150601293Y-118042404D01*
X150524164Y-118034807D01*
X150326238Y-117974767D01*
X150326235Y-117974766D01*
X150143830Y-117877268D01*
X149983945Y-117746055D01*
X149852732Y-117586170D01*
X149755234Y-117403765D01*
X149755233Y-117403762D01*
X149695193Y-117205836D01*
X149674920Y-117000000D01*
X149695193Y-116794164D01*
X149755233Y-116596238D01*
X149755234Y-116596235D01*
X149852732Y-116413830D01*
X149983945Y-116253945D01*
X150143830Y-116122732D01*
X150326235Y-116025234D01*
X150326238Y-116025233D01*
X150524164Y-115965193D01*
X150601293Y-115957597D01*
X150678420Y-115950000D01*
X150781580Y-115950000D01*
X150858707Y-115957597D01*
X150858707Y-115957597D01*
G37*
G36*
X168638707Y-113417597D02*
G01*
X168715836Y-113425193D01*
X168913762Y-113485233D01*
X168913765Y-113485234D01*
X169096170Y-113582732D01*
X169256055Y-113713945D01*
X169387268Y-113873830D01*
X169484766Y-114056235D01*
X169484767Y-114056238D01*
X169544807Y-114254164D01*
X169565080Y-114460000D01*
X169544807Y-114665836D01*
X169484767Y-114863762D01*
X169484766Y-114863765D01*
X169387268Y-115046170D01*
X169256055Y-115206055D01*
X169096170Y-115337268D01*
X168913765Y-115434766D01*
X168913762Y-115434767D01*
X168715836Y-115494807D01*
X168638707Y-115502404D01*
X168561580Y-115510000D01*
X168458420Y-115510000D01*
X168381293Y-115502404D01*
X168304164Y-115494807D01*
X168106238Y-115434767D01*
X168106235Y-115434766D01*
X167923830Y-115337268D01*
X167763945Y-115206055D01*
X167632732Y-115046170D01*
X167535234Y-114863765D01*
X167535233Y-114863762D01*
X167475193Y-114665836D01*
X167454920Y-114460000D01*
X167475193Y-114254164D01*
X167535233Y-114056238D01*
X167535234Y-114056235D01*
X167632732Y-113873830D01*
X167763945Y-113713945D01*
X167923830Y-113582732D01*
X168106235Y-113485234D01*
X168106238Y-113485233D01*
X168304164Y-113425193D01*
X168381293Y-113417597D01*
X168458420Y-113410000D01*
X168561580Y-113410000D01*
X168638707Y-113417597D01*
X168638707Y-113417597D01*
G37*
G36*
X166098707Y-113417597D02*
G01*
X166175836Y-113425193D01*
X166373762Y-113485233D01*
X166373765Y-113485234D01*
X166556170Y-113582732D01*
X166716055Y-113713945D01*
X166847268Y-113873830D01*
X166944766Y-114056235D01*
X166944767Y-114056238D01*
X167004807Y-114254164D01*
X167025080Y-114460000D01*
X167004807Y-114665836D01*
X166944767Y-114863762D01*
X166944766Y-114863765D01*
X166847268Y-115046170D01*
X166716055Y-115206055D01*
X166556170Y-115337268D01*
X166373765Y-115434766D01*
X166373762Y-115434767D01*
X166175836Y-115494807D01*
X166098707Y-115502404D01*
X166021580Y-115510000D01*
X165918420Y-115510000D01*
X165841293Y-115502404D01*
X165764164Y-115494807D01*
X165566238Y-115434767D01*
X165566235Y-115434766D01*
X165383830Y-115337268D01*
X165223945Y-115206055D01*
X165092732Y-115046170D01*
X164995234Y-114863765D01*
X164995233Y-114863762D01*
X164935193Y-114665836D01*
X164914920Y-114460000D01*
X164935193Y-114254164D01*
X164995233Y-114056238D01*
X164995234Y-114056235D01*
X165092732Y-113873830D01*
X165223945Y-113713945D01*
X165383830Y-113582732D01*
X165566235Y-113485234D01*
X165566238Y-113485233D01*
X165764164Y-113425193D01*
X165841293Y-113417597D01*
X165918420Y-113410000D01*
X166021580Y-113410000D01*
X166098707Y-113417597D01*
X166098707Y-113417597D01*
G37*
G36*
X163558707Y-113417597D02*
G01*
X163635836Y-113425193D01*
X163833762Y-113485233D01*
X163833765Y-113485234D01*
X164016170Y-113582732D01*
X164176055Y-113713945D01*
X164307268Y-113873830D01*
X164404766Y-114056235D01*
X164404767Y-114056238D01*
X164464807Y-114254164D01*
X164485080Y-114460000D01*
X164464807Y-114665836D01*
X164404767Y-114863762D01*
X164404766Y-114863765D01*
X164307268Y-115046170D01*
X164176055Y-115206055D01*
X164016170Y-115337268D01*
X163833765Y-115434766D01*
X163833762Y-115434767D01*
X163635836Y-115494807D01*
X163558707Y-115502404D01*
X163481580Y-115510000D01*
X163378420Y-115510000D01*
X163301293Y-115502404D01*
X163224164Y-115494807D01*
X163026238Y-115434767D01*
X163026235Y-115434766D01*
X162843830Y-115337268D01*
X162683945Y-115206055D01*
X162552732Y-115046170D01*
X162455234Y-114863765D01*
X162455233Y-114863762D01*
X162395193Y-114665836D01*
X162374920Y-114460000D01*
X162395193Y-114254164D01*
X162455233Y-114056238D01*
X162455234Y-114056235D01*
X162552732Y-113873830D01*
X162683945Y-113713945D01*
X162843830Y-113582732D01*
X163026235Y-113485234D01*
X163026238Y-113485233D01*
X163224164Y-113425193D01*
X163301293Y-113417597D01*
X163378420Y-113410000D01*
X163481580Y-113410000D01*
X163558707Y-113417597D01*
X163558707Y-113417597D01*
G37*
G36*
X161018707Y-113417597D02*
G01*
X161095836Y-113425193D01*
X161293762Y-113485233D01*
X161293765Y-113485234D01*
X161476170Y-113582732D01*
X161636055Y-113713945D01*
X161767268Y-113873830D01*
X161864766Y-114056235D01*
X161864767Y-114056238D01*
X161924807Y-114254164D01*
X161945080Y-114460000D01*
X161924807Y-114665836D01*
X161864767Y-114863762D01*
X161864766Y-114863765D01*
X161767268Y-115046170D01*
X161636055Y-115206055D01*
X161476170Y-115337268D01*
X161293765Y-115434766D01*
X161293762Y-115434767D01*
X161095836Y-115494807D01*
X161018707Y-115502404D01*
X160941580Y-115510000D01*
X160838420Y-115510000D01*
X160761293Y-115502404D01*
X160684164Y-115494807D01*
X160486238Y-115434767D01*
X160486235Y-115434766D01*
X160303830Y-115337268D01*
X160143945Y-115206055D01*
X160012732Y-115046170D01*
X159915234Y-114863765D01*
X159915233Y-114863762D01*
X159855193Y-114665836D01*
X159834920Y-114460000D01*
X159855193Y-114254164D01*
X159915233Y-114056238D01*
X159915234Y-114056235D01*
X160012732Y-113873830D01*
X160143945Y-113713945D01*
X160303830Y-113582732D01*
X160486235Y-113485234D01*
X160486238Y-113485233D01*
X160684164Y-113425193D01*
X160761293Y-113417597D01*
X160838420Y-113410000D01*
X160941580Y-113410000D01*
X161018707Y-113417597D01*
X161018707Y-113417597D01*
G37*
G36*
X158478707Y-113417597D02*
G01*
X158555836Y-113425193D01*
X158753762Y-113485233D01*
X158753765Y-113485234D01*
X158936170Y-113582732D01*
X159096055Y-113713945D01*
X159227268Y-113873830D01*
X159324766Y-114056235D01*
X159324767Y-114056238D01*
X159384807Y-114254164D01*
X159405080Y-114460000D01*
X159384807Y-114665836D01*
X159324767Y-114863762D01*
X159324766Y-114863765D01*
X159227268Y-115046170D01*
X159096055Y-115206055D01*
X158936170Y-115337268D01*
X158753765Y-115434766D01*
X158753762Y-115434767D01*
X158555836Y-115494807D01*
X158478707Y-115502404D01*
X158401580Y-115510000D01*
X158298420Y-115510000D01*
X158221293Y-115502404D01*
X158144164Y-115494807D01*
X157946238Y-115434767D01*
X157946235Y-115434766D01*
X157763830Y-115337268D01*
X157603945Y-115206055D01*
X157472732Y-115046170D01*
X157375234Y-114863765D01*
X157375233Y-114863762D01*
X157315193Y-114665836D01*
X157294920Y-114460000D01*
X157315193Y-114254164D01*
X157375233Y-114056238D01*
X157375234Y-114056235D01*
X157472732Y-113873830D01*
X157603945Y-113713945D01*
X157763830Y-113582732D01*
X157946235Y-113485234D01*
X157946238Y-113485233D01*
X158144164Y-113425193D01*
X158221293Y-113417597D01*
X158298420Y-113410000D01*
X158401580Y-113410000D01*
X158478707Y-113417597D01*
X158478707Y-113417597D01*
G37*
G36*
X133078707Y-113417597D02*
G01*
X133155836Y-113425193D01*
X133353762Y-113485233D01*
X133353765Y-113485234D01*
X133536170Y-113582732D01*
X133696055Y-113713945D01*
X133827268Y-113873830D01*
X133924766Y-114056235D01*
X133924767Y-114056238D01*
X133984807Y-114254164D01*
X134005080Y-114460000D01*
X133984807Y-114665836D01*
X133924767Y-114863762D01*
X133924766Y-114863765D01*
X133827268Y-115046170D01*
X133696055Y-115206055D01*
X133536170Y-115337268D01*
X133353765Y-115434766D01*
X133353762Y-115434767D01*
X133155836Y-115494807D01*
X133078707Y-115502404D01*
X133001580Y-115510000D01*
X132898420Y-115510000D01*
X132821293Y-115502404D01*
X132744164Y-115494807D01*
X132546238Y-115434767D01*
X132546235Y-115434766D01*
X132363830Y-115337268D01*
X132203945Y-115206055D01*
X132072732Y-115046170D01*
X131975234Y-114863765D01*
X131975233Y-114863762D01*
X131915193Y-114665836D01*
X131894920Y-114460000D01*
X131915193Y-114254164D01*
X131975233Y-114056238D01*
X131975234Y-114056235D01*
X132072732Y-113873830D01*
X132203945Y-113713945D01*
X132363830Y-113582732D01*
X132546235Y-113485234D01*
X132546238Y-113485233D01*
X132744164Y-113425193D01*
X132821293Y-113417597D01*
X132898420Y-113410000D01*
X133001580Y-113410000D01*
X133078707Y-113417597D01*
X133078707Y-113417597D01*
G37*
G36*
X153398707Y-113417597D02*
G01*
X153475836Y-113425193D01*
X153673762Y-113485233D01*
X153673765Y-113485234D01*
X153856170Y-113582732D01*
X154016055Y-113713945D01*
X154147268Y-113873830D01*
X154244766Y-114056235D01*
X154244767Y-114056238D01*
X154304807Y-114254164D01*
X154325080Y-114460000D01*
X154304807Y-114665836D01*
X154244767Y-114863762D01*
X154244766Y-114863765D01*
X154147268Y-115046170D01*
X154016055Y-115206055D01*
X153856170Y-115337268D01*
X153673765Y-115434766D01*
X153673762Y-115434767D01*
X153475836Y-115494807D01*
X153398707Y-115502404D01*
X153321580Y-115510000D01*
X153218420Y-115510000D01*
X153141293Y-115502404D01*
X153064164Y-115494807D01*
X152866238Y-115434767D01*
X152866235Y-115434766D01*
X152683830Y-115337268D01*
X152523945Y-115206055D01*
X152392732Y-115046170D01*
X152295234Y-114863765D01*
X152295233Y-114863762D01*
X152235193Y-114665836D01*
X152214920Y-114460000D01*
X152235193Y-114254164D01*
X152295233Y-114056238D01*
X152295234Y-114056235D01*
X152392732Y-113873830D01*
X152523945Y-113713945D01*
X152683830Y-113582732D01*
X152866235Y-113485234D01*
X152866238Y-113485233D01*
X153064164Y-113425193D01*
X153141293Y-113417597D01*
X153218420Y-113410000D01*
X153321580Y-113410000D01*
X153398707Y-113417597D01*
X153398707Y-113417597D01*
G37*
G36*
X150858707Y-113417597D02*
G01*
X150935836Y-113425193D01*
X151133762Y-113485233D01*
X151133765Y-113485234D01*
X151316170Y-113582732D01*
X151476055Y-113713945D01*
X151607268Y-113873830D01*
X151704766Y-114056235D01*
X151704767Y-114056238D01*
X151764807Y-114254164D01*
X151785080Y-114460000D01*
X151764807Y-114665836D01*
X151704767Y-114863762D01*
X151704766Y-114863765D01*
X151607268Y-115046170D01*
X151476055Y-115206055D01*
X151316170Y-115337268D01*
X151133765Y-115434766D01*
X151133762Y-115434767D01*
X150935836Y-115494807D01*
X150858707Y-115502404D01*
X150781580Y-115510000D01*
X150678420Y-115510000D01*
X150601293Y-115502404D01*
X150524164Y-115494807D01*
X150326238Y-115434767D01*
X150326235Y-115434766D01*
X150143830Y-115337268D01*
X149983945Y-115206055D01*
X149852732Y-115046170D01*
X149755234Y-114863765D01*
X149755233Y-114863762D01*
X149695193Y-114665836D01*
X149674920Y-114460000D01*
X149695193Y-114254164D01*
X149755233Y-114056238D01*
X149755234Y-114056235D01*
X149852732Y-113873830D01*
X149983945Y-113713945D01*
X150143830Y-113582732D01*
X150326235Y-113485234D01*
X150326238Y-113485233D01*
X150524164Y-113425193D01*
X150601293Y-113417597D01*
X150678420Y-113410000D01*
X150781580Y-113410000D01*
X150858707Y-113417597D01*
X150858707Y-113417597D01*
G37*
G36*
X148318707Y-113417597D02*
G01*
X148395836Y-113425193D01*
X148593762Y-113485233D01*
X148593765Y-113485234D01*
X148776170Y-113582732D01*
X148936055Y-113713945D01*
X149067268Y-113873830D01*
X149164766Y-114056235D01*
X149164767Y-114056238D01*
X149224807Y-114254164D01*
X149245080Y-114460000D01*
X149224807Y-114665836D01*
X149164767Y-114863762D01*
X149164766Y-114863765D01*
X149067268Y-115046170D01*
X148936055Y-115206055D01*
X148776170Y-115337268D01*
X148593765Y-115434766D01*
X148593762Y-115434767D01*
X148395836Y-115494807D01*
X148318707Y-115502404D01*
X148241580Y-115510000D01*
X148138420Y-115510000D01*
X148061293Y-115502404D01*
X147984164Y-115494807D01*
X147786238Y-115434767D01*
X147786235Y-115434766D01*
X147603830Y-115337268D01*
X147443945Y-115206055D01*
X147312732Y-115046170D01*
X147215234Y-114863765D01*
X147215233Y-114863762D01*
X147155193Y-114665836D01*
X147134920Y-114460000D01*
X147155193Y-114254164D01*
X147215233Y-114056238D01*
X147215234Y-114056235D01*
X147312732Y-113873830D01*
X147443945Y-113713945D01*
X147603830Y-113582732D01*
X147786235Y-113485234D01*
X147786238Y-113485233D01*
X147984164Y-113425193D01*
X148061293Y-113417597D01*
X148138420Y-113410000D01*
X148241580Y-113410000D01*
X148318707Y-113417597D01*
X148318707Y-113417597D01*
G37*
G36*
X145778707Y-113417597D02*
G01*
X145855836Y-113425193D01*
X146053762Y-113485233D01*
X146053765Y-113485234D01*
X146236170Y-113582732D01*
X146396055Y-113713945D01*
X146527268Y-113873830D01*
X146624766Y-114056235D01*
X146624767Y-114056238D01*
X146684807Y-114254164D01*
X146705080Y-114460000D01*
X146684807Y-114665836D01*
X146624767Y-114863762D01*
X146624766Y-114863765D01*
X146527268Y-115046170D01*
X146396055Y-115206055D01*
X146236170Y-115337268D01*
X146053765Y-115434766D01*
X146053762Y-115434767D01*
X145855836Y-115494807D01*
X145778707Y-115502404D01*
X145701580Y-115510000D01*
X145598420Y-115510000D01*
X145521293Y-115502404D01*
X145444164Y-115494807D01*
X145246238Y-115434767D01*
X145246235Y-115434766D01*
X145063830Y-115337268D01*
X144903945Y-115206055D01*
X144772732Y-115046170D01*
X144675234Y-114863765D01*
X144675233Y-114863762D01*
X144615193Y-114665836D01*
X144594920Y-114460000D01*
X144615193Y-114254164D01*
X144675233Y-114056238D01*
X144675234Y-114056235D01*
X144772732Y-113873830D01*
X144903945Y-113713945D01*
X145063830Y-113582732D01*
X145246235Y-113485234D01*
X145246238Y-113485233D01*
X145444164Y-113425193D01*
X145521293Y-113417597D01*
X145598420Y-113410000D01*
X145701580Y-113410000D01*
X145778707Y-113417597D01*
X145778707Y-113417597D01*
G37*
G36*
X140698707Y-113417597D02*
G01*
X140775836Y-113425193D01*
X140973762Y-113485233D01*
X140973765Y-113485234D01*
X141156170Y-113582732D01*
X141316055Y-113713945D01*
X141447268Y-113873830D01*
X141544766Y-114056235D01*
X141544767Y-114056238D01*
X141604807Y-114254164D01*
X141625080Y-114460000D01*
X141604807Y-114665836D01*
X141544767Y-114863762D01*
X141544766Y-114863765D01*
X141447268Y-115046170D01*
X141316055Y-115206055D01*
X141156170Y-115337268D01*
X140973765Y-115434766D01*
X140973762Y-115434767D01*
X140775836Y-115494807D01*
X140698707Y-115502404D01*
X140621580Y-115510000D01*
X140518420Y-115510000D01*
X140441293Y-115502404D01*
X140364164Y-115494807D01*
X140166238Y-115434767D01*
X140166235Y-115434766D01*
X139983830Y-115337268D01*
X139823945Y-115206055D01*
X139692732Y-115046170D01*
X139595234Y-114863765D01*
X139595233Y-114863762D01*
X139535193Y-114665836D01*
X139514920Y-114460000D01*
X139535193Y-114254164D01*
X139595233Y-114056238D01*
X139595234Y-114056235D01*
X139692732Y-113873830D01*
X139823945Y-113713945D01*
X139983830Y-113582732D01*
X140166235Y-113485234D01*
X140166238Y-113485233D01*
X140364164Y-113425193D01*
X140441293Y-113417597D01*
X140518420Y-113410000D01*
X140621580Y-113410000D01*
X140698707Y-113417597D01*
X140698707Y-113417597D01*
G37*
G36*
X138158707Y-113417597D02*
G01*
X138235836Y-113425193D01*
X138433762Y-113485233D01*
X138433765Y-113485234D01*
X138616170Y-113582732D01*
X138776055Y-113713945D01*
X138907268Y-113873830D01*
X139004766Y-114056235D01*
X139004767Y-114056238D01*
X139064807Y-114254164D01*
X139085080Y-114460000D01*
X139064807Y-114665836D01*
X139004767Y-114863762D01*
X139004766Y-114863765D01*
X138907268Y-115046170D01*
X138776055Y-115206055D01*
X138616170Y-115337268D01*
X138433765Y-115434766D01*
X138433762Y-115434767D01*
X138235836Y-115494807D01*
X138158707Y-115502404D01*
X138081580Y-115510000D01*
X137978420Y-115510000D01*
X137901293Y-115502404D01*
X137824164Y-115494807D01*
X137626238Y-115434767D01*
X137626235Y-115434766D01*
X137443830Y-115337268D01*
X137283945Y-115206055D01*
X137152732Y-115046170D01*
X137055234Y-114863765D01*
X137055233Y-114863762D01*
X136995193Y-114665836D01*
X136974920Y-114460000D01*
X136995193Y-114254164D01*
X137055233Y-114056238D01*
X137055234Y-114056235D01*
X137152732Y-113873830D01*
X137283945Y-113713945D01*
X137443830Y-113582732D01*
X137626235Y-113485234D01*
X137626238Y-113485233D01*
X137824164Y-113425193D01*
X137901293Y-113417597D01*
X137978420Y-113410000D01*
X138081580Y-113410000D01*
X138158707Y-113417597D01*
X138158707Y-113417597D01*
G37*
G36*
X135618707Y-113417597D02*
G01*
X135695836Y-113425193D01*
X135893762Y-113485233D01*
X135893765Y-113485234D01*
X136076170Y-113582732D01*
X136236055Y-113713945D01*
X136367268Y-113873830D01*
X136464766Y-114056235D01*
X136464767Y-114056238D01*
X136524807Y-114254164D01*
X136545080Y-114460000D01*
X136524807Y-114665836D01*
X136464767Y-114863762D01*
X136464766Y-114863765D01*
X136367268Y-115046170D01*
X136236055Y-115206055D01*
X136076170Y-115337268D01*
X135893765Y-115434766D01*
X135893762Y-115434767D01*
X135695836Y-115494807D01*
X135618707Y-115502404D01*
X135541580Y-115510000D01*
X135438420Y-115510000D01*
X135361293Y-115502404D01*
X135284164Y-115494807D01*
X135086238Y-115434767D01*
X135086235Y-115434766D01*
X134903830Y-115337268D01*
X134743945Y-115206055D01*
X134612732Y-115046170D01*
X134515234Y-114863765D01*
X134515233Y-114863762D01*
X134455193Y-114665836D01*
X134434920Y-114460000D01*
X134455193Y-114254164D01*
X134515233Y-114056238D01*
X134515234Y-114056235D01*
X134612732Y-113873830D01*
X134743945Y-113713945D01*
X134903830Y-113582732D01*
X135086235Y-113485234D01*
X135086238Y-113485233D01*
X135284164Y-113425193D01*
X135361293Y-113417597D01*
X135438420Y-113410000D01*
X135541580Y-113410000D01*
X135618707Y-113417597D01*
X135618707Y-113417597D01*
G37*
G36*
X125458707Y-113417597D02*
G01*
X125535836Y-113425193D01*
X125733762Y-113485233D01*
X125733765Y-113485234D01*
X125916170Y-113582732D01*
X126076055Y-113713945D01*
X126207268Y-113873830D01*
X126304766Y-114056235D01*
X126304767Y-114056238D01*
X126364807Y-114254164D01*
X126385080Y-114460000D01*
X126364807Y-114665836D01*
X126304767Y-114863762D01*
X126304766Y-114863765D01*
X126207268Y-115046170D01*
X126076055Y-115206055D01*
X125916170Y-115337268D01*
X125733765Y-115434766D01*
X125733762Y-115434767D01*
X125535836Y-115494807D01*
X125458707Y-115502404D01*
X125381580Y-115510000D01*
X125278420Y-115510000D01*
X125201293Y-115502404D01*
X125124164Y-115494807D01*
X124926238Y-115434767D01*
X124926235Y-115434766D01*
X124743830Y-115337268D01*
X124583945Y-115206055D01*
X124452732Y-115046170D01*
X124355234Y-114863765D01*
X124355233Y-114863762D01*
X124295193Y-114665836D01*
X124274920Y-114460000D01*
X124295193Y-114254164D01*
X124355233Y-114056238D01*
X124355234Y-114056235D01*
X124452732Y-113873830D01*
X124583945Y-113713945D01*
X124743830Y-113582732D01*
X124926235Y-113485234D01*
X124926238Y-113485233D01*
X125124164Y-113425193D01*
X125201293Y-113417597D01*
X125278420Y-113410000D01*
X125381580Y-113410000D01*
X125458707Y-113417597D01*
X125458707Y-113417597D01*
G37*
G36*
X176258707Y-113417597D02*
G01*
X176335836Y-113425193D01*
X176533762Y-113485233D01*
X176533765Y-113485234D01*
X176716170Y-113582732D01*
X176876055Y-113713945D01*
X177007268Y-113873830D01*
X177104766Y-114056235D01*
X177104767Y-114056238D01*
X177164807Y-114254164D01*
X177185080Y-114460000D01*
X177164807Y-114665836D01*
X177104767Y-114863762D01*
X177104766Y-114863765D01*
X177007268Y-115046170D01*
X176876055Y-115206055D01*
X176716170Y-115337268D01*
X176533765Y-115434766D01*
X176533762Y-115434767D01*
X176335836Y-115494807D01*
X176258707Y-115502404D01*
X176181580Y-115510000D01*
X176078420Y-115510000D01*
X176001293Y-115502404D01*
X175924164Y-115494807D01*
X175726238Y-115434767D01*
X175726235Y-115434766D01*
X175543830Y-115337268D01*
X175383945Y-115206055D01*
X175252732Y-115046170D01*
X175155234Y-114863765D01*
X175155233Y-114863762D01*
X175095193Y-114665836D01*
X175074920Y-114460000D01*
X175095193Y-114254164D01*
X175155233Y-114056238D01*
X175155234Y-114056235D01*
X175252732Y-113873830D01*
X175383945Y-113713945D01*
X175543830Y-113582732D01*
X175726235Y-113485234D01*
X175726238Y-113485233D01*
X175924164Y-113425193D01*
X176001293Y-113417597D01*
X176078420Y-113410000D01*
X176181580Y-113410000D01*
X176258707Y-113417597D01*
X176258707Y-113417597D01*
G37*
G36*
X127998707Y-113417597D02*
G01*
X128075836Y-113425193D01*
X128273762Y-113485233D01*
X128273765Y-113485234D01*
X128456170Y-113582732D01*
X128616055Y-113713945D01*
X128747268Y-113873830D01*
X128844766Y-114056235D01*
X128844767Y-114056238D01*
X128904807Y-114254164D01*
X128925080Y-114460000D01*
X128904807Y-114665836D01*
X128844767Y-114863762D01*
X128844766Y-114863765D01*
X128747268Y-115046170D01*
X128616055Y-115206055D01*
X128456170Y-115337268D01*
X128273765Y-115434766D01*
X128273762Y-115434767D01*
X128075836Y-115494807D01*
X127998707Y-115502404D01*
X127921580Y-115510000D01*
X127818420Y-115510000D01*
X127741293Y-115502404D01*
X127664164Y-115494807D01*
X127466238Y-115434767D01*
X127466235Y-115434766D01*
X127283830Y-115337268D01*
X127123945Y-115206055D01*
X126992732Y-115046170D01*
X126895234Y-114863765D01*
X126895233Y-114863762D01*
X126835193Y-114665836D01*
X126814920Y-114460000D01*
X126835193Y-114254164D01*
X126895233Y-114056238D01*
X126895234Y-114056235D01*
X126992732Y-113873830D01*
X127123945Y-113713945D01*
X127283830Y-113582732D01*
X127466235Y-113485234D01*
X127466238Y-113485233D01*
X127664164Y-113425193D01*
X127741293Y-113417597D01*
X127818420Y-113410000D01*
X127921580Y-113410000D01*
X127998707Y-113417597D01*
X127998707Y-113417597D01*
G37*
G36*
X192420000Y-115510000D02*
G01*
X190320000Y-115510000D01*
X190320000Y-113410000D01*
X192420000Y-113410000D01*
X192420000Y-115510000D01*
X192420000Y-115510000D01*
G37*
G36*
X188958707Y-113417597D02*
G01*
X189035836Y-113425193D01*
X189233762Y-113485233D01*
X189233765Y-113485234D01*
X189416170Y-113582732D01*
X189576055Y-113713945D01*
X189707268Y-113873830D01*
X189804766Y-114056235D01*
X189804767Y-114056238D01*
X189864807Y-114254164D01*
X189885080Y-114460000D01*
X189864807Y-114665836D01*
X189804767Y-114863762D01*
X189804766Y-114863765D01*
X189707268Y-115046170D01*
X189576055Y-115206055D01*
X189416170Y-115337268D01*
X189233765Y-115434766D01*
X189233762Y-115434767D01*
X189035836Y-115494807D01*
X188958707Y-115502404D01*
X188881580Y-115510000D01*
X188778420Y-115510000D01*
X188701293Y-115502404D01*
X188624164Y-115494807D01*
X188426238Y-115434767D01*
X188426235Y-115434766D01*
X188243830Y-115337268D01*
X188083945Y-115206055D01*
X187952732Y-115046170D01*
X187855234Y-114863765D01*
X187855233Y-114863762D01*
X187795193Y-114665836D01*
X187774920Y-114460000D01*
X187795193Y-114254164D01*
X187855233Y-114056238D01*
X187855234Y-114056235D01*
X187952732Y-113873830D01*
X188083945Y-113713945D01*
X188243830Y-113582732D01*
X188426235Y-113485234D01*
X188426238Y-113485233D01*
X188624164Y-113425193D01*
X188701293Y-113417597D01*
X188778420Y-113410000D01*
X188881580Y-113410000D01*
X188958707Y-113417597D01*
X188958707Y-113417597D01*
G37*
G36*
X186418707Y-113417597D02*
G01*
X186495836Y-113425193D01*
X186693762Y-113485233D01*
X186693765Y-113485234D01*
X186876170Y-113582732D01*
X187036055Y-113713945D01*
X187167268Y-113873830D01*
X187264766Y-114056235D01*
X187264767Y-114056238D01*
X187324807Y-114254164D01*
X187345080Y-114460000D01*
X187324807Y-114665836D01*
X187264767Y-114863762D01*
X187264766Y-114863765D01*
X187167268Y-115046170D01*
X187036055Y-115206055D01*
X186876170Y-115337268D01*
X186693765Y-115434766D01*
X186693762Y-115434767D01*
X186495836Y-115494807D01*
X186418707Y-115502404D01*
X186341580Y-115510000D01*
X186238420Y-115510000D01*
X186161293Y-115502404D01*
X186084164Y-115494807D01*
X185886238Y-115434767D01*
X185886235Y-115434766D01*
X185703830Y-115337268D01*
X185543945Y-115206055D01*
X185412732Y-115046170D01*
X185315234Y-114863765D01*
X185315233Y-114863762D01*
X185255193Y-114665836D01*
X185234920Y-114460000D01*
X185255193Y-114254164D01*
X185315233Y-114056238D01*
X185315234Y-114056235D01*
X185412732Y-113873830D01*
X185543945Y-113713945D01*
X185703830Y-113582732D01*
X185886235Y-113485234D01*
X185886238Y-113485233D01*
X186084164Y-113425193D01*
X186161293Y-113417597D01*
X186238420Y-113410000D01*
X186341580Y-113410000D01*
X186418707Y-113417597D01*
X186418707Y-113417597D01*
G37*
G36*
X130538707Y-113417597D02*
G01*
X130615836Y-113425193D01*
X130813762Y-113485233D01*
X130813765Y-113485234D01*
X130996170Y-113582732D01*
X131156055Y-113713945D01*
X131287268Y-113873830D01*
X131384766Y-114056235D01*
X131384767Y-114056238D01*
X131444807Y-114254164D01*
X131465080Y-114460000D01*
X131444807Y-114665836D01*
X131384767Y-114863762D01*
X131384766Y-114863765D01*
X131287268Y-115046170D01*
X131156055Y-115206055D01*
X130996170Y-115337268D01*
X130813765Y-115434766D01*
X130813762Y-115434767D01*
X130615836Y-115494807D01*
X130538707Y-115502404D01*
X130461580Y-115510000D01*
X130358420Y-115510000D01*
X130281293Y-115502404D01*
X130204164Y-115494807D01*
X130006238Y-115434767D01*
X130006235Y-115434766D01*
X129823830Y-115337268D01*
X129663945Y-115206055D01*
X129532732Y-115046170D01*
X129435234Y-114863765D01*
X129435233Y-114863762D01*
X129375193Y-114665836D01*
X129354920Y-114460000D01*
X129375193Y-114254164D01*
X129435233Y-114056238D01*
X129435234Y-114056235D01*
X129532732Y-113873830D01*
X129663945Y-113713945D01*
X129823830Y-113582732D01*
X130006235Y-113485234D01*
X130006238Y-113485233D01*
X130204164Y-113425193D01*
X130281293Y-113417597D01*
X130358420Y-113410000D01*
X130461580Y-113410000D01*
X130538707Y-113417597D01*
X130538707Y-113417597D01*
G37*
G36*
X183878707Y-113417597D02*
G01*
X183955836Y-113425193D01*
X184153762Y-113485233D01*
X184153765Y-113485234D01*
X184336170Y-113582732D01*
X184496055Y-113713945D01*
X184627268Y-113873830D01*
X184724766Y-114056235D01*
X184724767Y-114056238D01*
X184784807Y-114254164D01*
X184805080Y-114460000D01*
X184784807Y-114665836D01*
X184724767Y-114863762D01*
X184724766Y-114863765D01*
X184627268Y-115046170D01*
X184496055Y-115206055D01*
X184336170Y-115337268D01*
X184153765Y-115434766D01*
X184153762Y-115434767D01*
X183955836Y-115494807D01*
X183878707Y-115502404D01*
X183801580Y-115510000D01*
X183698420Y-115510000D01*
X183621293Y-115502404D01*
X183544164Y-115494807D01*
X183346238Y-115434767D01*
X183346235Y-115434766D01*
X183163830Y-115337268D01*
X183003945Y-115206055D01*
X182872732Y-115046170D01*
X182775234Y-114863765D01*
X182775233Y-114863762D01*
X182715193Y-114665836D01*
X182694920Y-114460000D01*
X182715193Y-114254164D01*
X182775233Y-114056238D01*
X182775234Y-114056235D01*
X182872732Y-113873830D01*
X183003945Y-113713945D01*
X183163830Y-113582732D01*
X183346235Y-113485234D01*
X183346238Y-113485233D01*
X183544164Y-113425193D01*
X183621293Y-113417597D01*
X183698420Y-113410000D01*
X183801580Y-113410000D01*
X183878707Y-113417597D01*
X183878707Y-113417597D01*
G37*
G36*
X181338707Y-113417597D02*
G01*
X181415836Y-113425193D01*
X181613762Y-113485233D01*
X181613765Y-113485234D01*
X181796170Y-113582732D01*
X181956055Y-113713945D01*
X182087268Y-113873830D01*
X182184766Y-114056235D01*
X182184767Y-114056238D01*
X182244807Y-114254164D01*
X182265080Y-114460000D01*
X182244807Y-114665836D01*
X182184767Y-114863762D01*
X182184766Y-114863765D01*
X182087268Y-115046170D01*
X181956055Y-115206055D01*
X181796170Y-115337268D01*
X181613765Y-115434766D01*
X181613762Y-115434767D01*
X181415836Y-115494807D01*
X181338707Y-115502404D01*
X181261580Y-115510000D01*
X181158420Y-115510000D01*
X181081293Y-115502404D01*
X181004164Y-115494807D01*
X180806238Y-115434767D01*
X180806235Y-115434766D01*
X180623830Y-115337268D01*
X180463945Y-115206055D01*
X180332732Y-115046170D01*
X180235234Y-114863765D01*
X180235233Y-114863762D01*
X180175193Y-114665836D01*
X180154920Y-114460000D01*
X180175193Y-114254164D01*
X180235233Y-114056238D01*
X180235234Y-114056235D01*
X180332732Y-113873830D01*
X180463945Y-113713945D01*
X180623830Y-113582732D01*
X180806235Y-113485234D01*
X180806238Y-113485233D01*
X181004164Y-113425193D01*
X181081293Y-113417597D01*
X181158420Y-113410000D01*
X181261580Y-113410000D01*
X181338707Y-113417597D01*
X181338707Y-113417597D01*
G37*
G36*
X120378707Y-113417597D02*
G01*
X120455836Y-113425193D01*
X120653762Y-113485233D01*
X120653765Y-113485234D01*
X120836170Y-113582732D01*
X120996055Y-113713945D01*
X121127268Y-113873830D01*
X121224766Y-114056235D01*
X121224767Y-114056238D01*
X121284807Y-114254164D01*
X121305080Y-114460000D01*
X121284807Y-114665836D01*
X121224767Y-114863762D01*
X121224766Y-114863765D01*
X121127268Y-115046170D01*
X120996055Y-115206055D01*
X120836170Y-115337268D01*
X120653765Y-115434766D01*
X120653762Y-115434767D01*
X120455836Y-115494807D01*
X120378707Y-115502404D01*
X120301580Y-115510000D01*
X120198420Y-115510000D01*
X120121293Y-115502404D01*
X120044164Y-115494807D01*
X119846238Y-115434767D01*
X119846235Y-115434766D01*
X119663830Y-115337268D01*
X119503945Y-115206055D01*
X119372732Y-115046170D01*
X119275234Y-114863765D01*
X119275233Y-114863762D01*
X119215193Y-114665836D01*
X119194920Y-114460000D01*
X119215193Y-114254164D01*
X119275233Y-114056238D01*
X119275234Y-114056235D01*
X119372732Y-113873830D01*
X119503945Y-113713945D01*
X119663830Y-113582732D01*
X119846235Y-113485234D01*
X119846238Y-113485233D01*
X120044164Y-113425193D01*
X120121293Y-113417597D01*
X120198420Y-113410000D01*
X120301580Y-113410000D01*
X120378707Y-113417597D01*
X120378707Y-113417597D01*
G37*
G36*
X143238707Y-113417597D02*
G01*
X143315836Y-113425193D01*
X143513762Y-113485233D01*
X143513765Y-113485234D01*
X143696170Y-113582732D01*
X143856055Y-113713945D01*
X143987268Y-113873830D01*
X144084766Y-114056235D01*
X144084767Y-114056238D01*
X144144807Y-114254164D01*
X144165080Y-114460000D01*
X144144807Y-114665836D01*
X144084767Y-114863762D01*
X144084766Y-114863765D01*
X143987268Y-115046170D01*
X143856055Y-115206055D01*
X143696170Y-115337268D01*
X143513765Y-115434766D01*
X143513762Y-115434767D01*
X143315836Y-115494807D01*
X143238707Y-115502404D01*
X143161580Y-115510000D01*
X143058420Y-115510000D01*
X142981293Y-115502404D01*
X142904164Y-115494807D01*
X142706238Y-115434767D01*
X142706235Y-115434766D01*
X142523830Y-115337268D01*
X142363945Y-115206055D01*
X142232732Y-115046170D01*
X142135234Y-114863765D01*
X142135233Y-114863762D01*
X142075193Y-114665836D01*
X142054920Y-114460000D01*
X142075193Y-114254164D01*
X142135233Y-114056238D01*
X142135234Y-114056235D01*
X142232732Y-113873830D01*
X142363945Y-113713945D01*
X142523830Y-113582732D01*
X142706235Y-113485234D01*
X142706238Y-113485233D01*
X142904164Y-113425193D01*
X142981293Y-113417597D01*
X143058420Y-113410000D01*
X143161580Y-113410000D01*
X143238707Y-113417597D01*
X143238707Y-113417597D01*
G37*
G36*
X122918707Y-113417597D02*
G01*
X122995836Y-113425193D01*
X123193762Y-113485233D01*
X123193765Y-113485234D01*
X123376170Y-113582732D01*
X123536055Y-113713945D01*
X123667268Y-113873830D01*
X123764766Y-114056235D01*
X123764767Y-114056238D01*
X123824807Y-114254164D01*
X123845080Y-114460000D01*
X123824807Y-114665836D01*
X123764767Y-114863762D01*
X123764766Y-114863765D01*
X123667268Y-115046170D01*
X123536055Y-115206055D01*
X123376170Y-115337268D01*
X123193765Y-115434766D01*
X123193762Y-115434767D01*
X122995836Y-115494807D01*
X122918707Y-115502404D01*
X122841580Y-115510000D01*
X122738420Y-115510000D01*
X122661293Y-115502404D01*
X122584164Y-115494807D01*
X122386238Y-115434767D01*
X122386235Y-115434766D01*
X122203830Y-115337268D01*
X122043945Y-115206055D01*
X121912732Y-115046170D01*
X121815234Y-114863765D01*
X121815233Y-114863762D01*
X121755193Y-114665836D01*
X121734920Y-114460000D01*
X121755193Y-114254164D01*
X121815233Y-114056238D01*
X121815234Y-114056235D01*
X121912732Y-113873830D01*
X122043945Y-113713945D01*
X122203830Y-113582732D01*
X122386235Y-113485234D01*
X122386238Y-113485233D01*
X122584164Y-113425193D01*
X122661293Y-113417597D01*
X122738420Y-113410000D01*
X122841580Y-113410000D01*
X122918707Y-113417597D01*
X122918707Y-113417597D01*
G37*
G36*
X155938707Y-113417597D02*
G01*
X156015836Y-113425193D01*
X156213762Y-113485233D01*
X156213765Y-113485234D01*
X156396170Y-113582732D01*
X156556055Y-113713945D01*
X156687268Y-113873830D01*
X156784766Y-114056235D01*
X156784767Y-114056238D01*
X156844807Y-114254164D01*
X156865080Y-114460000D01*
X156844807Y-114665836D01*
X156784767Y-114863762D01*
X156784766Y-114863765D01*
X156687268Y-115046170D01*
X156556055Y-115206055D01*
X156396170Y-115337268D01*
X156213765Y-115434766D01*
X156213762Y-115434767D01*
X156015836Y-115494807D01*
X155938707Y-115502404D01*
X155861580Y-115510000D01*
X155758420Y-115510000D01*
X155681293Y-115502404D01*
X155604164Y-115494807D01*
X155406238Y-115434767D01*
X155406235Y-115434766D01*
X155223830Y-115337268D01*
X155063945Y-115206055D01*
X154932732Y-115046170D01*
X154835234Y-114863765D01*
X154835233Y-114863762D01*
X154775193Y-114665836D01*
X154754920Y-114460000D01*
X154775193Y-114254164D01*
X154835233Y-114056238D01*
X154835234Y-114056235D01*
X154932732Y-113873830D01*
X155063945Y-113713945D01*
X155223830Y-113582732D01*
X155406235Y-113485234D01*
X155406238Y-113485233D01*
X155604164Y-113425193D01*
X155681293Y-113417597D01*
X155758420Y-113410000D01*
X155861580Y-113410000D01*
X155938707Y-113417597D01*
X155938707Y-113417597D01*
G37*
G36*
X173718707Y-113417597D02*
G01*
X173795836Y-113425193D01*
X173993762Y-113485233D01*
X173993765Y-113485234D01*
X174176170Y-113582732D01*
X174336055Y-113713945D01*
X174467268Y-113873830D01*
X174564766Y-114056235D01*
X174564767Y-114056238D01*
X174624807Y-114254164D01*
X174645080Y-114460000D01*
X174624807Y-114665836D01*
X174564767Y-114863762D01*
X174564766Y-114863765D01*
X174467268Y-115046170D01*
X174336055Y-115206055D01*
X174176170Y-115337268D01*
X173993765Y-115434766D01*
X173993762Y-115434767D01*
X173795836Y-115494807D01*
X173718707Y-115502404D01*
X173641580Y-115510000D01*
X173538420Y-115510000D01*
X173461293Y-115502404D01*
X173384164Y-115494807D01*
X173186238Y-115434767D01*
X173186235Y-115434766D01*
X173003830Y-115337268D01*
X172843945Y-115206055D01*
X172712732Y-115046170D01*
X172615234Y-114863765D01*
X172615233Y-114863762D01*
X172555193Y-114665836D01*
X172534920Y-114460000D01*
X172555193Y-114254164D01*
X172615233Y-114056238D01*
X172615234Y-114056235D01*
X172712732Y-113873830D01*
X172843945Y-113713945D01*
X173003830Y-113582732D01*
X173186235Y-113485234D01*
X173186238Y-113485233D01*
X173384164Y-113425193D01*
X173461293Y-113417597D01*
X173538420Y-113410000D01*
X173641580Y-113410000D01*
X173718707Y-113417597D01*
X173718707Y-113417597D01*
G37*
G36*
X171178707Y-113417597D02*
G01*
X171255836Y-113425193D01*
X171453762Y-113485233D01*
X171453765Y-113485234D01*
X171636170Y-113582732D01*
X171796055Y-113713945D01*
X171927268Y-113873830D01*
X172024766Y-114056235D01*
X172024767Y-114056238D01*
X172084807Y-114254164D01*
X172105080Y-114460000D01*
X172084807Y-114665836D01*
X172024767Y-114863762D01*
X172024766Y-114863765D01*
X171927268Y-115046170D01*
X171796055Y-115206055D01*
X171636170Y-115337268D01*
X171453765Y-115434766D01*
X171453762Y-115434767D01*
X171255836Y-115494807D01*
X171178707Y-115502404D01*
X171101580Y-115510000D01*
X170998420Y-115510000D01*
X170921293Y-115502404D01*
X170844164Y-115494807D01*
X170646238Y-115434767D01*
X170646235Y-115434766D01*
X170463830Y-115337268D01*
X170303945Y-115206055D01*
X170172732Y-115046170D01*
X170075234Y-114863765D01*
X170075233Y-114863762D01*
X170015193Y-114665836D01*
X169994920Y-114460000D01*
X170015193Y-114254164D01*
X170075233Y-114056238D01*
X170075234Y-114056235D01*
X170172732Y-113873830D01*
X170303945Y-113713945D01*
X170463830Y-113582732D01*
X170646235Y-113485234D01*
X170646238Y-113485233D01*
X170844164Y-113425193D01*
X170921293Y-113417597D01*
X170998420Y-113410000D01*
X171101580Y-113410000D01*
X171178707Y-113417597D01*
X171178707Y-113417597D01*
G37*
G36*
X194979222Y-107596073D02*
G01*
X195434192Y-107784528D01*
X195434194Y-107784529D01*
X195479448Y-107814767D01*
X195843656Y-108058123D01*
X196191877Y-108406344D01*
X196465472Y-108815808D01*
X196653927Y-109270778D01*
X196750000Y-109753770D01*
X196750000Y-110246230D01*
X196653927Y-110729222D01*
X196465472Y-111184192D01*
X196465471Y-111184194D01*
X196191876Y-111593657D01*
X195843657Y-111941876D01*
X195434194Y-112215471D01*
X195434193Y-112215472D01*
X195434192Y-112215472D01*
X194979222Y-112403927D01*
X194496230Y-112500000D01*
X194003770Y-112500000D01*
X193520778Y-112403927D01*
X193065808Y-112215472D01*
X193065807Y-112215472D01*
X193065806Y-112215471D01*
X192656343Y-111941876D01*
X192308124Y-111593657D01*
X192034529Y-111184194D01*
X192034528Y-111184192D01*
X191846073Y-110729222D01*
X191750000Y-110246230D01*
X191750000Y-109753770D01*
X191846073Y-109270778D01*
X192034528Y-108815808D01*
X192308123Y-108406344D01*
X192656344Y-108058123D01*
X193020552Y-107814767D01*
X193065806Y-107784529D01*
X193065808Y-107784528D01*
X193520778Y-107596073D01*
X194003770Y-107500000D01*
X194496230Y-107500000D01*
X194979222Y-107596073D01*
X194979222Y-107596073D01*
G37*
G36*
X139080000Y-110430000D02*
G01*
X136980000Y-110430000D01*
X136980000Y-108330000D01*
X139080000Y-108330000D01*
X139080000Y-110430000D01*
X139080000Y-110430000D01*
G37*
G36*
X146700000Y-110430000D02*
G01*
X144600000Y-110430000D01*
X144600000Y-108330000D01*
X146700000Y-108330000D01*
X146700000Y-110430000D01*
X146700000Y-110430000D01*
G37*
G36*
X141620000Y-110430000D02*
G01*
X139520000Y-110430000D01*
X139520000Y-108330000D01*
X141620000Y-108330000D01*
X141620000Y-110430000D01*
X141620000Y-110430000D01*
G37*
G36*
X144160000Y-110430000D02*
G01*
X142060000Y-110430000D01*
X142060000Y-108330000D01*
X144160000Y-108330000D01*
X144160000Y-110430000D01*
X144160000Y-110430000D01*
G37*
G36*
X140698707Y-105797597D02*
G01*
X140775836Y-105805193D01*
X140973762Y-105865233D01*
X140973765Y-105865234D01*
X141156170Y-105962732D01*
X141316055Y-106093945D01*
X141447268Y-106253830D01*
X141544766Y-106436235D01*
X141544767Y-106436238D01*
X141604807Y-106634164D01*
X141625080Y-106840000D01*
X141604807Y-107045836D01*
X141544767Y-107243762D01*
X141544766Y-107243765D01*
X141447268Y-107426170D01*
X141316055Y-107586055D01*
X141156170Y-107717268D01*
X140973765Y-107814766D01*
X140973762Y-107814767D01*
X140775836Y-107874807D01*
X140698707Y-107882403D01*
X140621580Y-107890000D01*
X140518420Y-107890000D01*
X140441293Y-107882403D01*
X140364164Y-107874807D01*
X140166238Y-107814767D01*
X140166235Y-107814766D01*
X139983830Y-107717268D01*
X139823945Y-107586055D01*
X139692732Y-107426170D01*
X139595234Y-107243765D01*
X139595233Y-107243762D01*
X139535193Y-107045836D01*
X139514920Y-106840000D01*
X139535193Y-106634164D01*
X139595233Y-106436238D01*
X139595234Y-106436235D01*
X139692732Y-106253830D01*
X139823945Y-106093945D01*
X139983830Y-105962732D01*
X140166235Y-105865234D01*
X140166238Y-105865233D01*
X140364164Y-105805193D01*
X140441293Y-105797597D01*
X140518420Y-105790000D01*
X140621580Y-105790000D01*
X140698707Y-105797597D01*
X140698707Y-105797597D01*
G37*
G36*
X145778707Y-105797597D02*
G01*
X145855836Y-105805193D01*
X146053762Y-105865233D01*
X146053765Y-105865234D01*
X146236170Y-105962732D01*
X146396055Y-106093945D01*
X146527268Y-106253830D01*
X146624766Y-106436235D01*
X146624767Y-106436238D01*
X146684807Y-106634164D01*
X146705080Y-106840000D01*
X146684807Y-107045836D01*
X146624767Y-107243762D01*
X146624766Y-107243765D01*
X146527268Y-107426170D01*
X146396055Y-107586055D01*
X146236170Y-107717268D01*
X146053765Y-107814766D01*
X146053762Y-107814767D01*
X145855836Y-107874807D01*
X145778707Y-107882403D01*
X145701580Y-107890000D01*
X145598420Y-107890000D01*
X145521293Y-107882403D01*
X145444164Y-107874807D01*
X145246238Y-107814767D01*
X145246235Y-107814766D01*
X145063830Y-107717268D01*
X144903945Y-107586055D01*
X144772732Y-107426170D01*
X144675234Y-107243765D01*
X144675233Y-107243762D01*
X144615193Y-107045836D01*
X144594920Y-106840000D01*
X144615193Y-106634164D01*
X144675233Y-106436238D01*
X144675234Y-106436235D01*
X144772732Y-106253830D01*
X144903945Y-106093945D01*
X145063830Y-105962732D01*
X145246235Y-105865234D01*
X145246238Y-105865233D01*
X145444164Y-105805193D01*
X145521293Y-105797597D01*
X145598420Y-105790000D01*
X145701580Y-105790000D01*
X145778707Y-105797597D01*
X145778707Y-105797597D01*
G37*
G36*
X138158707Y-105797597D02*
G01*
X138235836Y-105805193D01*
X138433762Y-105865233D01*
X138433765Y-105865234D01*
X138616170Y-105962732D01*
X138776055Y-106093945D01*
X138907268Y-106253830D01*
X139004766Y-106436235D01*
X139004767Y-106436238D01*
X139064807Y-106634164D01*
X139085080Y-106840000D01*
X139064807Y-107045836D01*
X139004767Y-107243762D01*
X139004766Y-107243765D01*
X138907268Y-107426170D01*
X138776055Y-107586055D01*
X138616170Y-107717268D01*
X138433765Y-107814766D01*
X138433762Y-107814767D01*
X138235836Y-107874807D01*
X138158707Y-107882403D01*
X138081580Y-107890000D01*
X137978420Y-107890000D01*
X137901293Y-107882403D01*
X137824164Y-107874807D01*
X137626238Y-107814767D01*
X137626235Y-107814766D01*
X137443830Y-107717268D01*
X137283945Y-107586055D01*
X137152732Y-107426170D01*
X137055234Y-107243765D01*
X137055233Y-107243762D01*
X136995193Y-107045836D01*
X136974920Y-106840000D01*
X136995193Y-106634164D01*
X137055233Y-106436238D01*
X137055234Y-106436235D01*
X137152732Y-106253830D01*
X137283945Y-106093945D01*
X137443830Y-105962732D01*
X137626235Y-105865234D01*
X137626238Y-105865233D01*
X137824164Y-105805193D01*
X137901293Y-105797597D01*
X137978420Y-105790000D01*
X138081580Y-105790000D01*
X138158707Y-105797597D01*
X138158707Y-105797597D01*
G37*
G36*
X143238707Y-105797597D02*
G01*
X143315836Y-105805193D01*
X143513762Y-105865233D01*
X143513765Y-105865234D01*
X143696170Y-105962732D01*
X143856055Y-106093945D01*
X143987268Y-106253830D01*
X144084766Y-106436235D01*
X144084767Y-106436238D01*
X144144807Y-106634164D01*
X144165080Y-106840000D01*
X144144807Y-107045836D01*
X144084767Y-107243762D01*
X144084766Y-107243765D01*
X143987268Y-107426170D01*
X143856055Y-107586055D01*
X143696170Y-107717268D01*
X143513765Y-107814766D01*
X143513762Y-107814767D01*
X143315836Y-107874807D01*
X143238707Y-107882403D01*
X143161580Y-107890000D01*
X143058420Y-107890000D01*
X142981293Y-107882403D01*
X142904164Y-107874807D01*
X142706238Y-107814767D01*
X142706235Y-107814766D01*
X142523830Y-107717268D01*
X142363945Y-107586055D01*
X142232732Y-107426170D01*
X142135234Y-107243765D01*
X142135233Y-107243762D01*
X142075193Y-107045836D01*
X142054920Y-106840000D01*
X142075193Y-106634164D01*
X142135233Y-106436238D01*
X142135234Y-106436235D01*
X142232732Y-106253830D01*
X142363945Y-106093945D01*
X142523830Y-105962732D01*
X142706235Y-105865234D01*
X142706238Y-105865233D01*
X142904164Y-105805193D01*
X142981293Y-105797597D01*
X143058420Y-105790000D01*
X143161580Y-105790000D01*
X143238707Y-105797597D01*
X143238707Y-105797597D01*
G37*
G36*
X145778707Y-103257597D02*
G01*
X145855836Y-103265193D01*
X146053762Y-103325233D01*
X146053765Y-103325234D01*
X146236170Y-103422732D01*
X146396055Y-103553945D01*
X146527268Y-103713830D01*
X146624766Y-103896235D01*
X146624767Y-103896238D01*
X146684807Y-104094164D01*
X146705080Y-104300000D01*
X146684807Y-104505836D01*
X146624767Y-104703762D01*
X146624766Y-104703765D01*
X146527268Y-104886170D01*
X146396055Y-105046055D01*
X146236170Y-105177268D01*
X146053765Y-105274766D01*
X146053762Y-105274767D01*
X145855836Y-105334807D01*
X145778707Y-105342403D01*
X145701580Y-105350000D01*
X145598420Y-105350000D01*
X145521293Y-105342404D01*
X145444164Y-105334807D01*
X145246238Y-105274767D01*
X145246235Y-105274766D01*
X145063830Y-105177268D01*
X144903945Y-105046055D01*
X144772732Y-104886170D01*
X144675234Y-104703765D01*
X144675233Y-104703762D01*
X144615193Y-104505836D01*
X144594920Y-104300000D01*
X144615193Y-104094164D01*
X144675233Y-103896238D01*
X144675234Y-103896235D01*
X144772732Y-103713830D01*
X144903945Y-103553945D01*
X145063830Y-103422732D01*
X145246235Y-103325234D01*
X145246238Y-103325233D01*
X145444164Y-103265193D01*
X145521293Y-103257596D01*
X145598420Y-103250000D01*
X145701580Y-103250000D01*
X145778707Y-103257597D01*
X145778707Y-103257597D01*
G37*
G36*
X143238707Y-103257597D02*
G01*
X143315836Y-103265193D01*
X143513762Y-103325233D01*
X143513765Y-103325234D01*
X143696170Y-103422732D01*
X143856055Y-103553945D01*
X143987268Y-103713830D01*
X144084766Y-103896235D01*
X144084767Y-103896238D01*
X144144807Y-104094164D01*
X144165080Y-104300000D01*
X144144807Y-104505836D01*
X144084767Y-104703762D01*
X144084766Y-104703765D01*
X143987268Y-104886170D01*
X143856055Y-105046055D01*
X143696170Y-105177268D01*
X143513765Y-105274766D01*
X143513762Y-105274767D01*
X143315836Y-105334807D01*
X143238707Y-105342403D01*
X143161580Y-105350000D01*
X143058420Y-105350000D01*
X142981293Y-105342404D01*
X142904164Y-105334807D01*
X142706238Y-105274767D01*
X142706235Y-105274766D01*
X142523830Y-105177268D01*
X142363945Y-105046055D01*
X142232732Y-104886170D01*
X142135234Y-104703765D01*
X142135233Y-104703762D01*
X142075193Y-104505836D01*
X142054920Y-104300000D01*
X142075193Y-104094164D01*
X142135233Y-103896238D01*
X142135234Y-103896235D01*
X142232732Y-103713830D01*
X142363945Y-103553945D01*
X142523830Y-103422732D01*
X142706235Y-103325234D01*
X142706238Y-103325233D01*
X142904164Y-103265193D01*
X142981293Y-103257596D01*
X143058420Y-103250000D01*
X143161580Y-103250000D01*
X143238707Y-103257597D01*
X143238707Y-103257597D01*
G37*
G36*
X140698707Y-103257597D02*
G01*
X140775836Y-103265193D01*
X140973762Y-103325233D01*
X140973765Y-103325234D01*
X141156170Y-103422732D01*
X141316055Y-103553945D01*
X141447268Y-103713830D01*
X141544766Y-103896235D01*
X141544767Y-103896238D01*
X141604807Y-104094164D01*
X141625080Y-104300000D01*
X141604807Y-104505836D01*
X141544767Y-104703762D01*
X141544766Y-104703765D01*
X141447268Y-104886170D01*
X141316055Y-105046055D01*
X141156170Y-105177268D01*
X140973765Y-105274766D01*
X140973762Y-105274767D01*
X140775836Y-105334807D01*
X140698707Y-105342403D01*
X140621580Y-105350000D01*
X140518420Y-105350000D01*
X140441293Y-105342404D01*
X140364164Y-105334807D01*
X140166238Y-105274767D01*
X140166235Y-105274766D01*
X139983830Y-105177268D01*
X139823945Y-105046055D01*
X139692732Y-104886170D01*
X139595234Y-104703765D01*
X139595233Y-104703762D01*
X139535193Y-104505836D01*
X139514920Y-104300000D01*
X139535193Y-104094164D01*
X139595233Y-103896238D01*
X139595234Y-103896235D01*
X139692732Y-103713830D01*
X139823945Y-103553945D01*
X139983830Y-103422732D01*
X140166235Y-103325234D01*
X140166238Y-103325233D01*
X140364164Y-103265193D01*
X140441293Y-103257596D01*
X140518420Y-103250000D01*
X140621580Y-103250000D01*
X140698707Y-103257597D01*
X140698707Y-103257597D01*
G37*
G36*
X138158707Y-103257597D02*
G01*
X138235836Y-103265193D01*
X138433762Y-103325233D01*
X138433765Y-103325234D01*
X138616170Y-103422732D01*
X138776055Y-103553945D01*
X138907268Y-103713830D01*
X139004766Y-103896235D01*
X139004767Y-103896238D01*
X139064807Y-104094164D01*
X139085080Y-104300000D01*
X139064807Y-104505836D01*
X139004767Y-104703762D01*
X139004766Y-104703765D01*
X138907268Y-104886170D01*
X138776055Y-105046055D01*
X138616170Y-105177268D01*
X138433765Y-105274766D01*
X138433762Y-105274767D01*
X138235836Y-105334807D01*
X138158707Y-105342403D01*
X138081580Y-105350000D01*
X137978420Y-105350000D01*
X137901293Y-105342404D01*
X137824164Y-105334807D01*
X137626238Y-105274767D01*
X137626235Y-105274766D01*
X137443830Y-105177268D01*
X137283945Y-105046055D01*
X137152732Y-104886170D01*
X137055234Y-104703765D01*
X137055233Y-104703762D01*
X136995193Y-104505836D01*
X136974920Y-104300000D01*
X136995193Y-104094164D01*
X137055233Y-103896238D01*
X137055234Y-103896235D01*
X137152732Y-103713830D01*
X137283945Y-103553945D01*
X137443830Y-103422732D01*
X137626235Y-103325234D01*
X137626238Y-103325233D01*
X137824164Y-103265193D01*
X137901293Y-103257596D01*
X137978420Y-103250000D01*
X138081580Y-103250000D01*
X138158707Y-103257597D01*
X138158707Y-103257597D01*
G37*
G36*
X140698707Y-98177596D02*
G01*
X140775836Y-98185193D01*
X140973762Y-98245233D01*
X140973765Y-98245234D01*
X141156170Y-98342732D01*
X141316055Y-98473945D01*
X141447268Y-98633830D01*
X141544766Y-98816235D01*
X141544767Y-98816238D01*
X141604807Y-99014164D01*
X141625080Y-99220000D01*
X141604807Y-99425836D01*
X141544767Y-99623762D01*
X141544766Y-99623765D01*
X141447268Y-99806170D01*
X141316055Y-99966055D01*
X141156170Y-100097268D01*
X140973765Y-100194766D01*
X140973762Y-100194767D01*
X140775836Y-100254807D01*
X140698707Y-100262404D01*
X140621580Y-100270000D01*
X140518420Y-100270000D01*
X140441293Y-100262404D01*
X140364164Y-100254807D01*
X140166238Y-100194767D01*
X140166235Y-100194766D01*
X139983830Y-100097268D01*
X139823945Y-99966055D01*
X139692732Y-99806170D01*
X139595234Y-99623765D01*
X139595233Y-99623762D01*
X139535193Y-99425836D01*
X139514920Y-99220000D01*
X139535193Y-99014164D01*
X139595233Y-98816238D01*
X139595234Y-98816235D01*
X139692732Y-98633830D01*
X139823945Y-98473945D01*
X139983830Y-98342732D01*
X140166235Y-98245234D01*
X140166238Y-98245233D01*
X140364164Y-98185193D01*
X140441293Y-98177597D01*
X140518420Y-98170000D01*
X140621580Y-98170000D01*
X140698707Y-98177596D01*
X140698707Y-98177596D01*
G37*
G36*
X145778707Y-98177596D02*
G01*
X145855836Y-98185193D01*
X146053762Y-98245233D01*
X146053765Y-98245234D01*
X146236170Y-98342732D01*
X146396055Y-98473945D01*
X146527268Y-98633830D01*
X146624766Y-98816235D01*
X146624767Y-98816238D01*
X146684807Y-99014164D01*
X146705080Y-99220000D01*
X146684807Y-99425836D01*
X146624767Y-99623762D01*
X146624766Y-99623765D01*
X146527268Y-99806170D01*
X146396055Y-99966055D01*
X146236170Y-100097268D01*
X146053765Y-100194766D01*
X146053762Y-100194767D01*
X145855836Y-100254807D01*
X145778707Y-100262404D01*
X145701580Y-100270000D01*
X145598420Y-100270000D01*
X145521293Y-100262404D01*
X145444164Y-100254807D01*
X145246238Y-100194767D01*
X145246235Y-100194766D01*
X145063830Y-100097268D01*
X144903945Y-99966055D01*
X144772732Y-99806170D01*
X144675234Y-99623765D01*
X144675233Y-99623762D01*
X144615193Y-99425836D01*
X144594920Y-99220000D01*
X144615193Y-99014164D01*
X144675233Y-98816238D01*
X144675234Y-98816235D01*
X144772732Y-98633830D01*
X144903945Y-98473945D01*
X145063830Y-98342732D01*
X145246235Y-98245234D01*
X145246238Y-98245233D01*
X145444164Y-98185193D01*
X145521293Y-98177597D01*
X145598420Y-98170000D01*
X145701580Y-98170000D01*
X145778707Y-98177596D01*
X145778707Y-98177596D01*
G37*
G36*
X143238707Y-98177596D02*
G01*
X143315836Y-98185193D01*
X143513762Y-98245233D01*
X143513765Y-98245234D01*
X143696170Y-98342732D01*
X143856055Y-98473945D01*
X143987268Y-98633830D01*
X144084766Y-98816235D01*
X144084767Y-98816238D01*
X144144807Y-99014164D01*
X144165080Y-99220000D01*
X144144807Y-99425836D01*
X144084767Y-99623762D01*
X144084766Y-99623765D01*
X143987268Y-99806170D01*
X143856055Y-99966055D01*
X143696170Y-100097268D01*
X143513765Y-100194766D01*
X143513762Y-100194767D01*
X143315836Y-100254807D01*
X143238707Y-100262404D01*
X143161580Y-100270000D01*
X143058420Y-100270000D01*
X142981293Y-100262404D01*
X142904164Y-100254807D01*
X142706238Y-100194767D01*
X142706235Y-100194766D01*
X142523830Y-100097268D01*
X142363945Y-99966055D01*
X142232732Y-99806170D01*
X142135234Y-99623765D01*
X142135233Y-99623762D01*
X142075193Y-99425836D01*
X142054920Y-99220000D01*
X142075193Y-99014164D01*
X142135233Y-98816238D01*
X142135234Y-98816235D01*
X142232732Y-98633830D01*
X142363945Y-98473945D01*
X142523830Y-98342732D01*
X142706235Y-98245234D01*
X142706238Y-98245233D01*
X142904164Y-98185193D01*
X142981293Y-98177597D01*
X143058420Y-98170000D01*
X143161580Y-98170000D01*
X143238707Y-98177596D01*
X143238707Y-98177596D01*
G37*
G36*
X136540000Y-100270000D02*
G01*
X134440000Y-100270000D01*
X134440000Y-98170000D01*
X136540000Y-98170000D01*
X136540000Y-100270000D01*
X136540000Y-100270000D01*
G37*
G36*
X138158707Y-98177596D02*
G01*
X138235836Y-98185193D01*
X138433762Y-98245233D01*
X138433765Y-98245234D01*
X138616170Y-98342732D01*
X138776055Y-98473945D01*
X138907268Y-98633830D01*
X139004766Y-98816235D01*
X139004767Y-98816238D01*
X139064807Y-99014164D01*
X139085080Y-99220000D01*
X139064807Y-99425836D01*
X139004767Y-99623762D01*
X139004766Y-99623765D01*
X138907268Y-99806170D01*
X138776055Y-99966055D01*
X138616170Y-100097268D01*
X138433765Y-100194766D01*
X138433762Y-100194767D01*
X138235836Y-100254807D01*
X138158707Y-100262404D01*
X138081580Y-100270000D01*
X137978420Y-100270000D01*
X137901293Y-100262404D01*
X137824164Y-100254807D01*
X137626238Y-100194767D01*
X137626235Y-100194766D01*
X137443830Y-100097268D01*
X137283945Y-99966055D01*
X137152732Y-99806170D01*
X137055234Y-99623765D01*
X137055233Y-99623762D01*
X136995193Y-99425836D01*
X136974920Y-99220000D01*
X136995193Y-99014164D01*
X137055233Y-98816238D01*
X137055234Y-98816235D01*
X137152732Y-98633830D01*
X137283945Y-98473945D01*
X137443830Y-98342732D01*
X137626235Y-98245234D01*
X137626238Y-98245233D01*
X137824164Y-98185193D01*
X137901293Y-98177597D01*
X137978420Y-98170000D01*
X138081580Y-98170000D01*
X138158707Y-98177596D01*
X138158707Y-98177596D01*
G37*
G36*
X146413707Y-81667596D02*
G01*
X146490836Y-81675193D01*
X146688762Y-81735233D01*
X146688765Y-81735234D01*
X146871170Y-81832732D01*
X147031055Y-81963945D01*
X147162268Y-82123830D01*
X147259766Y-82306235D01*
X147259767Y-82306238D01*
X147319807Y-82504164D01*
X147340080Y-82710000D01*
X147319807Y-82915836D01*
X147259767Y-83113762D01*
X147259766Y-83113765D01*
X147162268Y-83296170D01*
X147031055Y-83456055D01*
X146871170Y-83587268D01*
X146688765Y-83684766D01*
X146688762Y-83684767D01*
X146490836Y-83744807D01*
X146413707Y-83752403D01*
X146336580Y-83760000D01*
X146233420Y-83760000D01*
X146156293Y-83752403D01*
X146079164Y-83744807D01*
X145881238Y-83684767D01*
X145881235Y-83684766D01*
X145698830Y-83587268D01*
X145538945Y-83456055D01*
X145407732Y-83296170D01*
X145310234Y-83113765D01*
X145310233Y-83113762D01*
X145250193Y-82915836D01*
X145229920Y-82710000D01*
X145250193Y-82504164D01*
X145310233Y-82306238D01*
X145310234Y-82306235D01*
X145407732Y-82123830D01*
X145538945Y-81963945D01*
X145698830Y-81832732D01*
X145881235Y-81735234D01*
X145881238Y-81735233D01*
X146079164Y-81675193D01*
X146156293Y-81667596D01*
X146233420Y-81660000D01*
X146336580Y-81660000D01*
X146413707Y-81667596D01*
X146413707Y-81667596D01*
G37*
G36*
X146413707Y-79127597D02*
G01*
X146490836Y-79135193D01*
X146688762Y-79195233D01*
X146688765Y-79195234D01*
X146871170Y-79292732D01*
X147031055Y-79423945D01*
X147162268Y-79583830D01*
X147259766Y-79766235D01*
X147259767Y-79766238D01*
X147319807Y-79964164D01*
X147340080Y-80170000D01*
X147319807Y-80375836D01*
X147259767Y-80573762D01*
X147259766Y-80573765D01*
X147162268Y-80756170D01*
X147031055Y-80916055D01*
X146871170Y-81047268D01*
X146688765Y-81144766D01*
X146688762Y-81144767D01*
X146490836Y-81204807D01*
X146413707Y-81212404D01*
X146336580Y-81220000D01*
X146233420Y-81220000D01*
X146156293Y-81212404D01*
X146079164Y-81204807D01*
X145881238Y-81144767D01*
X145881235Y-81144766D01*
X145698830Y-81047268D01*
X145538945Y-80916055D01*
X145407732Y-80756170D01*
X145310234Y-80573765D01*
X145310233Y-80573762D01*
X145250193Y-80375836D01*
X145229920Y-80170000D01*
X145250193Y-79964164D01*
X145310233Y-79766238D01*
X145310234Y-79766235D01*
X145407732Y-79583830D01*
X145538945Y-79423945D01*
X145698830Y-79292732D01*
X145881235Y-79195234D01*
X145881238Y-79195233D01*
X146079164Y-79135193D01*
X146156293Y-79127597D01*
X146233420Y-79120000D01*
X146336580Y-79120000D01*
X146413707Y-79127597D01*
X146413707Y-79127597D01*
G37*
G36*
X146413707Y-76587597D02*
G01*
X146490836Y-76595193D01*
X146688762Y-76655233D01*
X146688765Y-76655234D01*
X146871170Y-76752732D01*
X147031055Y-76883945D01*
X147162268Y-77043830D01*
X147259766Y-77226235D01*
X147259767Y-77226238D01*
X147319807Y-77424164D01*
X147340080Y-77630000D01*
X147319807Y-77835836D01*
X147259767Y-78033762D01*
X147259766Y-78033765D01*
X147162268Y-78216170D01*
X147031055Y-78376055D01*
X146871170Y-78507268D01*
X146688765Y-78604766D01*
X146688762Y-78604767D01*
X146490836Y-78664807D01*
X146413707Y-78672403D01*
X146336580Y-78680000D01*
X146233420Y-78680000D01*
X146156293Y-78672403D01*
X146079164Y-78664807D01*
X145881238Y-78604767D01*
X145881235Y-78604766D01*
X145698830Y-78507268D01*
X145538945Y-78376055D01*
X145407732Y-78216170D01*
X145310234Y-78033765D01*
X145310233Y-78033762D01*
X145250193Y-77835836D01*
X145229920Y-77630000D01*
X145250193Y-77424164D01*
X145310233Y-77226238D01*
X145310234Y-77226235D01*
X145407732Y-77043830D01*
X145538945Y-76883945D01*
X145698830Y-76752732D01*
X145881235Y-76655234D01*
X145881238Y-76655233D01*
X146079164Y-76595193D01*
X146156293Y-76587597D01*
X146233420Y-76580000D01*
X146336580Y-76580000D01*
X146413707Y-76587597D01*
X146413707Y-76587597D01*
G37*
G36*
X146413707Y-74047597D02*
G01*
X146490836Y-74055193D01*
X146688762Y-74115233D01*
X146688765Y-74115234D01*
X146871170Y-74212732D01*
X147031055Y-74343945D01*
X147162268Y-74503830D01*
X147259766Y-74686235D01*
X147259767Y-74686238D01*
X147319807Y-74884164D01*
X147340080Y-75090000D01*
X147319807Y-75295836D01*
X147259767Y-75493762D01*
X147259766Y-75493765D01*
X147162268Y-75676170D01*
X147031055Y-75836055D01*
X146871170Y-75967268D01*
X146688765Y-76064766D01*
X146688762Y-76064767D01*
X146490836Y-76124807D01*
X146413707Y-76132404D01*
X146336580Y-76140000D01*
X146233420Y-76140000D01*
X146156293Y-76132404D01*
X146079164Y-76124807D01*
X145881238Y-76064767D01*
X145881235Y-76064766D01*
X145698830Y-75967268D01*
X145538945Y-75836055D01*
X145407732Y-75676170D01*
X145310234Y-75493765D01*
X145310233Y-75493762D01*
X145250193Y-75295836D01*
X145229920Y-75090000D01*
X145250193Y-74884164D01*
X145310233Y-74686238D01*
X145310234Y-74686235D01*
X145407732Y-74503830D01*
X145538945Y-74343945D01*
X145698830Y-74212732D01*
X145881235Y-74115234D01*
X145881238Y-74115233D01*
X146079164Y-74055193D01*
X146156293Y-74047597D01*
X146233420Y-74040000D01*
X146336580Y-74040000D01*
X146413707Y-74047597D01*
X146413707Y-74047597D01*
G37*
G36*
X147335000Y-73600000D02*
G01*
X145235000Y-73600000D01*
X145235000Y-71500000D01*
X147335000Y-71500000D01*
X147335000Y-73600000D01*
X147335000Y-73600000D01*
G37*
G36*
X194979222Y-67596073D02*
G01*
X195411754Y-67775234D01*
X195434194Y-67784529D01*
X195566199Y-67872732D01*
X195843656Y-68058123D01*
X196191877Y-68406344D01*
X196465472Y-68815808D01*
X196653927Y-69270778D01*
X196750000Y-69753770D01*
X196750000Y-70246230D01*
X196653927Y-70729222D01*
X196465472Y-71184192D01*
X196465471Y-71184194D01*
X196191876Y-71593657D01*
X195843657Y-71941876D01*
X195434194Y-72215471D01*
X195434193Y-72215472D01*
X195434192Y-72215472D01*
X194979222Y-72403927D01*
X194496230Y-72500000D01*
X194003770Y-72500000D01*
X193520778Y-72403927D01*
X193065808Y-72215472D01*
X193065807Y-72215472D01*
X193065806Y-72215471D01*
X192656343Y-71941876D01*
X192308124Y-71593657D01*
X192034529Y-71184194D01*
X192034528Y-71184192D01*
X191846073Y-70729222D01*
X191750000Y-70246230D01*
X191750000Y-69753770D01*
X191846073Y-69270778D01*
X192034528Y-68815808D01*
X192308123Y-68406344D01*
X192656344Y-68058123D01*
X192933801Y-67872732D01*
X193065806Y-67784529D01*
X193088246Y-67775234D01*
X193520778Y-67596073D01*
X194003770Y-67500000D01*
X194496230Y-67500000D01*
X194979222Y-67596073D01*
X194979222Y-67596073D01*
G37*
G36*
X161018707Y-67707596D02*
G01*
X161095836Y-67715193D01*
X161293762Y-67775233D01*
X161293765Y-67775234D01*
X161476170Y-67872732D01*
X161636055Y-68003945D01*
X161767268Y-68163830D01*
X161864766Y-68346235D01*
X161864767Y-68346238D01*
X161924807Y-68544164D01*
X161945080Y-68750000D01*
X161924807Y-68955836D01*
X161864767Y-69153762D01*
X161864766Y-69153765D01*
X161767268Y-69336170D01*
X161636055Y-69496055D01*
X161476170Y-69627268D01*
X161293765Y-69724766D01*
X161293762Y-69724767D01*
X161095836Y-69784807D01*
X161018707Y-69792404D01*
X160941580Y-69800000D01*
X160838420Y-69800000D01*
X160761293Y-69792404D01*
X160684164Y-69784807D01*
X160486238Y-69724767D01*
X160486235Y-69724766D01*
X160303830Y-69627268D01*
X160143945Y-69496055D01*
X160012732Y-69336170D01*
X159915234Y-69153765D01*
X159915233Y-69153762D01*
X159855193Y-68955836D01*
X159834920Y-68750000D01*
X159855193Y-68544164D01*
X159915233Y-68346238D01*
X159915234Y-68346235D01*
X160012732Y-68163830D01*
X160143945Y-68003945D01*
X160303830Y-67872732D01*
X160486235Y-67775234D01*
X160486238Y-67775233D01*
X160684164Y-67715193D01*
X160761293Y-67707596D01*
X160838420Y-67700000D01*
X160941580Y-67700000D01*
X161018707Y-67707596D01*
X161018707Y-67707596D01*
G37*
G36*
X163558707Y-67707596D02*
G01*
X163635836Y-67715193D01*
X163833762Y-67775233D01*
X163833765Y-67775234D01*
X164016170Y-67872732D01*
X164176055Y-68003945D01*
X164307268Y-68163830D01*
X164404766Y-68346235D01*
X164404767Y-68346238D01*
X164464807Y-68544164D01*
X164485080Y-68750000D01*
X164464807Y-68955836D01*
X164404767Y-69153762D01*
X164404766Y-69153765D01*
X164307268Y-69336170D01*
X164176055Y-69496055D01*
X164016170Y-69627268D01*
X163833765Y-69724766D01*
X163833762Y-69724767D01*
X163635836Y-69784807D01*
X163558707Y-69792404D01*
X163481580Y-69800000D01*
X163378420Y-69800000D01*
X163301293Y-69792404D01*
X163224164Y-69784807D01*
X163026238Y-69724767D01*
X163026235Y-69724766D01*
X162843830Y-69627268D01*
X162683945Y-69496055D01*
X162552732Y-69336170D01*
X162455234Y-69153765D01*
X162455233Y-69153762D01*
X162395193Y-68955836D01*
X162374920Y-68750000D01*
X162395193Y-68544164D01*
X162455233Y-68346238D01*
X162455234Y-68346235D01*
X162552732Y-68163830D01*
X162683945Y-68003945D01*
X162843830Y-67872732D01*
X163026235Y-67775234D01*
X163026238Y-67775233D01*
X163224164Y-67715193D01*
X163301293Y-67707596D01*
X163378420Y-67700000D01*
X163481580Y-67700000D01*
X163558707Y-67707596D01*
X163558707Y-67707596D01*
G37*
G36*
X166098707Y-67707596D02*
G01*
X166175836Y-67715193D01*
X166373762Y-67775233D01*
X166373765Y-67775234D01*
X166556170Y-67872732D01*
X166716055Y-68003945D01*
X166847268Y-68163830D01*
X166944766Y-68346235D01*
X166944767Y-68346238D01*
X167004807Y-68544164D01*
X167025080Y-68750000D01*
X167004807Y-68955836D01*
X166944767Y-69153762D01*
X166944766Y-69153765D01*
X166847268Y-69336170D01*
X166716055Y-69496055D01*
X166556170Y-69627268D01*
X166373765Y-69724766D01*
X166373762Y-69724767D01*
X166175836Y-69784807D01*
X166098707Y-69792404D01*
X166021580Y-69800000D01*
X165918420Y-69800000D01*
X165841293Y-69792404D01*
X165764164Y-69784807D01*
X165566238Y-69724767D01*
X165566235Y-69724766D01*
X165383830Y-69627268D01*
X165223945Y-69496055D01*
X165092732Y-69336170D01*
X164995234Y-69153765D01*
X164995233Y-69153762D01*
X164935193Y-68955836D01*
X164914920Y-68750000D01*
X164935193Y-68544164D01*
X164995233Y-68346238D01*
X164995234Y-68346235D01*
X165092732Y-68163830D01*
X165223945Y-68003945D01*
X165383830Y-67872732D01*
X165566235Y-67775234D01*
X165566238Y-67775233D01*
X165764164Y-67715193D01*
X165841293Y-67707596D01*
X165918420Y-67700000D01*
X166021580Y-67700000D01*
X166098707Y-67707596D01*
X166098707Y-67707596D01*
G37*
G36*
X158478707Y-67707596D02*
G01*
X158555836Y-67715193D01*
X158753762Y-67775233D01*
X158753765Y-67775234D01*
X158936170Y-67872732D01*
X159096055Y-68003945D01*
X159227268Y-68163830D01*
X159324766Y-68346235D01*
X159324767Y-68346238D01*
X159384807Y-68544164D01*
X159405080Y-68750000D01*
X159384807Y-68955836D01*
X159324767Y-69153762D01*
X159324766Y-69153765D01*
X159227268Y-69336170D01*
X159096055Y-69496055D01*
X158936170Y-69627268D01*
X158753765Y-69724766D01*
X158753762Y-69724767D01*
X158555836Y-69784807D01*
X158478707Y-69792404D01*
X158401580Y-69800000D01*
X158298420Y-69800000D01*
X158221293Y-69792404D01*
X158144164Y-69784807D01*
X157946238Y-69724767D01*
X157946235Y-69724766D01*
X157763830Y-69627268D01*
X157603945Y-69496055D01*
X157472732Y-69336170D01*
X157375234Y-69153765D01*
X157375233Y-69153762D01*
X157315193Y-68955836D01*
X157294920Y-68750000D01*
X157315193Y-68544164D01*
X157375233Y-68346238D01*
X157375234Y-68346235D01*
X157472732Y-68163830D01*
X157603945Y-68003945D01*
X157763830Y-67872732D01*
X157946235Y-67775234D01*
X157946238Y-67775233D01*
X158144164Y-67715193D01*
X158221293Y-67707596D01*
X158298420Y-67700000D01*
X158401580Y-67700000D01*
X158478707Y-67707596D01*
X158478707Y-67707596D01*
G37*
G36*
X168638707Y-67707596D02*
G01*
X168715836Y-67715193D01*
X168913762Y-67775233D01*
X168913765Y-67775234D01*
X169096170Y-67872732D01*
X169256055Y-68003945D01*
X169387268Y-68163830D01*
X169484766Y-68346235D01*
X169484767Y-68346238D01*
X169544807Y-68544164D01*
X169565080Y-68750000D01*
X169544807Y-68955836D01*
X169484767Y-69153762D01*
X169484766Y-69153765D01*
X169387268Y-69336170D01*
X169256055Y-69496055D01*
X169096170Y-69627268D01*
X168913765Y-69724766D01*
X168913762Y-69724767D01*
X168715836Y-69784807D01*
X168638707Y-69792404D01*
X168561580Y-69800000D01*
X168458420Y-69800000D01*
X168381293Y-69792404D01*
X168304164Y-69784807D01*
X168106238Y-69724767D01*
X168106235Y-69724766D01*
X167923830Y-69627268D01*
X167763945Y-69496055D01*
X167632732Y-69336170D01*
X167535234Y-69153765D01*
X167535233Y-69153762D01*
X167475193Y-68955836D01*
X167454920Y-68750000D01*
X167475193Y-68544164D01*
X167535233Y-68346238D01*
X167535234Y-68346235D01*
X167632732Y-68163830D01*
X167763945Y-68003945D01*
X167923830Y-67872732D01*
X168106235Y-67775234D01*
X168106238Y-67775233D01*
X168304164Y-67715193D01*
X168381293Y-67707596D01*
X168458420Y-67700000D01*
X168561580Y-67700000D01*
X168638707Y-67707596D01*
X168638707Y-67707596D01*
G37*
G36*
X171178707Y-67707596D02*
G01*
X171255836Y-67715193D01*
X171453762Y-67775233D01*
X171453765Y-67775234D01*
X171636170Y-67872732D01*
X171796055Y-68003945D01*
X171927268Y-68163830D01*
X172024766Y-68346235D01*
X172024767Y-68346238D01*
X172084807Y-68544164D01*
X172105080Y-68750000D01*
X172084807Y-68955836D01*
X172024767Y-69153762D01*
X172024766Y-69153765D01*
X171927268Y-69336170D01*
X171796055Y-69496055D01*
X171636170Y-69627268D01*
X171453765Y-69724766D01*
X171453762Y-69724767D01*
X171255836Y-69784807D01*
X171178707Y-69792404D01*
X171101580Y-69800000D01*
X170998420Y-69800000D01*
X170921293Y-69792404D01*
X170844164Y-69784807D01*
X170646238Y-69724767D01*
X170646235Y-69724766D01*
X170463830Y-69627268D01*
X170303945Y-69496055D01*
X170172732Y-69336170D01*
X170075234Y-69153765D01*
X170075233Y-69153762D01*
X170015193Y-68955836D01*
X169994920Y-68750000D01*
X170015193Y-68544164D01*
X170075233Y-68346238D01*
X170075234Y-68346235D01*
X170172732Y-68163830D01*
X170303945Y-68003945D01*
X170463830Y-67872732D01*
X170646235Y-67775234D01*
X170646238Y-67775233D01*
X170844164Y-67715193D01*
X170921293Y-67707596D01*
X170998420Y-67700000D01*
X171101580Y-67700000D01*
X171178707Y-67707596D01*
X171178707Y-67707596D01*
G37*
G36*
X155938707Y-67707596D02*
G01*
X156015836Y-67715193D01*
X156213762Y-67775233D01*
X156213765Y-67775234D01*
X156396170Y-67872732D01*
X156556055Y-68003945D01*
X156687268Y-68163830D01*
X156784766Y-68346235D01*
X156784767Y-68346238D01*
X156844807Y-68544164D01*
X156865080Y-68750000D01*
X156844807Y-68955836D01*
X156784767Y-69153762D01*
X156784766Y-69153765D01*
X156687268Y-69336170D01*
X156556055Y-69496055D01*
X156396170Y-69627268D01*
X156213765Y-69724766D01*
X156213762Y-69724767D01*
X156015836Y-69784807D01*
X155938707Y-69792404D01*
X155861580Y-69800000D01*
X155758420Y-69800000D01*
X155681293Y-69792404D01*
X155604164Y-69784807D01*
X155406238Y-69724767D01*
X155406235Y-69724766D01*
X155223830Y-69627268D01*
X155063945Y-69496055D01*
X154932732Y-69336170D01*
X154835234Y-69153765D01*
X154835233Y-69153762D01*
X154775193Y-68955836D01*
X154754920Y-68750000D01*
X154775193Y-68544164D01*
X154835233Y-68346238D01*
X154835234Y-68346235D01*
X154932732Y-68163830D01*
X155063945Y-68003945D01*
X155223830Y-67872732D01*
X155406235Y-67775234D01*
X155406238Y-67775233D01*
X155604164Y-67715193D01*
X155681293Y-67707596D01*
X155758420Y-67700000D01*
X155861580Y-67700000D01*
X155938707Y-67707596D01*
X155938707Y-67707596D01*
G37*
G36*
X173718707Y-67707596D02*
G01*
X173795836Y-67715193D01*
X173993762Y-67775233D01*
X173993765Y-67775234D01*
X174176170Y-67872732D01*
X174336055Y-68003945D01*
X174467268Y-68163830D01*
X174564766Y-68346235D01*
X174564767Y-68346238D01*
X174624807Y-68544164D01*
X174645080Y-68750000D01*
X174624807Y-68955836D01*
X174564767Y-69153762D01*
X174564766Y-69153765D01*
X174467268Y-69336170D01*
X174336055Y-69496055D01*
X174176170Y-69627268D01*
X173993765Y-69724766D01*
X173993762Y-69724767D01*
X173795836Y-69784807D01*
X173718707Y-69792404D01*
X173641580Y-69800000D01*
X173538420Y-69800000D01*
X173461293Y-69792404D01*
X173384164Y-69784807D01*
X173186238Y-69724767D01*
X173186235Y-69724766D01*
X173003830Y-69627268D01*
X172843945Y-69496055D01*
X172712732Y-69336170D01*
X172615234Y-69153765D01*
X172615233Y-69153762D01*
X172555193Y-68955836D01*
X172534920Y-68750000D01*
X172555193Y-68544164D01*
X172615233Y-68346238D01*
X172615234Y-68346235D01*
X172712732Y-68163830D01*
X172843945Y-68003945D01*
X173003830Y-67872732D01*
X173186235Y-67775234D01*
X173186238Y-67775233D01*
X173384164Y-67715193D01*
X173461293Y-67707596D01*
X173538420Y-67700000D01*
X173641580Y-67700000D01*
X173718707Y-67707596D01*
X173718707Y-67707596D01*
G37*
G36*
X153398707Y-67707596D02*
G01*
X153475836Y-67715193D01*
X153673762Y-67775233D01*
X153673765Y-67775234D01*
X153856170Y-67872732D01*
X154016055Y-68003945D01*
X154147268Y-68163830D01*
X154244766Y-68346235D01*
X154244767Y-68346238D01*
X154304807Y-68544164D01*
X154325080Y-68750000D01*
X154304807Y-68955836D01*
X154244767Y-69153762D01*
X154244766Y-69153765D01*
X154147268Y-69336170D01*
X154016055Y-69496055D01*
X153856170Y-69627268D01*
X153673765Y-69724766D01*
X153673762Y-69724767D01*
X153475836Y-69784807D01*
X153398707Y-69792404D01*
X153321580Y-69800000D01*
X153218420Y-69800000D01*
X153141293Y-69792404D01*
X153064164Y-69784807D01*
X152866238Y-69724767D01*
X152866235Y-69724766D01*
X152683830Y-69627268D01*
X152523945Y-69496055D01*
X152392732Y-69336170D01*
X152295234Y-69153765D01*
X152295233Y-69153762D01*
X152235193Y-68955836D01*
X152214920Y-68750000D01*
X152235193Y-68544164D01*
X152295233Y-68346238D01*
X152295234Y-68346235D01*
X152392732Y-68163830D01*
X152523945Y-68003945D01*
X152683830Y-67872732D01*
X152866235Y-67775234D01*
X152866238Y-67775233D01*
X153064164Y-67715193D01*
X153141293Y-67707596D01*
X153218420Y-67700000D01*
X153321580Y-67700000D01*
X153398707Y-67707596D01*
X153398707Y-67707596D01*
G37*
G36*
X150858707Y-67707596D02*
G01*
X150935836Y-67715193D01*
X151133762Y-67775233D01*
X151133765Y-67775234D01*
X151316170Y-67872732D01*
X151476055Y-68003945D01*
X151607268Y-68163830D01*
X151704766Y-68346235D01*
X151704767Y-68346238D01*
X151764807Y-68544164D01*
X151785080Y-68750000D01*
X151764807Y-68955836D01*
X151704767Y-69153762D01*
X151704766Y-69153765D01*
X151607268Y-69336170D01*
X151476055Y-69496055D01*
X151316170Y-69627268D01*
X151133765Y-69724766D01*
X151133762Y-69724767D01*
X150935836Y-69784807D01*
X150858707Y-69792404D01*
X150781580Y-69800000D01*
X150678420Y-69800000D01*
X150601293Y-69792404D01*
X150524164Y-69784807D01*
X150326238Y-69724767D01*
X150326235Y-69724766D01*
X150143830Y-69627268D01*
X149983945Y-69496055D01*
X149852732Y-69336170D01*
X149755234Y-69153765D01*
X149755233Y-69153762D01*
X149695193Y-68955836D01*
X149674920Y-68750000D01*
X149695193Y-68544164D01*
X149755233Y-68346238D01*
X149755234Y-68346235D01*
X149852732Y-68163830D01*
X149983945Y-68003945D01*
X150143830Y-67872732D01*
X150326235Y-67775234D01*
X150326238Y-67775233D01*
X150524164Y-67715193D01*
X150601293Y-67707596D01*
X150678420Y-67700000D01*
X150781580Y-67700000D01*
X150858707Y-67707596D01*
X150858707Y-67707596D01*
G37*
G36*
X148318707Y-67707596D02*
G01*
X148395836Y-67715193D01*
X148593762Y-67775233D01*
X148593765Y-67775234D01*
X148776170Y-67872732D01*
X148936055Y-68003945D01*
X149067268Y-68163830D01*
X149164766Y-68346235D01*
X149164767Y-68346238D01*
X149224807Y-68544164D01*
X149245080Y-68750000D01*
X149224807Y-68955836D01*
X149164767Y-69153762D01*
X149164766Y-69153765D01*
X149067268Y-69336170D01*
X148936055Y-69496055D01*
X148776170Y-69627268D01*
X148593765Y-69724766D01*
X148593762Y-69724767D01*
X148395836Y-69784807D01*
X148318707Y-69792404D01*
X148241580Y-69800000D01*
X148138420Y-69800000D01*
X148061293Y-69792404D01*
X147984164Y-69784807D01*
X147786238Y-69724767D01*
X147786235Y-69724766D01*
X147603830Y-69627268D01*
X147443945Y-69496055D01*
X147312732Y-69336170D01*
X147215234Y-69153765D01*
X147215233Y-69153762D01*
X147155193Y-68955836D01*
X147134920Y-68750000D01*
X147155193Y-68544164D01*
X147215233Y-68346238D01*
X147215234Y-68346235D01*
X147312732Y-68163830D01*
X147443945Y-68003945D01*
X147603830Y-67872732D01*
X147786235Y-67775234D01*
X147786238Y-67775233D01*
X147984164Y-67715193D01*
X148061293Y-67707596D01*
X148138420Y-67700000D01*
X148241580Y-67700000D01*
X148318707Y-67707596D01*
X148318707Y-67707596D01*
G37*
G36*
X143238707Y-67707596D02*
G01*
X143315836Y-67715193D01*
X143513762Y-67775233D01*
X143513765Y-67775234D01*
X143696170Y-67872732D01*
X143856055Y-68003945D01*
X143987268Y-68163830D01*
X144084766Y-68346235D01*
X144084767Y-68346238D01*
X144144807Y-68544164D01*
X144165080Y-68750000D01*
X144144807Y-68955836D01*
X144084767Y-69153762D01*
X144084766Y-69153765D01*
X143987268Y-69336170D01*
X143856055Y-69496055D01*
X143696170Y-69627268D01*
X143513765Y-69724766D01*
X143513762Y-69724767D01*
X143315836Y-69784807D01*
X143238707Y-69792404D01*
X143161580Y-69800000D01*
X143058420Y-69800000D01*
X142981293Y-69792404D01*
X142904164Y-69784807D01*
X142706238Y-69724767D01*
X142706235Y-69724766D01*
X142523830Y-69627268D01*
X142363945Y-69496055D01*
X142232732Y-69336170D01*
X142135234Y-69153765D01*
X142135233Y-69153762D01*
X142075193Y-68955836D01*
X142054920Y-68750000D01*
X142075193Y-68544164D01*
X142135233Y-68346238D01*
X142135234Y-68346235D01*
X142232732Y-68163830D01*
X142363945Y-68003945D01*
X142523830Y-67872732D01*
X142706235Y-67775234D01*
X142706238Y-67775233D01*
X142904164Y-67715193D01*
X142981293Y-67707596D01*
X143058420Y-67700000D01*
X143161580Y-67700000D01*
X143238707Y-67707596D01*
X143238707Y-67707596D01*
G37*
G36*
X145778707Y-67707596D02*
G01*
X145855836Y-67715193D01*
X146053762Y-67775233D01*
X146053765Y-67775234D01*
X146236170Y-67872732D01*
X146396055Y-68003945D01*
X146527268Y-68163830D01*
X146624766Y-68346235D01*
X146624767Y-68346238D01*
X146684807Y-68544164D01*
X146705080Y-68750000D01*
X146684807Y-68955836D01*
X146624767Y-69153762D01*
X146624766Y-69153765D01*
X146527268Y-69336170D01*
X146396055Y-69496055D01*
X146236170Y-69627268D01*
X146053765Y-69724766D01*
X146053762Y-69724767D01*
X145855836Y-69784807D01*
X145778707Y-69792404D01*
X145701580Y-69800000D01*
X145598420Y-69800000D01*
X145521293Y-69792404D01*
X145444164Y-69784807D01*
X145246238Y-69724767D01*
X145246235Y-69724766D01*
X145063830Y-69627268D01*
X144903945Y-69496055D01*
X144772732Y-69336170D01*
X144675234Y-69153765D01*
X144675233Y-69153762D01*
X144615193Y-68955836D01*
X144594920Y-68750000D01*
X144615193Y-68544164D01*
X144675233Y-68346238D01*
X144675234Y-68346235D01*
X144772732Y-68163830D01*
X144903945Y-68003945D01*
X145063830Y-67872732D01*
X145246235Y-67775234D01*
X145246238Y-67775233D01*
X145444164Y-67715193D01*
X145521293Y-67707596D01*
X145598420Y-67700000D01*
X145701580Y-67700000D01*
X145778707Y-67707596D01*
X145778707Y-67707596D01*
G37*
G36*
X176258707Y-67707596D02*
G01*
X176335836Y-67715193D01*
X176533762Y-67775233D01*
X176533765Y-67775234D01*
X176716170Y-67872732D01*
X176876055Y-68003945D01*
X177007268Y-68163830D01*
X177104766Y-68346235D01*
X177104767Y-68346238D01*
X177164807Y-68544164D01*
X177185080Y-68750000D01*
X177164807Y-68955836D01*
X177104767Y-69153762D01*
X177104766Y-69153765D01*
X177007268Y-69336170D01*
X176876055Y-69496055D01*
X176716170Y-69627268D01*
X176533765Y-69724766D01*
X176533762Y-69724767D01*
X176335836Y-69784807D01*
X176258707Y-69792404D01*
X176181580Y-69800000D01*
X176078420Y-69800000D01*
X176001293Y-69792404D01*
X175924164Y-69784807D01*
X175726238Y-69724767D01*
X175726235Y-69724766D01*
X175543830Y-69627268D01*
X175383945Y-69496055D01*
X175252732Y-69336170D01*
X175155234Y-69153765D01*
X175155233Y-69153762D01*
X175095193Y-68955836D01*
X175074920Y-68750000D01*
X175095193Y-68544164D01*
X175155233Y-68346238D01*
X175155234Y-68346235D01*
X175252732Y-68163830D01*
X175383945Y-68003945D01*
X175543830Y-67872732D01*
X175726235Y-67775234D01*
X175726238Y-67775233D01*
X175924164Y-67715193D01*
X176001293Y-67707596D01*
X176078420Y-67700000D01*
X176181580Y-67700000D01*
X176258707Y-67707596D01*
X176258707Y-67707596D01*
G37*
G36*
X121300000Y-69800000D02*
G01*
X119200000Y-69800000D01*
X119200000Y-67700000D01*
X121300000Y-67700000D01*
X121300000Y-69800000D01*
X121300000Y-69800000D01*
G37*
G36*
X122918707Y-67707596D02*
G01*
X122995836Y-67715193D01*
X123193762Y-67775233D01*
X123193765Y-67775234D01*
X123376170Y-67872732D01*
X123536055Y-68003945D01*
X123667268Y-68163830D01*
X123764766Y-68346235D01*
X123764767Y-68346238D01*
X123824807Y-68544164D01*
X123845080Y-68750000D01*
X123824807Y-68955836D01*
X123764767Y-69153762D01*
X123764766Y-69153765D01*
X123667268Y-69336170D01*
X123536055Y-69496055D01*
X123376170Y-69627268D01*
X123193765Y-69724766D01*
X123193762Y-69724767D01*
X122995836Y-69784807D01*
X122918707Y-69792404D01*
X122841580Y-69800000D01*
X122738420Y-69800000D01*
X122661293Y-69792404D01*
X122584164Y-69784807D01*
X122386238Y-69724767D01*
X122386235Y-69724766D01*
X122203830Y-69627268D01*
X122043945Y-69496055D01*
X121912732Y-69336170D01*
X121815234Y-69153765D01*
X121815233Y-69153762D01*
X121755193Y-68955836D01*
X121734920Y-68750000D01*
X121755193Y-68544164D01*
X121815233Y-68346238D01*
X121815234Y-68346235D01*
X121912732Y-68163830D01*
X122043945Y-68003945D01*
X122203830Y-67872732D01*
X122386235Y-67775234D01*
X122386238Y-67775233D01*
X122584164Y-67715193D01*
X122661293Y-67707596D01*
X122738420Y-67700000D01*
X122841580Y-67700000D01*
X122918707Y-67707596D01*
X122918707Y-67707596D01*
G37*
G36*
X125458707Y-67707596D02*
G01*
X125535836Y-67715193D01*
X125733762Y-67775233D01*
X125733765Y-67775234D01*
X125916170Y-67872732D01*
X126076055Y-68003945D01*
X126207268Y-68163830D01*
X126304766Y-68346235D01*
X126304767Y-68346238D01*
X126364807Y-68544164D01*
X126385080Y-68750000D01*
X126364807Y-68955836D01*
X126304767Y-69153762D01*
X126304766Y-69153765D01*
X126207268Y-69336170D01*
X126076055Y-69496055D01*
X125916170Y-69627268D01*
X125733765Y-69724766D01*
X125733762Y-69724767D01*
X125535836Y-69784807D01*
X125458707Y-69792404D01*
X125381580Y-69800000D01*
X125278420Y-69800000D01*
X125201293Y-69792404D01*
X125124164Y-69784807D01*
X124926238Y-69724767D01*
X124926235Y-69724766D01*
X124743830Y-69627268D01*
X124583945Y-69496055D01*
X124452732Y-69336170D01*
X124355234Y-69153765D01*
X124355233Y-69153762D01*
X124295193Y-68955836D01*
X124274920Y-68750000D01*
X124295193Y-68544164D01*
X124355233Y-68346238D01*
X124355234Y-68346235D01*
X124452732Y-68163830D01*
X124583945Y-68003945D01*
X124743830Y-67872732D01*
X124926235Y-67775234D01*
X124926238Y-67775233D01*
X125124164Y-67715193D01*
X125201293Y-67707596D01*
X125278420Y-67700000D01*
X125381580Y-67700000D01*
X125458707Y-67707596D01*
X125458707Y-67707596D01*
G37*
G36*
X127998707Y-67707596D02*
G01*
X128075836Y-67715193D01*
X128273762Y-67775233D01*
X128273765Y-67775234D01*
X128456170Y-67872732D01*
X128616055Y-68003945D01*
X128747268Y-68163830D01*
X128844766Y-68346235D01*
X128844767Y-68346238D01*
X128904807Y-68544164D01*
X128925080Y-68750000D01*
X128904807Y-68955836D01*
X128844767Y-69153762D01*
X128844766Y-69153765D01*
X128747268Y-69336170D01*
X128616055Y-69496055D01*
X128456170Y-69627268D01*
X128273765Y-69724766D01*
X128273762Y-69724767D01*
X128075836Y-69784807D01*
X127998707Y-69792404D01*
X127921580Y-69800000D01*
X127818420Y-69800000D01*
X127741293Y-69792404D01*
X127664164Y-69784807D01*
X127466238Y-69724767D01*
X127466235Y-69724766D01*
X127283830Y-69627268D01*
X127123945Y-69496055D01*
X126992732Y-69336170D01*
X126895234Y-69153765D01*
X126895233Y-69153762D01*
X126835193Y-68955836D01*
X126814920Y-68750000D01*
X126835193Y-68544164D01*
X126895233Y-68346238D01*
X126895234Y-68346235D01*
X126992732Y-68163830D01*
X127123945Y-68003945D01*
X127283830Y-67872732D01*
X127466235Y-67775234D01*
X127466238Y-67775233D01*
X127664164Y-67715193D01*
X127741293Y-67707596D01*
X127818420Y-67700000D01*
X127921580Y-67700000D01*
X127998707Y-67707596D01*
X127998707Y-67707596D01*
G37*
G36*
X130538707Y-67707596D02*
G01*
X130615836Y-67715193D01*
X130813762Y-67775233D01*
X130813765Y-67775234D01*
X130996170Y-67872732D01*
X131156055Y-68003945D01*
X131287268Y-68163830D01*
X131384766Y-68346235D01*
X131384767Y-68346238D01*
X131444807Y-68544164D01*
X131465080Y-68750000D01*
X131444807Y-68955836D01*
X131384767Y-69153762D01*
X131384766Y-69153765D01*
X131287268Y-69336170D01*
X131156055Y-69496055D01*
X130996170Y-69627268D01*
X130813765Y-69724766D01*
X130813762Y-69724767D01*
X130615836Y-69784807D01*
X130538707Y-69792404D01*
X130461580Y-69800000D01*
X130358420Y-69800000D01*
X130281293Y-69792404D01*
X130204164Y-69784807D01*
X130006238Y-69724767D01*
X130006235Y-69724766D01*
X129823830Y-69627268D01*
X129663945Y-69496055D01*
X129532732Y-69336170D01*
X129435234Y-69153765D01*
X129435233Y-69153762D01*
X129375193Y-68955836D01*
X129354920Y-68750000D01*
X129375193Y-68544164D01*
X129435233Y-68346238D01*
X129435234Y-68346235D01*
X129532732Y-68163830D01*
X129663945Y-68003945D01*
X129823830Y-67872732D01*
X130006235Y-67775234D01*
X130006238Y-67775233D01*
X130204164Y-67715193D01*
X130281293Y-67707596D01*
X130358420Y-67700000D01*
X130461580Y-67700000D01*
X130538707Y-67707596D01*
X130538707Y-67707596D01*
G37*
G36*
X133078707Y-67707596D02*
G01*
X133155836Y-67715193D01*
X133353762Y-67775233D01*
X133353765Y-67775234D01*
X133536170Y-67872732D01*
X133696055Y-68003945D01*
X133827268Y-68163830D01*
X133924766Y-68346235D01*
X133924767Y-68346238D01*
X133984807Y-68544164D01*
X134005080Y-68750000D01*
X133984807Y-68955836D01*
X133924767Y-69153762D01*
X133924766Y-69153765D01*
X133827268Y-69336170D01*
X133696055Y-69496055D01*
X133536170Y-69627268D01*
X133353765Y-69724766D01*
X133353762Y-69724767D01*
X133155836Y-69784807D01*
X133078707Y-69792404D01*
X133001580Y-69800000D01*
X132898420Y-69800000D01*
X132821293Y-69792404D01*
X132744164Y-69784807D01*
X132546238Y-69724767D01*
X132546235Y-69724766D01*
X132363830Y-69627268D01*
X132203945Y-69496055D01*
X132072732Y-69336170D01*
X131975234Y-69153765D01*
X131975233Y-69153762D01*
X131915193Y-68955836D01*
X131894920Y-68750000D01*
X131915193Y-68544164D01*
X131975233Y-68346238D01*
X131975234Y-68346235D01*
X132072732Y-68163830D01*
X132203945Y-68003945D01*
X132363830Y-67872732D01*
X132546235Y-67775234D01*
X132546238Y-67775233D01*
X132744164Y-67715193D01*
X132821293Y-67707596D01*
X132898420Y-67700000D01*
X133001580Y-67700000D01*
X133078707Y-67707596D01*
X133078707Y-67707596D01*
G37*
G36*
X135618707Y-67707596D02*
G01*
X135695836Y-67715193D01*
X135893762Y-67775233D01*
X135893765Y-67775234D01*
X136076170Y-67872732D01*
X136236055Y-68003945D01*
X136367268Y-68163830D01*
X136464766Y-68346235D01*
X136464767Y-68346238D01*
X136524807Y-68544164D01*
X136545080Y-68750000D01*
X136524807Y-68955836D01*
X136464767Y-69153762D01*
X136464766Y-69153765D01*
X136367268Y-69336170D01*
X136236055Y-69496055D01*
X136076170Y-69627268D01*
X135893765Y-69724766D01*
X135893762Y-69724767D01*
X135695836Y-69784807D01*
X135618707Y-69792404D01*
X135541580Y-69800000D01*
X135438420Y-69800000D01*
X135361293Y-69792404D01*
X135284164Y-69784807D01*
X135086238Y-69724767D01*
X135086235Y-69724766D01*
X134903830Y-69627268D01*
X134743945Y-69496055D01*
X134612732Y-69336170D01*
X134515234Y-69153765D01*
X134515233Y-69153762D01*
X134455193Y-68955836D01*
X134434920Y-68750000D01*
X134455193Y-68544164D01*
X134515233Y-68346238D01*
X134515234Y-68346235D01*
X134612732Y-68163830D01*
X134743945Y-68003945D01*
X134903830Y-67872732D01*
X135086235Y-67775234D01*
X135086238Y-67775233D01*
X135284164Y-67715193D01*
X135361293Y-67707596D01*
X135438420Y-67700000D01*
X135541580Y-67700000D01*
X135618707Y-67707596D01*
X135618707Y-67707596D01*
G37*
G36*
X138158707Y-67707596D02*
G01*
X138235836Y-67715193D01*
X138433762Y-67775233D01*
X138433765Y-67775234D01*
X138616170Y-67872732D01*
X138776055Y-68003945D01*
X138907268Y-68163830D01*
X139004766Y-68346235D01*
X139004767Y-68346238D01*
X139064807Y-68544164D01*
X139085080Y-68750000D01*
X139064807Y-68955836D01*
X139004767Y-69153762D01*
X139004766Y-69153765D01*
X138907268Y-69336170D01*
X138776055Y-69496055D01*
X138616170Y-69627268D01*
X138433765Y-69724766D01*
X138433762Y-69724767D01*
X138235836Y-69784807D01*
X138158707Y-69792404D01*
X138081580Y-69800000D01*
X137978420Y-69800000D01*
X137901293Y-69792404D01*
X137824164Y-69784807D01*
X137626238Y-69724767D01*
X137626235Y-69724766D01*
X137443830Y-69627268D01*
X137283945Y-69496055D01*
X137152732Y-69336170D01*
X137055234Y-69153765D01*
X137055233Y-69153762D01*
X136995193Y-68955836D01*
X136974920Y-68750000D01*
X136995193Y-68544164D01*
X137055233Y-68346238D01*
X137055234Y-68346235D01*
X137152732Y-68163830D01*
X137283945Y-68003945D01*
X137443830Y-67872732D01*
X137626235Y-67775234D01*
X137626238Y-67775233D01*
X137824164Y-67715193D01*
X137901293Y-67707596D01*
X137978420Y-67700000D01*
X138081580Y-67700000D01*
X138158707Y-67707596D01*
X138158707Y-67707596D01*
G37*
G36*
X140698707Y-67707596D02*
G01*
X140775836Y-67715193D01*
X140973762Y-67775233D01*
X140973765Y-67775234D01*
X141156170Y-67872732D01*
X141316055Y-68003945D01*
X141447268Y-68163830D01*
X141544766Y-68346235D01*
X141544767Y-68346238D01*
X141604807Y-68544164D01*
X141625080Y-68750000D01*
X141604807Y-68955836D01*
X141544767Y-69153762D01*
X141544766Y-69153765D01*
X141447268Y-69336170D01*
X141316055Y-69496055D01*
X141156170Y-69627268D01*
X140973765Y-69724766D01*
X140973762Y-69724767D01*
X140775836Y-69784807D01*
X140698707Y-69792404D01*
X140621580Y-69800000D01*
X140518420Y-69800000D01*
X140441293Y-69792404D01*
X140364164Y-69784807D01*
X140166238Y-69724767D01*
X140166235Y-69724766D01*
X139983830Y-69627268D01*
X139823945Y-69496055D01*
X139692732Y-69336170D01*
X139595234Y-69153765D01*
X139595233Y-69153762D01*
X139535193Y-68955836D01*
X139514920Y-68750000D01*
X139535193Y-68544164D01*
X139595233Y-68346238D01*
X139595234Y-68346235D01*
X139692732Y-68163830D01*
X139823945Y-68003945D01*
X139983830Y-67872732D01*
X140166235Y-67775234D01*
X140166238Y-67775233D01*
X140364164Y-67715193D01*
X140441293Y-67707596D01*
X140518420Y-67700000D01*
X140621580Y-67700000D01*
X140698707Y-67707596D01*
X140698707Y-67707596D01*
G37*
G36*
X120378707Y-65167596D02*
G01*
X120455836Y-65175193D01*
X120653762Y-65235233D01*
X120653765Y-65235234D01*
X120836170Y-65332732D01*
X120996055Y-65463945D01*
X121127268Y-65623830D01*
X121224766Y-65806235D01*
X121224767Y-65806238D01*
X121284807Y-66004164D01*
X121305080Y-66210000D01*
X121284807Y-66415836D01*
X121224767Y-66613762D01*
X121224766Y-66613765D01*
X121127268Y-66796170D01*
X120996055Y-66956055D01*
X120836170Y-67087268D01*
X120653765Y-67184766D01*
X120653762Y-67184767D01*
X120455836Y-67244807D01*
X120378707Y-67252403D01*
X120301580Y-67260000D01*
X120198420Y-67260000D01*
X120121293Y-67252403D01*
X120044164Y-67244807D01*
X119846238Y-67184767D01*
X119846235Y-67184766D01*
X119663830Y-67087268D01*
X119503945Y-66956055D01*
X119372732Y-66796170D01*
X119275234Y-66613765D01*
X119275233Y-66613762D01*
X119215193Y-66415836D01*
X119194920Y-66210000D01*
X119215193Y-66004164D01*
X119275233Y-65806238D01*
X119275234Y-65806235D01*
X119372732Y-65623830D01*
X119503945Y-65463945D01*
X119663830Y-65332732D01*
X119846235Y-65235234D01*
X119846238Y-65235233D01*
X120044164Y-65175193D01*
X120121293Y-65167596D01*
X120198420Y-65160000D01*
X120301580Y-65160000D01*
X120378707Y-65167596D01*
X120378707Y-65167596D01*
G37*
G36*
X125458707Y-65167596D02*
G01*
X125535836Y-65175193D01*
X125733762Y-65235233D01*
X125733765Y-65235234D01*
X125916170Y-65332732D01*
X126076055Y-65463945D01*
X126207268Y-65623830D01*
X126304766Y-65806235D01*
X126304767Y-65806238D01*
X126364807Y-66004164D01*
X126385080Y-66210000D01*
X126364807Y-66415836D01*
X126304767Y-66613762D01*
X126304766Y-66613765D01*
X126207268Y-66796170D01*
X126076055Y-66956055D01*
X125916170Y-67087268D01*
X125733765Y-67184766D01*
X125733762Y-67184767D01*
X125535836Y-67244807D01*
X125458707Y-67252403D01*
X125381580Y-67260000D01*
X125278420Y-67260000D01*
X125201293Y-67252403D01*
X125124164Y-67244807D01*
X124926238Y-67184767D01*
X124926235Y-67184766D01*
X124743830Y-67087268D01*
X124583945Y-66956055D01*
X124452732Y-66796170D01*
X124355234Y-66613765D01*
X124355233Y-66613762D01*
X124295193Y-66415836D01*
X124274920Y-66210000D01*
X124295193Y-66004164D01*
X124355233Y-65806238D01*
X124355234Y-65806235D01*
X124452732Y-65623830D01*
X124583945Y-65463945D01*
X124743830Y-65332732D01*
X124926235Y-65235234D01*
X124926238Y-65235233D01*
X125124164Y-65175193D01*
X125201293Y-65167596D01*
X125278420Y-65160000D01*
X125381580Y-65160000D01*
X125458707Y-65167596D01*
X125458707Y-65167596D01*
G37*
G36*
X122918707Y-65167596D02*
G01*
X122995836Y-65175193D01*
X123193762Y-65235233D01*
X123193765Y-65235234D01*
X123376170Y-65332732D01*
X123536055Y-65463945D01*
X123667268Y-65623830D01*
X123764766Y-65806235D01*
X123764767Y-65806238D01*
X123824807Y-66004164D01*
X123845080Y-66210000D01*
X123824807Y-66415836D01*
X123764767Y-66613762D01*
X123764766Y-66613765D01*
X123667268Y-66796170D01*
X123536055Y-66956055D01*
X123376170Y-67087268D01*
X123193765Y-67184766D01*
X123193762Y-67184767D01*
X122995836Y-67244807D01*
X122918707Y-67252403D01*
X122841580Y-67260000D01*
X122738420Y-67260000D01*
X122661293Y-67252403D01*
X122584164Y-67244807D01*
X122386238Y-67184767D01*
X122386235Y-67184766D01*
X122203830Y-67087268D01*
X122043945Y-66956055D01*
X121912732Y-66796170D01*
X121815234Y-66613765D01*
X121815233Y-66613762D01*
X121755193Y-66415836D01*
X121734920Y-66210000D01*
X121755193Y-66004164D01*
X121815233Y-65806238D01*
X121815234Y-65806235D01*
X121912732Y-65623830D01*
X122043945Y-65463945D01*
X122203830Y-65332732D01*
X122386235Y-65235234D01*
X122386238Y-65235233D01*
X122584164Y-65175193D01*
X122661293Y-65167596D01*
X122738420Y-65160000D01*
X122841580Y-65160000D01*
X122918707Y-65167596D01*
X122918707Y-65167596D01*
G37*
G36*
X148318707Y-65167596D02*
G01*
X148395836Y-65175193D01*
X148593762Y-65235233D01*
X148593765Y-65235234D01*
X148776170Y-65332732D01*
X148936055Y-65463945D01*
X149067268Y-65623830D01*
X149164766Y-65806235D01*
X149164767Y-65806238D01*
X149224807Y-66004164D01*
X149245080Y-66210000D01*
X149224807Y-66415836D01*
X149164767Y-66613762D01*
X149164766Y-66613765D01*
X149067268Y-66796170D01*
X148936055Y-66956055D01*
X148776170Y-67087268D01*
X148593765Y-67184766D01*
X148593762Y-67184767D01*
X148395836Y-67244807D01*
X148318707Y-67252403D01*
X148241580Y-67260000D01*
X148138420Y-67260000D01*
X148061293Y-67252403D01*
X147984164Y-67244807D01*
X147786238Y-67184767D01*
X147786235Y-67184766D01*
X147603830Y-67087268D01*
X147443945Y-66956055D01*
X147312732Y-66796170D01*
X147215234Y-66613765D01*
X147215233Y-66613762D01*
X147155193Y-66415836D01*
X147134920Y-66210000D01*
X147155193Y-66004164D01*
X147215233Y-65806238D01*
X147215234Y-65806235D01*
X147312732Y-65623830D01*
X147443945Y-65463945D01*
X147603830Y-65332732D01*
X147786235Y-65235234D01*
X147786238Y-65235233D01*
X147984164Y-65175193D01*
X148061293Y-65167596D01*
X148138420Y-65160000D01*
X148241580Y-65160000D01*
X148318707Y-65167596D01*
X148318707Y-65167596D01*
G37*
G36*
X145778707Y-65167596D02*
G01*
X145855836Y-65175193D01*
X146053762Y-65235233D01*
X146053765Y-65235234D01*
X146236170Y-65332732D01*
X146396055Y-65463945D01*
X146527268Y-65623830D01*
X146624766Y-65806235D01*
X146624767Y-65806238D01*
X146684807Y-66004164D01*
X146705080Y-66210000D01*
X146684807Y-66415836D01*
X146624767Y-66613762D01*
X146624766Y-66613765D01*
X146527268Y-66796170D01*
X146396055Y-66956055D01*
X146236170Y-67087268D01*
X146053765Y-67184766D01*
X146053762Y-67184767D01*
X145855836Y-67244807D01*
X145778707Y-67252403D01*
X145701580Y-67260000D01*
X145598420Y-67260000D01*
X145521293Y-67252403D01*
X145444164Y-67244807D01*
X145246238Y-67184767D01*
X145246235Y-67184766D01*
X145063830Y-67087268D01*
X144903945Y-66956055D01*
X144772732Y-66796170D01*
X144675234Y-66613765D01*
X144675233Y-66613762D01*
X144615193Y-66415836D01*
X144594920Y-66210000D01*
X144615193Y-66004164D01*
X144675233Y-65806238D01*
X144675234Y-65806235D01*
X144772732Y-65623830D01*
X144903945Y-65463945D01*
X145063830Y-65332732D01*
X145246235Y-65235234D01*
X145246238Y-65235233D01*
X145444164Y-65175193D01*
X145521293Y-65167596D01*
X145598420Y-65160000D01*
X145701580Y-65160000D01*
X145778707Y-65167596D01*
X145778707Y-65167596D01*
G37*
G36*
X143238707Y-65167596D02*
G01*
X143315836Y-65175193D01*
X143513762Y-65235233D01*
X143513765Y-65235234D01*
X143696170Y-65332732D01*
X143856055Y-65463945D01*
X143987268Y-65623830D01*
X144084766Y-65806235D01*
X144084767Y-65806238D01*
X144144807Y-66004164D01*
X144165080Y-66210000D01*
X144144807Y-66415836D01*
X144084767Y-66613762D01*
X144084766Y-66613765D01*
X143987268Y-66796170D01*
X143856055Y-66956055D01*
X143696170Y-67087268D01*
X143513765Y-67184766D01*
X143513762Y-67184767D01*
X143315836Y-67244807D01*
X143238707Y-67252403D01*
X143161580Y-67260000D01*
X143058420Y-67260000D01*
X142981293Y-67252403D01*
X142904164Y-67244807D01*
X142706238Y-67184767D01*
X142706235Y-67184766D01*
X142523830Y-67087268D01*
X142363945Y-66956055D01*
X142232732Y-66796170D01*
X142135234Y-66613765D01*
X142135233Y-66613762D01*
X142075193Y-66415836D01*
X142054920Y-66210000D01*
X142075193Y-66004164D01*
X142135233Y-65806238D01*
X142135234Y-65806235D01*
X142232732Y-65623830D01*
X142363945Y-65463945D01*
X142523830Y-65332732D01*
X142706235Y-65235234D01*
X142706238Y-65235233D01*
X142904164Y-65175193D01*
X142981293Y-65167596D01*
X143058420Y-65160000D01*
X143161580Y-65160000D01*
X143238707Y-65167596D01*
X143238707Y-65167596D01*
G37*
G36*
X140698707Y-65167596D02*
G01*
X140775836Y-65175193D01*
X140973762Y-65235233D01*
X140973765Y-65235234D01*
X141156170Y-65332732D01*
X141316055Y-65463945D01*
X141447268Y-65623830D01*
X141544766Y-65806235D01*
X141544767Y-65806238D01*
X141604807Y-66004164D01*
X141625080Y-66210000D01*
X141604807Y-66415836D01*
X141544767Y-66613762D01*
X141544766Y-66613765D01*
X141447268Y-66796170D01*
X141316055Y-66956055D01*
X141156170Y-67087268D01*
X140973765Y-67184766D01*
X140973762Y-67184767D01*
X140775836Y-67244807D01*
X140698707Y-67252403D01*
X140621580Y-67260000D01*
X140518420Y-67260000D01*
X140441293Y-67252403D01*
X140364164Y-67244807D01*
X140166238Y-67184767D01*
X140166235Y-67184766D01*
X139983830Y-67087268D01*
X139823945Y-66956055D01*
X139692732Y-66796170D01*
X139595234Y-66613765D01*
X139595233Y-66613762D01*
X139535193Y-66415836D01*
X139514920Y-66210000D01*
X139535193Y-66004164D01*
X139595233Y-65806238D01*
X139595234Y-65806235D01*
X139692732Y-65623830D01*
X139823945Y-65463945D01*
X139983830Y-65332732D01*
X140166235Y-65235234D01*
X140166238Y-65235233D01*
X140364164Y-65175193D01*
X140441293Y-65167596D01*
X140518420Y-65160000D01*
X140621580Y-65160000D01*
X140698707Y-65167596D01*
X140698707Y-65167596D01*
G37*
G36*
X138158707Y-65167596D02*
G01*
X138235836Y-65175193D01*
X138433762Y-65235233D01*
X138433765Y-65235234D01*
X138616170Y-65332732D01*
X138776055Y-65463945D01*
X138907268Y-65623830D01*
X139004766Y-65806235D01*
X139004767Y-65806238D01*
X139064807Y-66004164D01*
X139085080Y-66210000D01*
X139064807Y-66415836D01*
X139004767Y-66613762D01*
X139004766Y-66613765D01*
X138907268Y-66796170D01*
X138776055Y-66956055D01*
X138616170Y-67087268D01*
X138433765Y-67184766D01*
X138433762Y-67184767D01*
X138235836Y-67244807D01*
X138158707Y-67252403D01*
X138081580Y-67260000D01*
X137978420Y-67260000D01*
X137901293Y-67252403D01*
X137824164Y-67244807D01*
X137626238Y-67184767D01*
X137626235Y-67184766D01*
X137443830Y-67087268D01*
X137283945Y-66956055D01*
X137152732Y-66796170D01*
X137055234Y-66613765D01*
X137055233Y-66613762D01*
X136995193Y-66415836D01*
X136974920Y-66210000D01*
X136995193Y-66004164D01*
X137055233Y-65806238D01*
X137055234Y-65806235D01*
X137152732Y-65623830D01*
X137283945Y-65463945D01*
X137443830Y-65332732D01*
X137626235Y-65235234D01*
X137626238Y-65235233D01*
X137824164Y-65175193D01*
X137901293Y-65167596D01*
X137978420Y-65160000D01*
X138081580Y-65160000D01*
X138158707Y-65167596D01*
X138158707Y-65167596D01*
G37*
G36*
X133078707Y-65167596D02*
G01*
X133155836Y-65175193D01*
X133353762Y-65235233D01*
X133353765Y-65235234D01*
X133536170Y-65332732D01*
X133696055Y-65463945D01*
X133827268Y-65623830D01*
X133924766Y-65806235D01*
X133924767Y-65806238D01*
X133984807Y-66004164D01*
X134005080Y-66210000D01*
X133984807Y-66415836D01*
X133924767Y-66613762D01*
X133924766Y-66613765D01*
X133827268Y-66796170D01*
X133696055Y-66956055D01*
X133536170Y-67087268D01*
X133353765Y-67184766D01*
X133353762Y-67184767D01*
X133155836Y-67244807D01*
X133078707Y-67252403D01*
X133001580Y-67260000D01*
X132898420Y-67260000D01*
X132821293Y-67252403D01*
X132744164Y-67244807D01*
X132546238Y-67184767D01*
X132546235Y-67184766D01*
X132363830Y-67087268D01*
X132203945Y-66956055D01*
X132072732Y-66796170D01*
X131975234Y-66613765D01*
X131975233Y-66613762D01*
X131915193Y-66415836D01*
X131894920Y-66210000D01*
X131915193Y-66004164D01*
X131975233Y-65806238D01*
X131975234Y-65806235D01*
X132072732Y-65623830D01*
X132203945Y-65463945D01*
X132363830Y-65332732D01*
X132546235Y-65235234D01*
X132546238Y-65235233D01*
X132744164Y-65175193D01*
X132821293Y-65167596D01*
X132898420Y-65160000D01*
X133001580Y-65160000D01*
X133078707Y-65167596D01*
X133078707Y-65167596D01*
G37*
G36*
X130538707Y-65167596D02*
G01*
X130615836Y-65175193D01*
X130813762Y-65235233D01*
X130813765Y-65235234D01*
X130996170Y-65332732D01*
X131156055Y-65463945D01*
X131287268Y-65623830D01*
X131384766Y-65806235D01*
X131384767Y-65806238D01*
X131444807Y-66004164D01*
X131465080Y-66210000D01*
X131444807Y-66415836D01*
X131384767Y-66613762D01*
X131384766Y-66613765D01*
X131287268Y-66796170D01*
X131156055Y-66956055D01*
X130996170Y-67087268D01*
X130813765Y-67184766D01*
X130813762Y-67184767D01*
X130615836Y-67244807D01*
X130538707Y-67252403D01*
X130461580Y-67260000D01*
X130358420Y-67260000D01*
X130281293Y-67252403D01*
X130204164Y-67244807D01*
X130006238Y-67184767D01*
X130006235Y-67184766D01*
X129823830Y-67087268D01*
X129663945Y-66956055D01*
X129532732Y-66796170D01*
X129435234Y-66613765D01*
X129435233Y-66613762D01*
X129375193Y-66415836D01*
X129354920Y-66210000D01*
X129375193Y-66004164D01*
X129435233Y-65806238D01*
X129435234Y-65806235D01*
X129532732Y-65623830D01*
X129663945Y-65463945D01*
X129823830Y-65332732D01*
X130006235Y-65235234D01*
X130006238Y-65235233D01*
X130204164Y-65175193D01*
X130281293Y-65167596D01*
X130358420Y-65160000D01*
X130461580Y-65160000D01*
X130538707Y-65167596D01*
X130538707Y-65167596D01*
G37*
G36*
X127998707Y-65167596D02*
G01*
X128075836Y-65175193D01*
X128273762Y-65235233D01*
X128273765Y-65235234D01*
X128456170Y-65332732D01*
X128616055Y-65463945D01*
X128747268Y-65623830D01*
X128844766Y-65806235D01*
X128844767Y-65806238D01*
X128904807Y-66004164D01*
X128925080Y-66210000D01*
X128904807Y-66415836D01*
X128844767Y-66613762D01*
X128844766Y-66613765D01*
X128747268Y-66796170D01*
X128616055Y-66956055D01*
X128456170Y-67087268D01*
X128273765Y-67184766D01*
X128273762Y-67184767D01*
X128075836Y-67244807D01*
X127998707Y-67252403D01*
X127921580Y-67260000D01*
X127818420Y-67260000D01*
X127741293Y-67252403D01*
X127664164Y-67244807D01*
X127466238Y-67184767D01*
X127466235Y-67184766D01*
X127283830Y-67087268D01*
X127123945Y-66956055D01*
X126992732Y-66796170D01*
X126895234Y-66613765D01*
X126895233Y-66613762D01*
X126835193Y-66415836D01*
X126814920Y-66210000D01*
X126835193Y-66004164D01*
X126895233Y-65806238D01*
X126895234Y-65806235D01*
X126992732Y-65623830D01*
X127123945Y-65463945D01*
X127283830Y-65332732D01*
X127466235Y-65235234D01*
X127466238Y-65235233D01*
X127664164Y-65175193D01*
X127741293Y-65167596D01*
X127818420Y-65160000D01*
X127921580Y-65160000D01*
X127998707Y-65167596D01*
X127998707Y-65167596D01*
G37*
G36*
X176258707Y-65167596D02*
G01*
X176335836Y-65175193D01*
X176533762Y-65235233D01*
X176533765Y-65235234D01*
X176716170Y-65332732D01*
X176876055Y-65463945D01*
X177007268Y-65623830D01*
X177104766Y-65806235D01*
X177104767Y-65806238D01*
X177164807Y-66004164D01*
X177185080Y-66210000D01*
X177164807Y-66415836D01*
X177104767Y-66613762D01*
X177104766Y-66613765D01*
X177007268Y-66796170D01*
X176876055Y-66956055D01*
X176716170Y-67087268D01*
X176533765Y-67184766D01*
X176533762Y-67184767D01*
X176335836Y-67244807D01*
X176258707Y-67252403D01*
X176181580Y-67260000D01*
X176078420Y-67260000D01*
X176001293Y-67252403D01*
X175924164Y-67244807D01*
X175726238Y-67184767D01*
X175726235Y-67184766D01*
X175543830Y-67087268D01*
X175383945Y-66956055D01*
X175252732Y-66796170D01*
X175155234Y-66613765D01*
X175155233Y-66613762D01*
X175095193Y-66415836D01*
X175074920Y-66210000D01*
X175095193Y-66004164D01*
X175155233Y-65806238D01*
X175155234Y-65806235D01*
X175252732Y-65623830D01*
X175383945Y-65463945D01*
X175543830Y-65332732D01*
X175726235Y-65235234D01*
X175726238Y-65235233D01*
X175924164Y-65175193D01*
X176001293Y-65167596D01*
X176078420Y-65160000D01*
X176181580Y-65160000D01*
X176258707Y-65167596D01*
X176258707Y-65167596D01*
G37*
G36*
X173718707Y-65167596D02*
G01*
X173795836Y-65175193D01*
X173993762Y-65235233D01*
X173993765Y-65235234D01*
X174176170Y-65332732D01*
X174336055Y-65463945D01*
X174467268Y-65623830D01*
X174564766Y-65806235D01*
X174564767Y-65806238D01*
X174624807Y-66004164D01*
X174645080Y-66210000D01*
X174624807Y-66415836D01*
X174564767Y-66613762D01*
X174564766Y-66613765D01*
X174467268Y-66796170D01*
X174336055Y-66956055D01*
X174176170Y-67087268D01*
X173993765Y-67184766D01*
X173993762Y-67184767D01*
X173795836Y-67244807D01*
X173718707Y-67252403D01*
X173641580Y-67260000D01*
X173538420Y-67260000D01*
X173461293Y-67252403D01*
X173384164Y-67244807D01*
X173186238Y-67184767D01*
X173186235Y-67184766D01*
X173003830Y-67087268D01*
X172843945Y-66956055D01*
X172712732Y-66796170D01*
X172615234Y-66613765D01*
X172615233Y-66613762D01*
X172555193Y-66415836D01*
X172534920Y-66210000D01*
X172555193Y-66004164D01*
X172615233Y-65806238D01*
X172615234Y-65806235D01*
X172712732Y-65623830D01*
X172843945Y-65463945D01*
X173003830Y-65332732D01*
X173186235Y-65235234D01*
X173186238Y-65235233D01*
X173384164Y-65175193D01*
X173461293Y-65167596D01*
X173538420Y-65160000D01*
X173641580Y-65160000D01*
X173718707Y-65167596D01*
X173718707Y-65167596D01*
G37*
G36*
X171178707Y-65167596D02*
G01*
X171255836Y-65175193D01*
X171453762Y-65235233D01*
X171453765Y-65235234D01*
X171636170Y-65332732D01*
X171796055Y-65463945D01*
X171927268Y-65623830D01*
X172024766Y-65806235D01*
X172024767Y-65806238D01*
X172084807Y-66004164D01*
X172105080Y-66210000D01*
X172084807Y-66415836D01*
X172024767Y-66613762D01*
X172024766Y-66613765D01*
X171927268Y-66796170D01*
X171796055Y-66956055D01*
X171636170Y-67087268D01*
X171453765Y-67184766D01*
X171453762Y-67184767D01*
X171255836Y-67244807D01*
X171178707Y-67252403D01*
X171101580Y-67260000D01*
X170998420Y-67260000D01*
X170921293Y-67252403D01*
X170844164Y-67244807D01*
X170646238Y-67184767D01*
X170646235Y-67184766D01*
X170463830Y-67087268D01*
X170303945Y-66956055D01*
X170172732Y-66796170D01*
X170075234Y-66613765D01*
X170075233Y-66613762D01*
X170015193Y-66415836D01*
X169994920Y-66210000D01*
X170015193Y-66004164D01*
X170075233Y-65806238D01*
X170075234Y-65806235D01*
X170172732Y-65623830D01*
X170303945Y-65463945D01*
X170463830Y-65332732D01*
X170646235Y-65235234D01*
X170646238Y-65235233D01*
X170844164Y-65175193D01*
X170921293Y-65167596D01*
X170998420Y-65160000D01*
X171101580Y-65160000D01*
X171178707Y-65167596D01*
X171178707Y-65167596D01*
G37*
G36*
X168638707Y-65167596D02*
G01*
X168715836Y-65175193D01*
X168913762Y-65235233D01*
X168913765Y-65235234D01*
X169096170Y-65332732D01*
X169256055Y-65463945D01*
X169387268Y-65623830D01*
X169484766Y-65806235D01*
X169484767Y-65806238D01*
X169544807Y-66004164D01*
X169565080Y-66210000D01*
X169544807Y-66415836D01*
X169484767Y-66613762D01*
X169484766Y-66613765D01*
X169387268Y-66796170D01*
X169256055Y-66956055D01*
X169096170Y-67087268D01*
X168913765Y-67184766D01*
X168913762Y-67184767D01*
X168715836Y-67244807D01*
X168638707Y-67252403D01*
X168561580Y-67260000D01*
X168458420Y-67260000D01*
X168381293Y-67252403D01*
X168304164Y-67244807D01*
X168106238Y-67184767D01*
X168106235Y-67184766D01*
X167923830Y-67087268D01*
X167763945Y-66956055D01*
X167632732Y-66796170D01*
X167535234Y-66613765D01*
X167535233Y-66613762D01*
X167475193Y-66415836D01*
X167454920Y-66210000D01*
X167475193Y-66004164D01*
X167535233Y-65806238D01*
X167535234Y-65806235D01*
X167632732Y-65623830D01*
X167763945Y-65463945D01*
X167923830Y-65332732D01*
X168106235Y-65235234D01*
X168106238Y-65235233D01*
X168304164Y-65175193D01*
X168381293Y-65167596D01*
X168458420Y-65160000D01*
X168561580Y-65160000D01*
X168638707Y-65167596D01*
X168638707Y-65167596D01*
G37*
G36*
X166098707Y-65167596D02*
G01*
X166175836Y-65175193D01*
X166373762Y-65235233D01*
X166373765Y-65235234D01*
X166556170Y-65332732D01*
X166716055Y-65463945D01*
X166847268Y-65623830D01*
X166944766Y-65806235D01*
X166944767Y-65806238D01*
X167004807Y-66004164D01*
X167025080Y-66210000D01*
X167004807Y-66415836D01*
X166944767Y-66613762D01*
X166944766Y-66613765D01*
X166847268Y-66796170D01*
X166716055Y-66956055D01*
X166556170Y-67087268D01*
X166373765Y-67184766D01*
X166373762Y-67184767D01*
X166175836Y-67244807D01*
X166098707Y-67252403D01*
X166021580Y-67260000D01*
X165918420Y-67260000D01*
X165841293Y-67252403D01*
X165764164Y-67244807D01*
X165566238Y-67184767D01*
X165566235Y-67184766D01*
X165383830Y-67087268D01*
X165223945Y-66956055D01*
X165092732Y-66796170D01*
X164995234Y-66613765D01*
X164995233Y-66613762D01*
X164935193Y-66415836D01*
X164914920Y-66210000D01*
X164935193Y-66004164D01*
X164995233Y-65806238D01*
X164995234Y-65806235D01*
X165092732Y-65623830D01*
X165223945Y-65463945D01*
X165383830Y-65332732D01*
X165566235Y-65235234D01*
X165566238Y-65235233D01*
X165764164Y-65175193D01*
X165841293Y-65167596D01*
X165918420Y-65160000D01*
X166021580Y-65160000D01*
X166098707Y-65167596D01*
X166098707Y-65167596D01*
G37*
G36*
X163558707Y-65167596D02*
G01*
X163635836Y-65175193D01*
X163833762Y-65235233D01*
X163833765Y-65235234D01*
X164016170Y-65332732D01*
X164176055Y-65463945D01*
X164307268Y-65623830D01*
X164404766Y-65806235D01*
X164404767Y-65806238D01*
X164464807Y-66004164D01*
X164485080Y-66210000D01*
X164464807Y-66415836D01*
X164404767Y-66613762D01*
X164404766Y-66613765D01*
X164307268Y-66796170D01*
X164176055Y-66956055D01*
X164016170Y-67087268D01*
X163833765Y-67184766D01*
X163833762Y-67184767D01*
X163635836Y-67244807D01*
X163558707Y-67252403D01*
X163481580Y-67260000D01*
X163378420Y-67260000D01*
X163301293Y-67252403D01*
X163224164Y-67244807D01*
X163026238Y-67184767D01*
X163026235Y-67184766D01*
X162843830Y-67087268D01*
X162683945Y-66956055D01*
X162552732Y-66796170D01*
X162455234Y-66613765D01*
X162455233Y-66613762D01*
X162395193Y-66415836D01*
X162374920Y-66210000D01*
X162395193Y-66004164D01*
X162455233Y-65806238D01*
X162455234Y-65806235D01*
X162552732Y-65623830D01*
X162683945Y-65463945D01*
X162843830Y-65332732D01*
X163026235Y-65235234D01*
X163026238Y-65235233D01*
X163224164Y-65175193D01*
X163301293Y-65167596D01*
X163378420Y-65160000D01*
X163481580Y-65160000D01*
X163558707Y-65167596D01*
X163558707Y-65167596D01*
G37*
G36*
X161018707Y-65167596D02*
G01*
X161095836Y-65175193D01*
X161293762Y-65235233D01*
X161293765Y-65235234D01*
X161476170Y-65332732D01*
X161636055Y-65463945D01*
X161767268Y-65623830D01*
X161864766Y-65806235D01*
X161864767Y-65806238D01*
X161924807Y-66004164D01*
X161945080Y-66210000D01*
X161924807Y-66415836D01*
X161864767Y-66613762D01*
X161864766Y-66613765D01*
X161767268Y-66796170D01*
X161636055Y-66956055D01*
X161476170Y-67087268D01*
X161293765Y-67184766D01*
X161293762Y-67184767D01*
X161095836Y-67244807D01*
X161018707Y-67252403D01*
X160941580Y-67260000D01*
X160838420Y-67260000D01*
X160761293Y-67252403D01*
X160684164Y-67244807D01*
X160486238Y-67184767D01*
X160486235Y-67184766D01*
X160303830Y-67087268D01*
X160143945Y-66956055D01*
X160012732Y-66796170D01*
X159915234Y-66613765D01*
X159915233Y-66613762D01*
X159855193Y-66415836D01*
X159834920Y-66210000D01*
X159855193Y-66004164D01*
X159915233Y-65806238D01*
X159915234Y-65806235D01*
X160012732Y-65623830D01*
X160143945Y-65463945D01*
X160303830Y-65332732D01*
X160486235Y-65235234D01*
X160486238Y-65235233D01*
X160684164Y-65175193D01*
X160761293Y-65167596D01*
X160838420Y-65160000D01*
X160941580Y-65160000D01*
X161018707Y-65167596D01*
X161018707Y-65167596D01*
G37*
G36*
X135618707Y-65167596D02*
G01*
X135695836Y-65175193D01*
X135893762Y-65235233D01*
X135893765Y-65235234D01*
X136076170Y-65332732D01*
X136236055Y-65463945D01*
X136367268Y-65623830D01*
X136464766Y-65806235D01*
X136464767Y-65806238D01*
X136524807Y-66004164D01*
X136545080Y-66210000D01*
X136524807Y-66415836D01*
X136464767Y-66613762D01*
X136464766Y-66613765D01*
X136367268Y-66796170D01*
X136236055Y-66956055D01*
X136076170Y-67087268D01*
X135893765Y-67184766D01*
X135893762Y-67184767D01*
X135695836Y-67244807D01*
X135618707Y-67252403D01*
X135541580Y-67260000D01*
X135438420Y-67260000D01*
X135361293Y-67252403D01*
X135284164Y-67244807D01*
X135086238Y-67184767D01*
X135086235Y-67184766D01*
X134903830Y-67087268D01*
X134743945Y-66956055D01*
X134612732Y-66796170D01*
X134515234Y-66613765D01*
X134515233Y-66613762D01*
X134455193Y-66415836D01*
X134434920Y-66210000D01*
X134455193Y-66004164D01*
X134515233Y-65806238D01*
X134515234Y-65806235D01*
X134612732Y-65623830D01*
X134743945Y-65463945D01*
X134903830Y-65332732D01*
X135086235Y-65235234D01*
X135086238Y-65235233D01*
X135284164Y-65175193D01*
X135361293Y-65167596D01*
X135438420Y-65160000D01*
X135541580Y-65160000D01*
X135618707Y-65167596D01*
X135618707Y-65167596D01*
G37*
G36*
X158478707Y-65167596D02*
G01*
X158555836Y-65175193D01*
X158753762Y-65235233D01*
X158753765Y-65235234D01*
X158936170Y-65332732D01*
X159096055Y-65463945D01*
X159227268Y-65623830D01*
X159324766Y-65806235D01*
X159324767Y-65806238D01*
X159384807Y-66004164D01*
X159405080Y-66210000D01*
X159384807Y-66415836D01*
X159324767Y-66613762D01*
X159324766Y-66613765D01*
X159227268Y-66796170D01*
X159096055Y-66956055D01*
X158936170Y-67087268D01*
X158753765Y-67184766D01*
X158753762Y-67184767D01*
X158555836Y-67244807D01*
X158478707Y-67252403D01*
X158401580Y-67260000D01*
X158298420Y-67260000D01*
X158221293Y-67252403D01*
X158144164Y-67244807D01*
X157946238Y-67184767D01*
X157946235Y-67184766D01*
X157763830Y-67087268D01*
X157603945Y-66956055D01*
X157472732Y-66796170D01*
X157375234Y-66613765D01*
X157375233Y-66613762D01*
X157315193Y-66415836D01*
X157294920Y-66210000D01*
X157315193Y-66004164D01*
X157375233Y-65806238D01*
X157375234Y-65806235D01*
X157472732Y-65623830D01*
X157603945Y-65463945D01*
X157763830Y-65332732D01*
X157946235Y-65235234D01*
X157946238Y-65235233D01*
X158144164Y-65175193D01*
X158221293Y-65167596D01*
X158298420Y-65160000D01*
X158401580Y-65160000D01*
X158478707Y-65167596D01*
X158478707Y-65167596D01*
G37*
G36*
X155938707Y-65167596D02*
G01*
X156015836Y-65175193D01*
X156213762Y-65235233D01*
X156213765Y-65235234D01*
X156396170Y-65332732D01*
X156556055Y-65463945D01*
X156687268Y-65623830D01*
X156784766Y-65806235D01*
X156784767Y-65806238D01*
X156844807Y-66004164D01*
X156865080Y-66210000D01*
X156844807Y-66415836D01*
X156784767Y-66613762D01*
X156784766Y-66613765D01*
X156687268Y-66796170D01*
X156556055Y-66956055D01*
X156396170Y-67087268D01*
X156213765Y-67184766D01*
X156213762Y-67184767D01*
X156015836Y-67244807D01*
X155938707Y-67252403D01*
X155861580Y-67260000D01*
X155758420Y-67260000D01*
X155681293Y-67252403D01*
X155604164Y-67244807D01*
X155406238Y-67184767D01*
X155406235Y-67184766D01*
X155223830Y-67087268D01*
X155063945Y-66956055D01*
X154932732Y-66796170D01*
X154835234Y-66613765D01*
X154835233Y-66613762D01*
X154775193Y-66415836D01*
X154754920Y-66210000D01*
X154775193Y-66004164D01*
X154835233Y-65806238D01*
X154835234Y-65806235D01*
X154932732Y-65623830D01*
X155063945Y-65463945D01*
X155223830Y-65332732D01*
X155406235Y-65235234D01*
X155406238Y-65235233D01*
X155604164Y-65175193D01*
X155681293Y-65167596D01*
X155758420Y-65160000D01*
X155861580Y-65160000D01*
X155938707Y-65167596D01*
X155938707Y-65167596D01*
G37*
G36*
X153398707Y-65167596D02*
G01*
X153475836Y-65175193D01*
X153673762Y-65235233D01*
X153673765Y-65235234D01*
X153856170Y-65332732D01*
X154016055Y-65463945D01*
X154147268Y-65623830D01*
X154244766Y-65806235D01*
X154244767Y-65806238D01*
X154304807Y-66004164D01*
X154325080Y-66210000D01*
X154304807Y-66415836D01*
X154244767Y-66613762D01*
X154244766Y-66613765D01*
X154147268Y-66796170D01*
X154016055Y-66956055D01*
X153856170Y-67087268D01*
X153673765Y-67184766D01*
X153673762Y-67184767D01*
X153475836Y-67244807D01*
X153398707Y-67252403D01*
X153321580Y-67260000D01*
X153218420Y-67260000D01*
X153141293Y-67252403D01*
X153064164Y-67244807D01*
X152866238Y-67184767D01*
X152866235Y-67184766D01*
X152683830Y-67087268D01*
X152523945Y-66956055D01*
X152392732Y-66796170D01*
X152295234Y-66613765D01*
X152295233Y-66613762D01*
X152235193Y-66415836D01*
X152214920Y-66210000D01*
X152235193Y-66004164D01*
X152295233Y-65806238D01*
X152295234Y-65806235D01*
X152392732Y-65623830D01*
X152523945Y-65463945D01*
X152683830Y-65332732D01*
X152866235Y-65235234D01*
X152866238Y-65235233D01*
X153064164Y-65175193D01*
X153141293Y-65167596D01*
X153218420Y-65160000D01*
X153321580Y-65160000D01*
X153398707Y-65167596D01*
X153398707Y-65167596D01*
G37*
G36*
X150858707Y-65167596D02*
G01*
X150935836Y-65175193D01*
X151133762Y-65235233D01*
X151133765Y-65235234D01*
X151316170Y-65332732D01*
X151476055Y-65463945D01*
X151607268Y-65623830D01*
X151704766Y-65806235D01*
X151704767Y-65806238D01*
X151764807Y-66004164D01*
X151785080Y-66210000D01*
X151764807Y-66415836D01*
X151704767Y-66613762D01*
X151704766Y-66613765D01*
X151607268Y-66796170D01*
X151476055Y-66956055D01*
X151316170Y-67087268D01*
X151133765Y-67184766D01*
X151133762Y-67184767D01*
X150935836Y-67244807D01*
X150858707Y-67252403D01*
X150781580Y-67260000D01*
X150678420Y-67260000D01*
X150601293Y-67252403D01*
X150524164Y-67244807D01*
X150326238Y-67184767D01*
X150326235Y-67184766D01*
X150143830Y-67087268D01*
X149983945Y-66956055D01*
X149852732Y-66796170D01*
X149755234Y-66613765D01*
X149755233Y-66613762D01*
X149695193Y-66415836D01*
X149674920Y-66210000D01*
X149695193Y-66004164D01*
X149755233Y-65806238D01*
X149755234Y-65806235D01*
X149852732Y-65623830D01*
X149983945Y-65463945D01*
X150143830Y-65332732D01*
X150326235Y-65235234D01*
X150326238Y-65235233D01*
X150524164Y-65175193D01*
X150601293Y-65167596D01*
X150678420Y-65160000D01*
X150781580Y-65160000D01*
X150858707Y-65167596D01*
X150858707Y-65167596D01*
G37*
M02*
